<?xml version="1.0" encoding="UTF-8" standalone="no"?>
<!-- Created with Inkscape (http://www.inkscape.org/) -->

<svg
   xmlns:dc="http://purl.org/dc/elements/1.1/"
   xmlns:cc="http://creativecommons.org/ns#"
   xmlns:rdf="http://www.w3.org/1999/02/22-rdf-syntax-ns#"
   xmlns:svg="http://www.w3.org/2000/svg"
   xmlns="http://www.w3.org/2000/svg"
   xmlns:sodipodi="http://sodipodi.sourceforge.net/DTD/sodipodi-0.dtd"
   xmlns:inkscape="http://www.inkscape.org/namespaces/inkscape"
   width="600"
   height="400"
   id="svg2"
   version="1.1"
   inkscape:version="0.48.1 r9760"
   sodipodi:docname="ethnic-minority.svg"
   inkscape:export-filename="/Users/barbarakohler/Desktop/GlobalGameJam2014/pikmin.png"
   inkscape:export-xdpi="56.949234"
   inkscape:export-ydpi="56.949234">
  <defs
     id="defs4">
    <inkscape:perspective
       sodipodi:type="inkscape:persp3d"
       inkscape:vp_x="0 : 200 : 1"
       inkscape:vp_y="0 : 1000 : 0"
       inkscape:vp_z="600 : 200 : 1"
       inkscape:persp3d-origin="300 : 133.33333 : 1"
       id="perspective3984" />
  </defs>
  <sodipodi:namedview
     id="base"
     pagecolor="#ffffff"
     bordercolor="#666666"
     borderopacity="1.0"
     inkscape:pageopacity="0.0"
     inkscape:pageshadow="2"
     inkscape:zoom="1.4142136"
     inkscape:cx="274.03294"
     inkscape:cy="197.94851"
     inkscape:document-units="px"
     inkscape:current-layer="layer1"
     showgrid="false"
     inkscape:window-width="1342"
     inkscape:window-height="796"
     inkscape:window-x="46"
     inkscape:window-y="0"
     inkscape:window-maximized="0"
     showguides="true"
     inkscape:guide-bbox="true" />
  <metadata
     id="metadata7">
    <rdf:RDF>
      <cc:Work
         rdf:about="">
        <dc:format>image/svg+xml</dc:format>
        <dc:type
           rdf:resource="http://purl.org/dc/dcmitype/StillImage" />
        <dc:title></dc:title>
      </cc:Work>
    </rdf:RDF>
  </metadata>
  <g
     inkscape:label="Layer 1"
     inkscape:groupmode="layer"
     id="layer1"
     transform="translate(0,-652.36218)">
    <g
       id="g4099"
       transform="matrix(1.3244406,0,0,1.3244406,-165.51281,-433.15635)" />
    <path
       sodipodi:type="arc"
       style="fill:#07f500;fill-opacity:1;fill-rule:nonzero;stroke:#016c01;stroke-width:13;stroke-linecap:round;stroke-linejoin:miter;stroke-miterlimit:4;stroke-opacity:1;stroke-dasharray:none;stroke-dashoffset:0"
       id="path2985"
       sodipodi:cx="397.14285"
       sodipodi:cy="343.79074"
       sodipodi:rx="134.28572"
       sodipodi:ry="134.28572"
       d="m 531.42857,343.79074 a 134.28572,134.28572 0 1 1 -268.57144,0 134.28572,134.28572 0 1 1 268.57144,0 z"
       transform="translate(-238.86117,489.54384)" />
    <path
       transform="translate(47.138834,492.54384)"
       d="m 531.42857,343.79074 a 134.28572,134.28572 0 1 1 -268.57144,0 134.28572,134.28572 0 1 1 268.57144,0 z"
       sodipodi:ry="134.28572"
       sodipodi:rx="134.28572"
       sodipodi:cy="343.79074"
       sodipodi:cx="397.14285"
       id="path3022"
       style="fill:#07f500;fill-opacity:1;fill-rule:nonzero;stroke:#016c01;stroke-width:13;stroke-linecap:round;stroke-linejoin:miter;stroke-miterlimit:4;stroke-opacity:1;stroke-dasharray:none;stroke-dashoffset:0"
       sodipodi:type="arc" />
    <path
       transform="matrix(1.178731,0,0,1.178731,-39.429286,434.26591)"
       d="m 391.42858,332.36218 a 28.571428,28.571428 0 1 1 -57.14286,0 28.571428,28.571428 0 1 1 57.14286,0 z"
       sodipodi:ry="28.571428"
       sodipodi:rx="28.571428"
       sodipodi:cy="332.36218"
       sodipodi:cx="362.85715"
       id="path3030"
       style="fill:#016c01;fill-opacity:1;fill-rule:nonzero;stroke:#016c01;stroke-width:13;stroke-linecap:round;stroke-linejoin:miter;stroke-miterlimit:4;stroke-opacity:1;stroke-dasharray:none;stroke-dashoffset:0"
       sodipodi:type="arc" />
    <path
       transform="matrix(0.83333334,0,0,-0.83333334,79.873744,1094.9509)"
       d="m 378.8072,329.09296 a 24.243662,24.243662 0 1 1 -48.48732,0 24.243662,24.243662 0 1 1 48.48732,0 z"
       sodipodi:ry="24.243662"
       sodipodi:rx="24.243662"
       sodipodi:cy="329.09296"
       sodipodi:cx="354.56354"
       id="path3032"
       style="fill:#ffffff;fill-opacity:1;fill-rule:nonzero;stroke:none"
       sodipodi:type="arc" />
    <path
       sodipodi:type="arc"
       style="fill:#016c01;fill-opacity:1;fill-rule:nonzero;stroke:#016c01;stroke-width:13;stroke-linecap:round;stroke-linejoin:miter;stroke-miterlimit:4;stroke-opacity:1;stroke-dasharray:none;stroke-dashoffset:0"
       id="path3034"
       sodipodi:cx="362.85715"
       sodipodi:cy="332.36218"
       sodipodi:rx="28.571428"
       sodipodi:ry="28.571428"
       d="m 391.42858,332.36218 a 28.571428,28.571428 0 1 1 -57.14286,0 28.571428,28.571428 0 1 1 57.14286,0 z"
       transform="matrix(-1.178731,0,0,1.178731,927.99262,434.26591)" />
    <path
       sodipodi:type="arc"
       style="fill:#ffffff;fill-opacity:1;fill-rule:nonzero;stroke:none"
       id="path3036"
       sodipodi:cx="354.56354"
       sodipodi:cy="329.09296"
       sodipodi:rx="24.243662"
       sodipodi:ry="24.243662"
       d="m 378.8072,329.09296 a 24.243662,24.243662 0 1 1 -48.48732,0 24.243662,24.243662 0 1 1 48.48732,0 z"
       transform="matrix(-0.83333334,0,0,-0.83333334,780.26319,1092.9509)" />
    <g
       id="g3907"
       transform="translate(-3.7585751,511.46415)">
      <path
         transform="matrix(0.32598341,0,0,0.32598341,217.68087,329.43494)"
         sodipodi:type="arc"
         style="fill:#07f500;fill-opacity:1;fill-rule:nonzero;stroke:#016c01;stroke-width:39.11236191;stroke-linecap:round;stroke-linejoin:miter;stroke-miterlimit:4;stroke-opacity:1;stroke-dasharray:none;stroke-dashoffset:0"
         id="path3909"
         sodipodi:cx="397.14285"
         sodipodi:cy="343.79074"
         sodipodi:rx="134.28572"
         sodipodi:ry="134.28572"
         d="m 531.42857,343.79074 c 0,74.16396 -60.12176,134.28572 -134.28572,134.28572 -74.16395,0 -134.28572,-60.12176 -134.28572,-134.28572 0,-74.16395 60.12177,-134.28572 134.28572,-134.28572 74.16396,0 134.28572,60.12177 134.28572,134.28572 z" />
    </g>
    <path
       style="fill:#ffffff;fill-opacity:1;fill-rule:nonzero;stroke:#ffffff;stroke-width:12.3536272;stroke-linecap:round;stroke-linejoin:miter;stroke-miterlimit:4;stroke-opacity:0;stroke-dashoffset:0"
       d="m 469.84895,771.52696 -47.17619,-3.19238 c 0,-14.58468 -14.61417,-6.5338 -26.50758,-7.43091 -7.47777,-0.56405 -11.59403,-4.27088 -18.98606,-11.56425 -10.68655,-10.54392 -27.07554,-0.1551 -16.93857,-9.03382 22.4493,-19.66278 51.85352,-31.57993 84.04112,-31.57993 31.65534,0 60.61858,11.52626 82.92173,30.61083 1.07667,2.47354 -5.41977,12.16313 -18.90595,14.19907 -22.31969,3.36947 -85.35767,12.63303 -38.4485,17.99139 z"
       id="path3911"
       inkscape:connector-curvature="0"
       sodipodi:nodetypes="ccsssscsc" />
    <g
       transform="translate(193.44748,253.52303)"
       id="g3917">
      <path
         style="fill:#ffffff;fill-opacity:1;fill-rule:nonzero;stroke:#217ac1;stroke-width:15.34837151;stroke-linecap:round;stroke-linejoin:miter;stroke-miterlimit:4;stroke-opacity:1;stroke-dashoffset:0"
         d="m 329.28593,491.04165 c -10.30126,18.36941 -54.06149,29.74885 -97.74122,25.41668 -29.95559,-2.971 -53.3491,-12.80436 -60.42812,-25.40068"
         id="path3919"
         inkscape:connector-curvature="0" />
    </g>
    <g
       transform="matrix(0.5625333,0,0,0.2423157,206.08521,531.36306)"
       id="g3927">
      <path
         transform="matrix(0.96609351,-0.25819242,0.25819242,0.96609351,-106.91117,533.66745)"
         d="M 493,494 351.03848,455.96152 454.96152,352.03848 z"
         inkscape:randomized="0"
         inkscape:rounded="0"
         inkscape:flatsided="true"
         sodipodi:arg2="1.8325957"
         sodipodi:arg1="0.78539816"
         sodipodi:r2="60"
         sodipodi:r1="84.852814"
         sodipodi:cy="434"
         sodipodi:cx="433"
         sodipodi:sides="3"
         id="path3929"
         style="fill:#000000;fill-opacity:0;fill-rule:nonzero;stroke:#217ac1;stroke-width:10;stroke-linecap:round;stroke-linejoin:miter;stroke-miterlimit:4;stroke-opacity:1;stroke-dasharray:none;stroke-dashoffset:0"
         sodipodi:type="star" />
      <path
         sodipodi:type="star"
         style="fill:#000000;fill-opacity:0;fill-rule:nonzero;stroke:#217ac1;stroke-width:10;stroke-linecap:round;stroke-linejoin:miter;stroke-miterlimit:4;stroke-opacity:1;stroke-dasharray:none;stroke-dashoffset:0"
         id="path3931"
         sodipodi:sides="3"
         sodipodi:cx="433"
         sodipodi:cy="434"
         sodipodi:r1="84.852814"
         sodipodi:r2="60"
         sodipodi:arg1="0.78539816"
         sodipodi:arg2="1.8325957"
         inkscape:flatsided="true"
         inkscape:rounded="0"
         inkscape:randomized="0"
         d="M 493,494 351.03848,455.96152 454.96152,352.03848 z"
         transform="matrix(-0.96609351,0.25819242,-0.25819242,-0.96609351,953.78179,1144.2632)" />
    </g>
    <path
       transform="matrix(1.178731,0,0,1.178731,-324.01509,434.82226)"
       d="m 391.42858,332.36218 a 28.571428,28.571428 0 1 1 -57.14286,0 28.571428,28.571428 0 1 1 57.14286,0 z"
       sodipodi:ry="28.571428"
       sodipodi:rx="28.571428"
       sodipodi:cy="332.36218"
       sodipodi:cx="362.85715"
       id="path3899"
       style="fill:#016c01;fill-opacity:1;fill-rule:nonzero;stroke:#016c01;stroke-width:13;stroke-linecap:round;stroke-linejoin:miter;stroke-miterlimit:4;stroke-opacity:1;stroke-dasharray:none;stroke-dashoffset:0"
       sodipodi:type="arc" />
    <path
       transform="matrix(0.83333334,0,0,-0.83333334,-179.2562,1099.0429)"
       d="m 378.8072,329.09296 a 24.243662,24.243662 0 1 1 -48.48732,0 24.243662,24.243662 0 1 1 48.48732,0 z"
       sodipodi:ry="24.243662"
       sodipodi:rx="24.243662"
       sodipodi:cy="329.09296"
       sodipodi:cx="354.56354"
       id="path3901"
       style="fill:#ffffff;fill-opacity:1;fill-rule:nonzero;stroke:none"
       sodipodi:type="arc" />
    <path
       sodipodi:type="arc"
       style="fill:#016c01;fill-opacity:1;fill-rule:nonzero;stroke:#016c01;stroke-width:13;stroke-linecap:round;stroke-linejoin:miter;stroke-miterlimit:4;stroke-opacity:1;stroke-dasharray:none;stroke-dashoffset:0"
       id="path3903"
       sodipodi:cx="362.85715"
       sodipodi:cy="332.36218"
       sodipodi:rx="28.571428"
       sodipodi:ry="28.571428"
       d="m 391.42858,332.36218 a 28.571428,28.571428 0 1 1 -57.14286,0 28.571428,28.571428 0 1 1 57.14286,0 z"
       transform="matrix(-1.178731,0,0,1.178731,643.40685,434.82226)" />
    <path
       sodipodi:type="arc"
       style="fill:#ffffff;fill-opacity:1;fill-rule:nonzero;stroke:none"
       id="path3905"
       sodipodi:cx="354.56354"
       sodipodi:cy="329.09296"
       sodipodi:rx="24.243662"
       sodipodi:ry="24.243662"
       d="m 378.8072,329.09296 a 24.243662,24.243662 0 1 1 -48.48732,0 24.243662,24.243662 0 1 1 48.48732,0 z"
       transform="matrix(-0.83333334,0,0,-0.83333334,521.13325,1097.0429)" />
    <path
       style="fill:#e7b47b;fill-opacity:0;fill-rule:nonzero;stroke:#000000;stroke-width:38.54560852;stroke-linecap:round;stroke-linejoin:miter;stroke-miterlimit:4;stroke-opacity:1;stroke-dasharray:none;stroke-dashoffset:0"
       d="m 158.51555,743.44704 c -62.392819,0 -114.102396,50.15237 -123.271976,115.62445 9.16979,65.47167 60.879327,115.62431 123.271976,115.62431 62.3926,0 114.07311,-50.15275 123.24298,-115.62431 -9.16965,-65.47198 -60.85021,-115.62445 -123.24298,-115.62445 z"
       id="path3935"
       inkscape:connector-curvature="0" />
    <path
       sodipodi:type="arc"
       style="fill:none;stroke:#e7b47b;stroke-width:30;stroke-linecap:round;stroke-linejoin:miter;stroke-miterlimit:4;stroke-opacity:1;stroke-dasharray:none;stroke-dashoffset:0"
       id="path3974"
       sodipodi:cx="397.14285"
       sodipodi:cy="343.79074"
       sodipodi:rx="122.97202"
       sodipodi:ry="134.28572"
       d="m 520.11488,343.79074 a 122.97202,134.28572 0 1 1 -245.94405,0 122.97202,134.28572 0 1 1 245.94405,0 z"
       transform="translate(-238.86117,485.3012)" />
    <path
       transform="matrix(0.90110495,0,0,1.0255911,-197.61923,534.40777)"
       d="M 531.42857,343.79074 A 134.28572,134.28572 0 0 1 263.43158,356.1984"
       sodipodi:ry="134.28572"
       sodipodi:rx="134.28572"
       sodipodi:cy="343.79074"
       sodipodi:cx="397.14285"
       id="path3976"
       style="fill:#e7b47b;fill-opacity:0;stroke:#e7b47b;stroke-width:20.54741859;stroke-linecap:round;stroke-linejoin:miter;stroke-miterlimit:4;stroke-opacity:1;stroke-dasharray:none;stroke-dashoffset:0"
       sodipodi:type="arc"
       sodipodi:start="0"
       sodipodi:end="3.0490632"
       sodipodi:open="true" />
    <path
       sodipodi:open="true"
       sodipodi:end="3.0490632"
       sodipodi:start="0"
       sodipodi:type="arc"
       style="fill:#e7b47b;fill-opacity:0;stroke:#db8d39;stroke-width:20.54741859;stroke-linecap:round;stroke-linejoin:miter;stroke-miterlimit:4;stroke-opacity:1;stroke-dasharray:none;stroke-dashoffset:0"
       id="path3980"
       sodipodi:cx="397.14285"
       sodipodi:cy="343.79074"
       sodipodi:rx="134.28572"
       sodipodi:ry="134.28572"
       d="M 531.42857,343.79074 A 134.28572,134.28572 0 0 1 263.43158,356.1984"
       transform="matrix(0.90110495,0,0,1.0255911,-199.03344,514.60878)" />
    <path
       transform="matrix(0.90110495,0,0,1.0255911,-199.03344,494.80979)"
       d="M 531.42857,343.79074 A 134.28572,134.28572 0 0 1 263.43158,356.1984"
       sodipodi:ry="134.28572"
       sodipodi:rx="134.28572"
       sodipodi:cy="343.79074"
       sodipodi:cx="397.14285"
       id="path3982"
       style="fill:#e7b47b;fill-opacity:0;stroke:#e4aa6a;stroke-width:20.54741859;stroke-linecap:round;stroke-linejoin:miter;stroke-miterlimit:4;stroke-opacity:1;stroke-dasharray:none;stroke-dashoffset:0"
       sodipodi:type="arc"
       sodipodi:start="0"
       sodipodi:end="3.0490632"
       sodipodi:open="true" />
    <path
       sodipodi:open="true"
       sodipodi:end="3.0490632"
       sodipodi:start="0"
       sodipodi:type="arc"
       style="fill:none;stroke:#e7b47b;stroke-width:29.94504738;stroke-linecap:round;stroke-linejoin:miter;stroke-miterlimit:4;stroke-opacity:1;stroke-dasharray:none;stroke-dashoffset:0"
       id="path3978"
       sodipodi:cx="397.14285"
       sodipodi:cy="343.79074"
       sodipodi:rx="134.28572"
       sodipodi:ry="134.28572"
       d="M 531.42857,343.79074 A 134.28572,134.28572 0 0 1 263.43158,356.1984"
       transform="matrix(0.97862938,0,0,-1.0255911,-231.02698,1203.2826)" />
    <path
       style="fill:#e7b47b;fill-opacity:1;stroke:#e7b47e;stroke-width:15;stroke-linecap:butt;stroke-linejoin:miter;stroke-miterlimit:4;stroke-opacity:1;stroke-dasharray:none"
       d="m 19.937824,841.22983 9.19239,95.45938 -9.8995,62.22533"
       id="path4046"
       inkscape:connector-curvature="0"
       sodipodi:nodetypes="ccc" />
    <path
       inkscape:connector-curvature="0"
       id="path4048"
       d="m 30.787064,830.86587 c 0,0 11.84255,75.75183 10.60661,113.84419 -0.6811,20.99159 -9.8995,62.22534 -9.8995,62.22534"
       style="fill:#e7b47b;fill-opacity:1;stroke:#e4aa6e;stroke-width:15;stroke-linecap:butt;stroke-linejoin:miter;stroke-miterlimit:4;stroke-opacity:1;stroke-dasharray:none"
       sodipodi:nodetypes="cac" />
    <path
       style="fill:#e7b47b;fill-opacity:1;stroke:#db8d39;stroke-width:15;stroke-linecap:butt;stroke-linejoin:miter;stroke-miterlimit:4;stroke-opacity:1;stroke-dasharray:none"
       d="m 39.393674,865.5141 c 0,0 8.84345,54.98678 9.19238,82.73144 0.31238,24.83752 -6.36396,74.24616 -6.36396,74.24616"
       id="path4050"
       inkscape:connector-curvature="0"
       sodipodi:nodetypes="cac" />
    <g
       transform="translate(-92.146926,516.41391)"
       id="g4054">
      <path
         d="m 531.42857,343.79074 c 0,74.16396 -60.12176,134.28572 -134.28572,134.28572 -74.16395,0 -134.28572,-60.12176 -134.28572,-134.28572 0,-74.16395 60.12177,-134.28572 134.28572,-134.28572 74.16396,0 134.28572,60.12177 134.28572,134.28572 z"
         sodipodi:ry="134.28572"
         sodipodi:rx="134.28572"
         sodipodi:cy="343.79074"
         sodipodi:cx="397.14285"
         id="path4056"
         style="fill:#07f500;fill-opacity:1;fill-rule:nonzero;stroke:#016c01;stroke-width:39.11236191;stroke-linecap:round;stroke-linejoin:miter;stroke-miterlimit:4;stroke-opacity:1;stroke-dasharray:none;stroke-dashoffset:0"
         sodipodi:type="arc"
         transform="matrix(0.32598341,0,0,0.32598341,217.68087,329.43494)" />
    </g>
    <path
       style="fill:#e7b47b;fill-opacity:1;stroke:#e7b47e;stroke-width:15;stroke-linecap:butt;stroke-linejoin:miter;stroke-miterlimit:4;stroke-opacity:1;stroke-dasharray:none"
       d="m 295.12366,851.12933 -6.36396,94.75228 3.53553,62.22539"
       id="path4058"
       inkscape:connector-curvature="0"
       sodipodi:nodetypes="ccc" />
  </g>
</svg>
