<?xml version="1.0" encoding="UTF-8" standalone="no"?>
<!-- Created with Inkscape (http://www.inkscape.org/) -->

<svg
   xmlns:dc="http://purl.org/dc/elements/1.1/"
   xmlns:cc="http://creativecommons.org/ns#"
   xmlns:rdf="http://www.w3.org/1999/02/22-rdf-syntax-ns#"
   xmlns:svg="http://www.w3.org/2000/svg"
   xmlns="http://www.w3.org/2000/svg"
   xmlns:sodipodi="http://sodipodi.sourceforge.net/DTD/sodipodi-0.dtd"
   xmlns:inkscape="http://www.inkscape.org/namespaces/inkscape"
   width="600"
   height="400"
   id="svg2"
   version="1.1"
   inkscape:version="0.48.2 r9819"
   sodipodi:docname="kosher.svg"
   inkscape:export-filename="/Users/barbarakohler/Desktop/GlobalGameJam2014/pikmin.png"
   inkscape:export-xdpi="56.949234"
   inkscape:export-ydpi="56.949234">
  <defs
     id="defs4">
    <inkscape:perspective
       sodipodi:type="inkscape:persp3d"
       inkscape:vp_x="0 : 200 : 1"
       inkscape:vp_y="0 : 1000 : 0"
       inkscape:vp_z="600 : 200 : 1"
       inkscape:persp3d-origin="300 : 133.33333 : 1"
       id="perspective3984" />
  </defs>
  <sodipodi:namedview
     id="base"
     pagecolor="#ffffff"
     bordercolor="#666666"
     borderopacity="1.0"
     inkscape:pageopacity="0.0"
     inkscape:pageshadow="2"
     inkscape:zoom="0.7071068"
     inkscape:cx="458.592"
     inkscape:cy="111.72503"
     inkscape:document-units="px"
     inkscape:current-layer="layer1"
     showgrid="false"
     inkscape:window-width="1280"
     inkscape:window-height="709"
     inkscape:window-x="0"
     inkscape:window-y="0"
     inkscape:window-maximized="1"
     showguides="true"
     inkscape:guide-bbox="true" />
  <metadata
     id="metadata7">
    <rdf:RDF>
      <cc:Work
         rdf:about="">
        <dc:format>image/svg+xml</dc:format>
        <dc:type
           rdf:resource="http://purl.org/dc/dcmitype/StillImage" />
        <dc:title />
      </cc:Work>
    </rdf:RDF>
  </metadata>
  <g
     inkscape:label="Layer 1"
     inkscape:groupmode="layer"
     id="layer1"
     transform="translate(0,-652.36218)">
    <g
       id="g4099"
       transform="matrix(1.3244406,0,0,1.3244406,-165.51281,-433.15635)" />
    <path
       transform="translate(30.168272,495.37227)"
       d="m 531.42857,343.79074 a 134.28572,134.28572 0 1 1 -268.57144,0 134.28572,134.28572 0 1 1 268.57144,0 z"
       sodipodi:ry="134.28572"
       sodipodi:rx="134.28572"
       sodipodi:cy="343.79074"
       sodipodi:cx="397.14285"
       id="path3022"
       style="fill:#07f500;fill-opacity:1;fill-rule:nonzero;stroke:#016c01;stroke-width:13;stroke-linecap:round;stroke-linejoin:miter;stroke-miterlimit:4;stroke-opacity:1;stroke-dasharray:none;stroke-dashoffset:0"
       sodipodi:type="arc" />
    <path
       transform="matrix(1.178731,0,0,1.178731,-56.399848,437.09434)"
       d="m 391.42858,332.36218 a 28.571428,28.571428 0 1 1 -57.14286,0 28.571428,28.571428 0 1 1 57.14286,0 z"
       sodipodi:ry="28.571428"
       sodipodi:rx="28.571428"
       sodipodi:cy="332.36218"
       sodipodi:cx="362.85715"
       id="path3030"
       style="fill:#016c01;fill-opacity:1;fill-rule:nonzero;stroke:#016c01;stroke-width:13;stroke-linecap:round;stroke-linejoin:miter;stroke-miterlimit:4;stroke-opacity:1;stroke-dasharray:none;stroke-dashoffset:0"
       sodipodi:type="arc" />
    <path
       transform="matrix(0.83333334,0,0,-0.83333334,62.903182,1097.7793)"
       d="m 378.8072,329.09296 a 24.243662,24.243662 0 1 1 -48.48732,0 24.243662,24.243662 0 1 1 48.48732,0 z"
       sodipodi:ry="24.243662"
       sodipodi:rx="24.243662"
       sodipodi:cy="329.09296"
       sodipodi:cx="354.56354"
       id="path3032"
       style="fill:#ffffff;fill-opacity:1;fill-rule:nonzero;stroke:none"
       sodipodi:type="arc" />
    <path
       sodipodi:type="arc"
       style="fill:#016c01;fill-opacity:1;fill-rule:nonzero;stroke:#016c01;stroke-width:13;stroke-linecap:round;stroke-linejoin:miter;stroke-miterlimit:4;stroke-opacity:1;stroke-dasharray:none;stroke-dashoffset:0"
       id="path3034"
       sodipodi:cx="362.85715"
       sodipodi:cy="332.36218"
       sodipodi:rx="28.571428"
       sodipodi:ry="28.571428"
       d="m 391.42858,332.36218 a 28.571428,28.571428 0 1 1 -57.14286,0 28.571428,28.571428 0 1 1 57.14286,0 z"
       transform="matrix(-1.178731,0,0,1.178731,911.02206,437.09434)" />
    <path
       sodipodi:type="arc"
       style="fill:#ffffff;fill-opacity:1;fill-rule:nonzero;stroke:none"
       id="path3036"
       sodipodi:cx="354.56354"
       sodipodi:cy="329.09296"
       sodipodi:rx="24.243662"
       sodipodi:ry="24.243662"
       d="m 378.8072,329.09296 a 24.243662,24.243662 0 1 1 -48.48732,0 24.243662,24.243662 0 1 1 48.48732,0 z"
       transform="matrix(-0.83333334,0,0,-0.83333334,763.29263,1095.7793)" />
    <path
       style="fill:#ffffff;fill-opacity:1;fill-rule:nonzero;stroke:#ffffff;stroke-width:12.3536272;stroke-linecap:round;stroke-linejoin:miter;stroke-miterlimit:4;stroke-opacity:0;stroke-dashoffset:0"
       d="m 452.87839,774.35539 -47.17619,-3.19238 c 0,-14.58468 -14.61417,-6.5338 -26.50758,-7.43091 -7.47777,-0.56405 -11.59403,-4.27088 -18.98606,-11.56425 -10.68655,-10.54392 -27.07554,-0.1551 -16.93857,-9.03382 22.4493,-19.66278 51.85352,-31.57993 84.04112,-31.57993 31.65534,0 60.61858,11.52626 82.92173,30.61083 1.07667,2.47354 -5.41977,12.16313 -18.90595,14.19907 -22.31969,3.36947 -85.35767,12.63303 -38.4485,17.99139 z"
       id="path3911"
       inkscape:connector-curvature="0"
       sodipodi:nodetypes="ccsssscsc" />
    <g
       transform="translate(176.47692,256.35146)"
       id="g3917">
      <path
         style="fill:#ffffff;fill-opacity:1;fill-rule:nonzero;stroke:#217ac1;stroke-width:15.34837151;stroke-linecap:round;stroke-linejoin:miter;stroke-miterlimit:4;stroke-opacity:1;stroke-dashoffset:0"
         d="m 329.28593,491.04165 c -10.30126,18.36941 -54.06149,29.74885 -97.74122,25.41668 -29.95559,-2.971 -53.3491,-12.80436 -60.42812,-25.40068"
         id="path3919"
         inkscape:connector-curvature="0" />
    </g>
    <g
       transform="matrix(0.5625333,0,0,0.2423157,189.11465,534.19149)"
       id="g3927">
      <path
         transform="matrix(0.96609351,-0.25819242,0.25819242,0.96609351,-106.91117,533.66745)"
         d="M 493,494 351.03848,455.96152 454.96152,352.03848 z"
         inkscape:randomized="0"
         inkscape:rounded="0"
         inkscape:flatsided="true"
         sodipodi:arg2="1.8325957"
         sodipodi:arg1="0.78539816"
         sodipodi:r2="60"
         sodipodi:r1="84.852814"
         sodipodi:cy="434"
         sodipodi:cx="433"
         sodipodi:sides="3"
         id="path3929"
         style="fill:#000000;fill-opacity:0;fill-rule:nonzero;stroke:#217ac1;stroke-width:10;stroke-linecap:round;stroke-linejoin:miter;stroke-miterlimit:4;stroke-opacity:1;stroke-dasharray:none;stroke-dashoffset:0"
         sodipodi:type="star" />
      <path
         sodipodi:type="star"
         style="fill:#000000;fill-opacity:0;fill-rule:nonzero;stroke:#217ac1;stroke-width:10;stroke-linecap:round;stroke-linejoin:miter;stroke-miterlimit:4;stroke-opacity:1;stroke-dasharray:none;stroke-dashoffset:0"
         id="path3931"
         sodipodi:sides="3"
         sodipodi:cx="433"
         sodipodi:cy="434"
         sodipodi:r1="84.852814"
         sodipodi:r2="60"
         sodipodi:arg1="0.78539816"
         sodipodi:arg2="1.8325957"
         inkscape:flatsided="true"
         inkscape:rounded="0"
         inkscape:randomized="0"
         d="M 493,494 351.03848,455.96152 454.96152,352.03848 z"
         transform="matrix(-0.96609351,0.25819242,-0.25819242,-0.96609351,953.78179,1144.2632)" />
    </g>
    <g
       id="g3820"
       transform="matrix(0.7513852,0.41195336,-0.41195336,0.7513852,266.17303,-71.224013)">
      <path
         sodipodi:type="arc"
         style="fill:#ffffff;fill-opacity:1;stroke:#000000;stroke-width:8.89999962;stroke-linejoin:miter;stroke-miterlimit:4;stroke-opacity:1;stroke-dasharray:none;stroke-dashoffset:0"
         id="path3799"
         sodipodi:cx="873.98395"
         sodipodi:cy="310.90454"
         sodipodi:rx="39.59798"
         sodipodi:ry="31.112698"
         d="m 913.58193,310.90454 c 0,17.18307 -17.72862,31.1127 -39.59798,31.1127 -21.86936,0 -39.59798,-13.92963 -39.59798,-31.1127 0,-17.18307 17.72862,-31.1127 39.59798,-31.1127 21.86936,0 39.59798,13.92963 39.59798,31.1127 z"
         transform="matrix(0.81125731,0,0,0.56898371,-16.768352,762.75319)" />
      <path
         sodipodi:nodetypes="csc"
         inkscape:connector-curvature="0"
         id="path3801"
         d="m 723.67456,1007.1815 c 0,9.7769 -14.38247,17.7026 -32.12415,17.7026 -17.74168,0 -32.12415,-7.9257 -32.12415,-17.7026"
         style="fill:#ffffff;fill-opacity:1;stroke:#000000;stroke-width:6.04671097;stroke-linejoin:miter;stroke-miterlimit:4;stroke-opacity:1;stroke-dashoffset:0" />
      <path
         inkscape:connector-curvature="0"
         id="path3804"
         d="m 660.08416,944.11313 -1.06066,64.24347"
         style="fill:none;stroke:#000000;stroke-width:6.16099405;stroke-linecap:butt;stroke-linejoin:miter;stroke-miterlimit:4;stroke-opacity:1;stroke-dasharray:none" />
      <path
         inkscape:connector-curvature="0"
         id="path3806"
         d="m 724.43088,943.46774 -0.70711,67.00936"
         style="fill:none;stroke:#000000;stroke-width:6.14829254;stroke-linecap:butt;stroke-linejoin:miter;stroke-miterlimit:4;stroke-opacity:1;stroke-dasharray:none" />
      <path
         sodipodi:nodetypes="csccscc"
         style="fill:#0c2613;fill-opacity:1;stroke:none"
         d="m 724.06112,941.28173 c -0.12816,8.88377 -14.51063,16.80947 -32.25231,16.80947 -17.74168,0 -32.12415,-7.9257 -32.0452,-16.48678 l -0.78033,64.87178 c 0.20138,9.1893 14.58385,17.115 32.32553,17.115 17.74168,0 32.12415,-7.9257 32.14876,-16.0548 z"
         id="path3816"
         inkscape:connector-curvature="0" />
      <path
         transform="matrix(1.1617647,0,0,1.1617647,-115.03483,607.45529)"
         d="m 706.75324,285.09515 c 0,2.92894 -5.38191,5.3033 -12.02082,5.3033 -6.63891,0 -12.02081,-2.37436 -12.02081,-5.3033 0,-2.92893 5.3819,-5.3033 12.02081,-5.3033 6.63891,0 12.02082,2.37437 12.02082,5.3033 z"
         sodipodi:ry="5.3033009"
         sodipodi:rx="12.020815"
         sodipodi:cy="285.09515"
         sodipodi:cx="694.73242"
         id="path3808"
         style="fill:#ff8080;fill-opacity:1;stroke:none"
         sodipodi:type="arc" />
    </g>
    <g
       id="g3907"
       transform="translate(-12.243851,541.86974)">
      <path
         transform="matrix(0.32598341,0,0,0.32598341,217.68087,329.43494)"
         sodipodi:type="arc"
         style="fill:#07f500;fill-opacity:1;fill-rule:nonzero;stroke:#016c01;stroke-width:39.11236191;stroke-linecap:round;stroke-linejoin:miter;stroke-miterlimit:4;stroke-opacity:1;stroke-dasharray:none;stroke-dashoffset:0"
         id="path3909"
         sodipodi:cx="397.14285"
         sodipodi:cy="343.79074"
         sodipodi:rx="134.28572"
         sodipodi:ry="134.28572"
         d="m 531.42857,343.79074 c 0,74.16396 -60.12176,134.28572 -134.28572,134.28572 -74.16395,0 -134.28572,-60.12176 -134.28572,-134.28572 0,-74.16395 60.12177,-134.28572 134.28572,-134.28572 74.16396,0 134.28572,60.12177 134.28572,134.28572 z" />
    </g>
    <g
       id="g3968"
       transform="matrix(0.81003466,0,0,0.81003466,17.023394,184.19233)">
      <g
         transform="matrix(0.99975595,-0.02209176,0.02209176,0.99975595,-554.5988,-52.897409)"
         id="g3912">
        <path
           transform="matrix(0.81125731,0,0,0.56898371,-16.768352,762.75319)"
           d="m 913.58193,310.90454 c 0,17.18307 -17.72862,31.1127 -39.59798,31.1127 -21.86936,0 -39.59798,-13.92963 -39.59798,-31.1127 0,-17.18307 17.72862,-31.1127 39.59798,-31.1127 21.86936,0 39.59798,13.92963 39.59798,31.1127 z"
           sodipodi:ry="31.112698"
           sodipodi:rx="39.59798"
           sodipodi:cy="310.90454"
           sodipodi:cx="873.98395"
           id="path3914"
           style="fill:#ffffff;fill-opacity:1;stroke:#000000;stroke-width:8.89999962;stroke-linejoin:miter;stroke-miterlimit:4;stroke-opacity:1;stroke-dasharray:none;stroke-dashoffset:0"
           sodipodi:type="arc" />
        <path
           style="fill:#ffffff;fill-opacity:1;stroke:#000000;stroke-width:6.04671097;stroke-linejoin:miter;stroke-miterlimit:4;stroke-opacity:1;stroke-dashoffset:0"
           d="m 723.67456,1007.1815 c 0,9.7769 -14.38247,17.7026 -32.12415,17.7026 -17.74168,0 -32.12415,-7.9257 -32.12415,-17.7026"
           id="path3916"
           inkscape:connector-curvature="0"
           sodipodi:nodetypes="csc" />
        <path
           style="fill:none;stroke:#000000;stroke-width:6.16099405;stroke-linecap:butt;stroke-linejoin:miter;stroke-miterlimit:4;stroke-opacity:1;stroke-dasharray:none"
           d="m 660.08416,944.11313 -1.06066,64.24347"
           id="path3918"
           inkscape:connector-curvature="0" />
        <path
           style="fill:none;stroke:#000000;stroke-width:6.14829254;stroke-linecap:butt;stroke-linejoin:miter;stroke-miterlimit:4;stroke-opacity:1;stroke-dasharray:none"
           d="m 724.43088,943.46774 -0.70711,67.00936"
           id="path3920"
           inkscape:connector-curvature="0" />
        <path
           inkscape:connector-curvature="0"
           id="path3922"
           d="m 724.06112,941.28173 c -0.12816,8.88377 -14.51063,16.80947 -32.25231,16.80947 -17.74168,0 -32.12415,-7.9257 -32.0452,-16.48678 l -0.78033,64.87178 c 0.20138,9.1893 14.58385,17.115 32.32553,17.115 17.74168,0 32.12415,-7.9257 32.14876,-16.0548 z"
           style="fill:#0c2613;fill-opacity:1;stroke:none"
           sodipodi:nodetypes="csccscc" />
        <path
           sodipodi:type="arc"
           style="fill:#ff8080;fill-opacity:1;stroke:none"
           id="path3924"
           sodipodi:cx="694.73242"
           sodipodi:cy="285.09515"
           sodipodi:rx="12.020815"
           sodipodi:ry="5.3033009"
           d="m 706.75324,285.09515 c 0,2.92894 -5.38191,5.3033 -12.02082,5.3033 -6.63891,0 -12.02081,-2.37436 -12.02081,-5.3033 0,-2.92893 5.3819,-5.3033 12.02081,-5.3033 6.63891,0 12.02082,2.37437 12.02082,5.3033 z"
           transform="matrix(1.1617647,0,0,1.1617647,-115.03483,607.45529)" />
      </g>
      <g
         id="g3940"
         transform="matrix(0.99975595,-0.02209176,0.02209176,0.99975595,-522.07188,-20.370498)">
        <path
           sodipodi:type="arc"
           style="fill:#ffffff;fill-opacity:1;stroke:#000000;stroke-width:8.89999962;stroke-linejoin:miter;stroke-miterlimit:4;stroke-opacity:1;stroke-dasharray:none;stroke-dashoffset:0"
           id="path3942"
           sodipodi:cx="873.98395"
           sodipodi:cy="310.90454"
           sodipodi:rx="39.59798"
           sodipodi:ry="31.112698"
           d="m 913.58193,310.90454 c 0,17.18307 -17.72862,31.1127 -39.59798,31.1127 -21.86936,0 -39.59798,-13.92963 -39.59798,-31.1127 0,-17.18307 17.72862,-31.1127 39.59798,-31.1127 21.86936,0 39.59798,13.92963 39.59798,31.1127 z"
           transform="matrix(0.81125731,0,0,0.56898371,-16.768352,762.75319)" />
        <path
           sodipodi:nodetypes="csc"
           inkscape:connector-curvature="0"
           id="path3944"
           d="m 723.67456,1007.1815 c 0,9.7769 -14.38247,17.7026 -32.12415,17.7026 -17.74168,0 -32.12415,-7.9257 -32.12415,-17.7026"
           style="fill:#ffffff;fill-opacity:1;stroke:#000000;stroke-width:6.04671097;stroke-linejoin:miter;stroke-miterlimit:4;stroke-opacity:1;stroke-dashoffset:0" />
        <path
           inkscape:connector-curvature="0"
           id="path3946"
           d="m 660.08416,944.11313 -1.06066,64.24347"
           style="fill:none;stroke:#000000;stroke-width:6.16099405;stroke-linecap:butt;stroke-linejoin:miter;stroke-miterlimit:4;stroke-opacity:1;stroke-dasharray:none" />
        <path
           inkscape:connector-curvature="0"
           id="path3948"
           d="m 724.43088,943.46774 -0.70711,67.00936"
           style="fill:none;stroke:#000000;stroke-width:6.14829254;stroke-linecap:butt;stroke-linejoin:miter;stroke-miterlimit:4;stroke-opacity:1;stroke-dasharray:none" />
        <path
           sodipodi:nodetypes="csccscc"
           style="fill:#0c2613;fill-opacity:1;stroke:none"
           d="m 724.06112,941.28173 c -0.12816,8.88377 -14.51063,16.80947 -32.25231,16.80947 -17.74168,0 -32.12415,-7.9257 -32.0452,-16.48678 l -0.78033,64.87178 c 0.20138,9.1893 14.58385,17.115 32.32553,17.115 17.74168,0 32.12415,-7.9257 32.14876,-16.0548 z"
           id="path3950"
           inkscape:connector-curvature="0" />
        <path
           transform="matrix(1.1617647,0,0,1.1617647,-115.03483,607.45529)"
           d="m 706.75324,285.09515 c 0,2.92894 -5.38191,5.3033 -12.02082,5.3033 -6.63891,0 -12.02081,-2.37436 -12.02081,-5.3033 0,-2.92893 5.3819,-5.3033 12.02081,-5.3033 6.63891,0 12.02082,2.37437 12.02082,5.3033 z"
           sodipodi:ry="5.3033009"
           sodipodi:rx="12.020815"
           sodipodi:cy="285.09515"
           sodipodi:cx="694.73242"
           id="path3952"
           style="fill:#ff8080;fill-opacity:1;stroke:none"
           sodipodi:type="arc" />
      </g>
      <g
         transform="matrix(0.99975595,-0.02209176,0.02209176,0.99975595,-589.95413,-21.784712)"
         id="g3954">
        <path
           transform="matrix(0.81125731,0,0,0.56898371,-16.768352,762.75319)"
           d="m 913.58193,310.90454 c 0,17.18307 -17.72862,31.1127 -39.59798,31.1127 -21.86936,0 -39.59798,-13.92963 -39.59798,-31.1127 0,-17.18307 17.72862,-31.1127 39.59798,-31.1127 21.86936,0 39.59798,13.92963 39.59798,31.1127 z"
           sodipodi:ry="31.112698"
           sodipodi:rx="39.59798"
           sodipodi:cy="310.90454"
           sodipodi:cx="873.98395"
           id="path3956"
           style="fill:#ffffff;fill-opacity:1;stroke:#000000;stroke-width:8.89999962;stroke-linejoin:miter;stroke-miterlimit:4;stroke-opacity:1;stroke-dasharray:none;stroke-dashoffset:0"
           sodipodi:type="arc" />
        <path
           style="fill:#ffffff;fill-opacity:1;stroke:#000000;stroke-width:6.04671097;stroke-linejoin:miter;stroke-miterlimit:4;stroke-opacity:1;stroke-dashoffset:0"
           d="m 723.67456,1007.1815 c 0,9.7769 -14.38247,17.7026 -32.12415,17.7026 -17.74168,0 -32.12415,-7.9257 -32.12415,-17.7026"
           id="path3958"
           inkscape:connector-curvature="0"
           sodipodi:nodetypes="csc" />
        <path
           style="fill:none;stroke:#000000;stroke-width:6.16099405;stroke-linecap:butt;stroke-linejoin:miter;stroke-miterlimit:4;stroke-opacity:1;stroke-dasharray:none"
           d="m 660.08416,944.11313 -1.06066,64.24347"
           id="path3960"
           inkscape:connector-curvature="0" />
        <path
           style="fill:none;stroke:#000000;stroke-width:6.14829254;stroke-linecap:butt;stroke-linejoin:miter;stroke-miterlimit:4;stroke-opacity:1;stroke-dasharray:none"
           d="m 724.43088,943.46774 -0.70711,67.00936"
           id="path3962"
           inkscape:connector-curvature="0" />
        <path
           inkscape:connector-curvature="0"
           id="path3964"
           d="m 724.06112,941.28173 c -0.12816,8.88377 -14.51063,16.80947 -32.25231,16.80947 -17.74168,0 -32.12415,-7.9257 -32.0452,-16.48678 l -0.78033,64.87178 c 0.20138,9.1893 14.58385,17.115 32.32553,17.115 17.74168,0 32.12415,-7.9257 32.14876,-16.0548 z"
           style="fill:#0c2613;fill-opacity:1;stroke:none"
           sodipodi:nodetypes="csccscc" />
        <path
           sodipodi:type="arc"
           style="fill:#ff8080;fill-opacity:1;stroke:none"
           id="path3966"
           sodipodi:cx="694.73242"
           sodipodi:cy="285.09515"
           sodipodi:rx="12.020815"
           sodipodi:ry="5.3033009"
           d="m 706.75324,285.09515 c 0,2.92894 -5.38191,5.3033 -12.02082,5.3033 -6.63891,0 -12.02081,-2.37436 -12.02081,-5.3033 0,-2.92893 5.3819,-5.3033 12.02081,-5.3033 6.63891,0 12.02082,2.37437 12.02082,5.3033 z"
           transform="matrix(1.1617647,0,0,1.1617647,-115.03483,607.45529)" />
      </g>
      <g
         transform="matrix(0.99975595,-0.02209176,0.02209176,0.99975595,-557.42722,9.3279865)"
         id="g3926">
        <path
           transform="matrix(0.81125731,0,0,0.56898371,-16.768352,762.75319)"
           d="m 913.58193,310.90454 c 0,17.18307 -17.72862,31.1127 -39.59798,31.1127 -21.86936,0 -39.59798,-13.92963 -39.59798,-31.1127 0,-17.18307 17.72862,-31.1127 39.59798,-31.1127 21.86936,0 39.59798,13.92963 39.59798,31.1127 z"
           sodipodi:ry="31.112698"
           sodipodi:rx="39.59798"
           sodipodi:cy="310.90454"
           sodipodi:cx="873.98395"
           id="path3928"
           style="fill:#ffffff;fill-opacity:1;stroke:#000000;stroke-width:8.89999962;stroke-linejoin:miter;stroke-miterlimit:4;stroke-opacity:1;stroke-dasharray:none;stroke-dashoffset:0"
           sodipodi:type="arc" />
        <path
           style="fill:#ffffff;fill-opacity:1;stroke:#000000;stroke-width:6.04671097;stroke-linejoin:miter;stroke-miterlimit:4;stroke-opacity:1;stroke-dashoffset:0"
           d="m 723.67456,1007.1815 c 0,9.7769 -14.38247,17.7026 -32.12415,17.7026 -17.74168,0 -32.12415,-7.9257 -32.12415,-17.7026"
           id="path3930"
           inkscape:connector-curvature="0"
           sodipodi:nodetypes="csc" />
        <path
           style="fill:none;stroke:#000000;stroke-width:6.16099405;stroke-linecap:butt;stroke-linejoin:miter;stroke-miterlimit:4;stroke-opacity:1;stroke-dasharray:none"
           d="m 660.08416,944.11313 -1.06066,64.24347"
           id="path3932"
           inkscape:connector-curvature="0" />
        <path
           style="fill:none;stroke:#000000;stroke-width:6.14829254;stroke-linecap:butt;stroke-linejoin:miter;stroke-miterlimit:4;stroke-opacity:1;stroke-dasharray:none"
           d="m 724.43088,943.46774 -0.70711,67.00936"
           id="path3934"
           inkscape:connector-curvature="0" />
        <path
           inkscape:connector-curvature="0"
           id="path3936"
           d="m 724.06112,941.28173 c -0.12816,8.88377 -14.51063,16.80947 -32.25231,16.80947 -17.74168,0 -32.12415,-7.9257 -32.0452,-16.48678 l -0.78033,64.87178 c 0.20138,9.1893 14.58385,17.115 32.32553,17.115 17.74168,0 32.12415,-7.9257 32.14876,-16.0548 z"
           style="fill:#0c2613;fill-opacity:1;stroke:none"
           sodipodi:nodetypes="csccscc" />
        <path
           sodipodi:type="arc"
           style="fill:#ff8080;fill-opacity:1;stroke:none"
           id="path3938"
           sodipodi:cx="694.73242"
           sodipodi:cy="285.09515"
           sodipodi:rx="12.020815"
           sodipodi:ry="5.3033009"
           d="m 706.75324,285.09515 c 0,2.92894 -5.38191,5.3033 -12.02082,5.3033 -6.63891,0 -12.02081,-2.37436 -12.02081,-5.3033 0,-2.92893 5.3819,-5.3033 12.02081,-5.3033 6.63891,0 12.02082,2.37437 12.02082,5.3033 z"
           transform="matrix(1.1617647,0,0,1.1617647,-115.03483,607.45529)" />
      </g>
      <g
         id="g3897"
         transform="matrix(0.99975595,-0.02209176,0.02209176,0.99975595,-625.30947,7.9137725)">
        <path
           sodipodi:type="arc"
           style="fill:#ffffff;fill-opacity:1;stroke:#000000;stroke-width:8.89999962;stroke-linejoin:miter;stroke-miterlimit:4;stroke-opacity:1;stroke-dasharray:none;stroke-dashoffset:0"
           id="path3899"
           sodipodi:cx="873.98395"
           sodipodi:cy="310.90454"
           sodipodi:rx="39.59798"
           sodipodi:ry="31.112698"
           d="m 913.58193,310.90454 c 0,17.18307 -17.72862,31.1127 -39.59798,31.1127 -21.86936,0 -39.59798,-13.92963 -39.59798,-31.1127 0,-17.18307 17.72862,-31.1127 39.59798,-31.1127 21.86936,0 39.59798,13.92963 39.59798,31.1127 z"
           transform="matrix(0.81125731,0,0,0.56898371,-16.768352,762.75319)" />
        <path
           sodipodi:nodetypes="csc"
           inkscape:connector-curvature="0"
           id="path3901"
           d="m 723.67456,1007.1815 c 0,9.7769 -14.38247,17.7026 -32.12415,17.7026 -17.74168,0 -32.12415,-7.9257 -32.12415,-17.7026"
           style="fill:#ffffff;fill-opacity:1;stroke:#000000;stroke-width:6.04671097;stroke-linejoin:miter;stroke-miterlimit:4;stroke-opacity:1;stroke-dashoffset:0" />
        <path
           inkscape:connector-curvature="0"
           id="path3903"
           d="m 660.08416,944.11313 -1.06066,64.24347"
           style="fill:none;stroke:#000000;stroke-width:6.16099405;stroke-linecap:butt;stroke-linejoin:miter;stroke-miterlimit:4;stroke-opacity:1;stroke-dasharray:none" />
        <path
           inkscape:connector-curvature="0"
           id="path3905"
           d="m 724.43088,943.46774 -0.70711,67.00936"
           style="fill:none;stroke:#000000;stroke-width:6.14829254;stroke-linecap:butt;stroke-linejoin:miter;stroke-miterlimit:4;stroke-opacity:1;stroke-dasharray:none" />
        <path
           sodipodi:nodetypes="csccscc"
           style="fill:#0c2613;fill-opacity:1;stroke:none"
           d="m 724.06112,941.28173 c -0.12816,8.88377 -14.51063,16.80947 -32.25231,16.80947 -17.74168,0 -32.12415,-7.9257 -32.0452,-16.48678 l -0.78033,64.87178 c 0.20138,9.1893 14.58385,17.115 32.32553,17.115 17.74168,0 32.12415,-7.9257 32.14876,-16.0548 z"
           id="path3907"
           inkscape:connector-curvature="0" />
        <path
           transform="matrix(1.1617647,0,0,1.1617647,-115.03483,607.45529)"
           d="m 706.75324,285.09515 c 0,2.92894 -5.38191,5.3033 -12.02082,5.3033 -6.63891,0 -12.02081,-2.37436 -12.02081,-5.3033 0,-2.92893 5.3819,-5.3033 12.02081,-5.3033 6.63891,0 12.02082,2.37437 12.02082,5.3033 z"
           sodipodi:ry="5.3033009"
           sodipodi:rx="12.020815"
           sodipodi:cy="285.09515"
           sodipodi:cx="694.73242"
           id="path3910"
           style="fill:#ff8080;fill-opacity:1;stroke:none"
           sodipodi:type="arc" />
      </g>
    </g>
  </g>
</svg>
