<?xml version="1.0" encoding="UTF-8" standalone="no"?>
<!-- Created with Inkscape (http://www.inkscape.org/) -->

<svg
   xmlns:dc="http://purl.org/dc/elements/1.1/"
   xmlns:cc="http://creativecommons.org/ns#"
   xmlns:rdf="http://www.w3.org/1999/02/22-rdf-syntax-ns#"
   xmlns:svg="http://www.w3.org/2000/svg"
   xmlns="http://www.w3.org/2000/svg"
   xmlns:sodipodi="http://sodipodi.sourceforge.net/DTD/sodipodi-0.dtd"
   xmlns:inkscape="http://www.inkscape.org/namespaces/inkscape"
   width="600"
   height="400"
   id="svg2"
   version="1.1"
   inkscape:version="0.48.2 r9819"
   sodipodi:docname="no-car.svg"
   inkscape:export-filename="/Users/barbarakohler/Desktop/GlobalGameJam2014/pikmin.png"
   inkscape:export-xdpi="56.949234"
   inkscape:export-ydpi="56.949234">
  <defs
     id="defs4" />
  <sodipodi:namedview
     id="base"
     pagecolor="#ffffff"
     bordercolor="#666666"
     borderopacity="1.0"
     inkscape:pageopacity="0.0"
     inkscape:pageshadow="2"
     inkscape:zoom="0.5"
     inkscape:cx="158.28184"
     inkscape:cy="221.42741"
     inkscape:document-units="px"
     inkscape:current-layer="g3793"
     showgrid="false"
     inkscape:window-width="1246"
     inkscape:window-height="756"
     inkscape:window-x="46"
     inkscape:window-y="0"
     inkscape:window-maximized="0" />
  <metadata
     id="metadata7">
    <rdf:RDF>
      <cc:Work
         rdf:about="">
        <dc:format>image/svg+xml</dc:format>
        <dc:type
           rdf:resource="http://purl.org/dc/dcmitype/StillImage" />
        <dc:title />
      </cc:Work>
    </rdf:RDF>
  </metadata>
  <g
     inkscape:label="Layer 1"
     inkscape:groupmode="layer"
     id="layer1"
     transform="translate(0,-652.36218)">
    <g
       id="g4099"
       transform="matrix(1.3244406,0,0,1.3244406,-165.51281,-433.15635)" />
    <g
       id="g3793">
      <g
         id="g3780"
         transform="matrix(1.0499896,0,0,1.0499896,-1.074776,-50.984985)">
        <path
           transform="matrix(1.4284439,0,0,1.4284439,-9.2115442,494.88762)"
           d="m 132,327 c 0,21.53911 -17.46089,39 -39,39 -21.539105,0 -39,-17.46089 -39,-39 0,-21.53911 17.460895,-39 39,-39 21.53911,0 39,17.46089 39,39 z"
           sodipodi:ry="39"
           sodipodi:rx="39"
           sodipodi:cy="327"
           sodipodi:cx="93"
           id="path2994"
           style="fill:none;stroke:#000000;stroke-width:3.0999999;stroke-linejoin:miter;stroke-miterlimit:4;stroke-dasharray:12.39999962, 24.79999924;stroke-dashoffset:0"
           sodipodi:type="arc" />
        <g
           transform="matrix(1.4284439,0,0,1.4284439,-9.2115442,-436.97517)"
           id="g3774">
          <path
             transform="translate(117,651.36218)"
             d="m 132,327 c 0,21.53911 -17.46089,39 -39,39 -21.539105,0 -39,-17.46089 -39,-39 0,-21.53911 17.460895,-39 39,-39 21.53911,0 39,17.46089 39,39 z"
             sodipodi:ry="39"
             sodipodi:rx="39"
             sodipodi:cy="327"
             sodipodi:cx="93"
             id="path2996"
             style="fill:none;stroke:#000000;stroke-width:3.0999999;stroke-linejoin:miter;stroke-miterlimit:4;stroke-dasharray:12.39999962, 24.79999924;stroke-dashoffset:0"
             sodipodi:type="arc" />
          <g
             id="g3770"
             style="stroke-width:3;stroke-miterlimit:4;stroke-dasharray:none">
            <path
               transform="translate(0,652.36218)"
               inkscape:connector-curvature="0"
               id="path2998"
               d="m 132,327.5 39.5,-1"
               style="fill:none;stroke:#000000;stroke-width:3;stroke-linecap:butt;stroke-linejoin:miter;stroke-miterlimit:4;stroke-opacity:1;stroke-dasharray:12, 24;stroke-dashoffset:0" />
            <path
               transform="translate(0,652.36218)"
               inkscape:connector-curvature="0"
               id="path3000"
               d="m 249.5,327 36,0.5 0.5,-72 -50.5,-2.5 -25.5,-50.5 -96,-1.5 -23.5,50 -66,16.5 -1.5,60 31.5,1.5"
               style="fill:none;stroke:#000000;stroke-width:3;stroke-linecap:butt;stroke-linejoin:miter;stroke-miterlimit:4;stroke-opacity:1;stroke-dasharray:18, 18;stroke-dashoffset:0" />
          </g>
        </g>
      </g>
      <g
         id="g3802"
         transform="matrix(-0.62794877,0,0,0.62794877,680.25259,363.58878)">
        <path
           sodipodi:type="arc"
           style="fill:#07f500;fill-opacity:1;fill-rule:nonzero;stroke:#016c01;stroke-width:13;stroke-linecap:round;stroke-linejoin:miter;stroke-miterlimit:4;stroke-opacity:1;stroke-dasharray:none;stroke-dashoffset:0"
           id="path2985"
           sodipodi:cx="397.14285"
           sodipodi:cy="343.79074"
           sodipodi:rx="134.28572"
           sodipodi:ry="134.28572"
           d="m 531.42857,343.79074 c 0,74.16396 -60.12176,134.28572 -134.28572,134.28572 -74.16395,0 -134.28572,-60.12176 -134.28572,-134.28572 0,-74.16395 60.12177,-134.28572 134.28572,-134.28572 74.16396,0 134.28572,60.12177 134.28572,134.28572 z"
           transform="translate(-95,576)" />
        <g
           id="g3839"
           transform="translate(-74.1255,576)">
          <path
             transform="matrix(1.178731,0,0,1.178731,-83.44262,-70.277934)"
             d="m 391.42858,332.36218 c 0,15.77957 -12.79187,28.57143 -28.57143,28.57143 -15.77957,0 -28.57143,-12.79186 -28.57143,-28.57143 0,-15.77956 12.79186,-28.57143 28.57143,-28.57143 15.77956,0 28.57143,12.79187 28.57143,28.57143 z"
             sodipodi:ry="28.571428"
             sodipodi:rx="28.571428"
             sodipodi:cy="332.36218"
             sodipodi:cx="362.85715"
             id="path3763"
             style="fill:#016c01;fill-opacity:1;fill-rule:nonzero;stroke:#016c01;stroke-width:13;stroke-linecap:round;stroke-linejoin:miter;stroke-miterlimit:4;stroke-opacity:1;stroke-dasharray:none;stroke-dashoffset:0"
             sodipodi:type="arc" />
          <path
             transform="matrix(0.83333334,0,0,-0.83333334,57.073616,586.1645)"
             d="m 378.8072,329.09296 c 0,13.3894 -10.85426,24.24366 -24.24366,24.24366 -13.38941,0 -24.24366,-10.85426 -24.24366,-24.24366 0,-13.38941 10.85425,-24.24367 24.24366,-24.24367 13.3894,0 24.24366,10.85426 24.24366,24.24367 z"
             sodipodi:ry="24.243662"
             sodipodi:rx="24.243662"
             sodipodi:cy="329.09296"
             sodipodi:cx="354.56354"
             id="path3819"
             style="fill:#ffffff;fill-opacity:1;fill-rule:nonzero;stroke:none"
             sodipodi:type="arc" />
        </g>
        <path
           transform="matrix(-1.178731,0,0,1.178731,809.85382,505.72207)"
           d="m 391.42858,332.36218 c 0,15.77957 -12.79187,28.57143 -28.57143,28.57143 -15.77957,0 -28.57143,-12.79186 -28.57143,-28.57143 0,-15.77956 12.79186,-28.57143 28.57143,-28.57143 15.77956,0 28.57143,12.79187 28.57143,28.57143 z"
           sodipodi:ry="28.571428"
           sodipodi:rx="28.571428"
           sodipodi:cy="332.36218"
           sodipodi:cx="362.85715"
           id="path3847"
           style="fill:#016c01;fill-opacity:1;fill-rule:nonzero;stroke:#016c01;stroke-width:13;stroke-linecap:round;stroke-linejoin:miter;stroke-miterlimit:4;stroke-opacity:1;stroke-dasharray:none;stroke-dashoffset:0"
           sodipodi:type="arc" />
        <path
           transform="matrix(-0.83333334,0,0,-0.83333334,683.33758,1160.1645)"
           d="m 378.8072,329.09296 c 0,13.3894 -10.85426,24.24366 -24.24366,24.24366 -13.38941,0 -24.24366,-10.85426 -24.24366,-24.24366 0,-13.38941 10.85425,-24.24367 24.24366,-24.24367 13.3894,0 24.24366,10.85426 24.24366,24.24367 z"
           sodipodi:ry="24.243662"
           sodipodi:rx="24.243662"
           sodipodi:cy="329.09296"
           sodipodi:cx="354.56354"
           id="path3849"
           style="fill:#ffffff;fill-opacity:1;fill-rule:nonzero;stroke:none"
           sodipodi:type="arc" />
      </g>
    </g>
  </g>
</svg>
