<?xml version="1.0" encoding="UTF-8" standalone="no"?>
<!-- Created with Inkscape (http://www.inkscape.org/) -->

<svg
   xmlns:dc="http://purl.org/dc/elements/1.1/"
   xmlns:cc="http://creativecommons.org/ns#"
   xmlns:rdf="http://www.w3.org/1999/02/22-rdf-syntax-ns#"
   xmlns:svg="http://www.w3.org/2000/svg"
   xmlns="http://www.w3.org/2000/svg"
   xmlns:sodipodi="http://sodipodi.sourceforge.net/DTD/sodipodi-0.dtd"
   xmlns:inkscape="http://www.inkscape.org/namespaces/inkscape"
   width="600"
   height="400"
   id="svg2"
   version="1.1"
   inkscape:version="0.48.1 r9760"
   sodipodi:docname="no-mobile-phone.svg"
   inkscape:export-filename="/Users/barbarakohler/Desktop/GlobalGameJam2014/pikmin.png"
   inkscape:export-xdpi="56.949234"
   inkscape:export-ydpi="56.949234">
  <defs
     id="defs4" />
  <sodipodi:namedview
     id="base"
     pagecolor="#ffffff"
     bordercolor="#666666"
     borderopacity="1.0"
     inkscape:pageopacity="0.0"
     inkscape:pageshadow="2"
     inkscape:zoom="1"
     inkscape:cx="323.18325"
     inkscape:cy="268.71843"
     inkscape:document-units="px"
     inkscape:current-layer="layer1"
     showgrid="false"
     inkscape:window-width="1093"
     inkscape:window-height="804"
     inkscape:window-x="46"
     inkscape:window-y="0"
     inkscape:window-maximized="0"
     showguides="true"
     inkscape:guide-bbox="true" />
  <metadata
     id="metadata7">
    <rdf:RDF>
      <cc:Work
         rdf:about="">
        <dc:format>image/svg+xml</dc:format>
        <dc:type
           rdf:resource="http://purl.org/dc/dcmitype/StillImage" />
        <dc:title />
      </cc:Work>
    </rdf:RDF>
  </metadata>
  <g
     inkscape:label="Layer 1"
     inkscape:groupmode="layer"
     id="layer1"
     transform="translate(0,-652.36218)">
    <g
       id="g4099"
       transform="matrix(1.3244406,0,0,1.3244406,-165.51281,-433.15635)" />
    <g
       id="g2998"
       transform="matrix(1.2339248,0,0,1.2339248,-41.844115,-167.94884)">
      <rect
         rx="21.794439"
         ry="21.79443"
         y="682.22101"
         x="203.85883"
         height="293.28238"
         width="152.28238"
         id="rect3021"
         style="fill:#000000;fill-opacity:0;fill-rule:nonzero;stroke:#000001;stroke-width:15;stroke-linecap:round;stroke-linejoin:miter;stroke-miterlimit:4;stroke-opacity:1;stroke-dasharray:none;stroke-dashoffset:0" />
      <rect
         ry="14.182388"
         rx="0.72346407"
         y="940.82892"
         x="214.5"
         height="27.533289"
         width="131"
         id="rect3793"
         style="fill:#000000;fill-opacity:1;fill-rule:nonzero;stroke:#000001;stroke-width:11.36055851;stroke-linecap:round;stroke-linejoin:miter;stroke-miterlimit:4;stroke-opacity:1;stroke-dasharray:none;stroke-dashoffset:0" />
      <rect
         style="fill:#000000;fill-opacity:1;fill-rule:nonzero;stroke:#000001;stroke-width:11.36055851;stroke-linecap:round;stroke-linejoin:miter;stroke-miterlimit:4;stroke-opacity:1;stroke-dasharray:none;stroke-dashoffset:0"
         id="rect3798"
         width="131"
         height="27.533289"
         x="214.5"
         y="690.82892"
         rx="0.72346407"
         ry="14.182388" />
      <g
         transform="matrix(0.25773722,0,0,0.25773722,169.52129,679.08022)"
         id="g3834">
        <g
           transform="translate(-2.494149,-11.639762)"
           id="g3847">
          <path
             sodipodi:type="arc"
             style="fill:#999999;fill-opacity:1;fill-rule:nonzero;stroke:#000001;stroke-width:13;stroke-linecap:round;stroke-linejoin:miter;stroke-miterlimit:4;stroke-opacity:1;stroke-dasharray:none;stroke-dashoffset:0"
             id="path3818"
             sodipodi:cx="397.14285"
             sodipodi:cy="343.79074"
             sodipodi:rx="134.28572"
             sodipodi:ry="134.28572"
             d="m 531.42857,343.79074 c 0,74.16396 -60.12176,134.28572 -134.28572,134.28572 -74.16395,0 -134.28572,-60.12176 -134.28572,-134.28572 0,-74.16395 60.12177,-134.28572 134.28572,-134.28572 74.16396,0 134.28572,60.12177 134.28572,134.28572 z"
             transform="translate(34,240)" />
          <path
             d="m 531.42857,343.79074 c 0,74.16396 -60.12176,134.28572 -134.28572,134.28572 -74.16395,0 -134.28572,-60.12176 -134.28572,-134.28572 0,-74.16395 60.12177,-134.28572 134.28572,-134.28572 74.16396,0 134.28572,60.12177 134.28572,134.28572 z"
             sodipodi:ry="134.28572"
             sodipodi:rx="134.28572"
             sodipodi:cy="343.79074"
             sodipodi:cx="397.14285"
             id="path3822"
             style="fill:#999999;fill-opacity:1;fill-rule:nonzero;stroke:#000001;stroke-width:39.11236191;stroke-linecap:round;stroke-linejoin:miter;stroke-miterlimit:4;stroke-opacity:1;stroke-dasharray:none;stroke-dashoffset:0"
             sodipodi:type="arc"
             transform="matrix(0.32598341,0,0,0.32598341,257.68087,569.43494)" />
          <path
             sodipodi:type="arc"
             style="fill:#000000;fill-opacity:1;fill-rule:nonzero;stroke:#000001;stroke-width:13;stroke-linecap:round;stroke-linejoin:miter;stroke-miterlimit:4;stroke-opacity:1;stroke-dasharray:none;stroke-dashoffset:0"
             id="path3826"
             sodipodi:cx="362.85715"
             sodipodi:cy="332.36218"
             sodipodi:rx="28.571428"
             sodipodi:ry="28.571428"
             d="m 391.42858,332.36218 c 0,15.77957 -12.79187,28.57143 -28.57143,28.57143 -15.77957,0 -28.57143,-12.79186 -28.57143,-28.57143 0,-15.77956 12.79186,-28.57143 28.57143,-28.57143 15.77956,0 28.57143,12.79187 28.57143,28.57143 z"
             transform="matrix(1.178731,0,0,1.178731,-52.56812,169.72207)" />
          <path
             sodipodi:type="arc"
             style="fill:#ffffff;fill-opacity:1;fill-rule:nonzero;stroke:none"
             id="path3828"
             sodipodi:cx="354.56354"
             sodipodi:cy="329.09296"
             sodipodi:rx="24.243662"
             sodipodi:ry="24.243662"
             d="m 378.8072,329.09296 c 0,13.3894 -10.85426,24.24366 -24.24366,24.24366 -13.38941,0 -24.24366,-10.85426 -24.24366,-24.24366 0,-13.38941 10.85425,-24.24367 24.24366,-24.24367 13.3894,0 24.24366,10.85426 24.24366,24.24367 z"
             transform="matrix(0.83333334,0,0,-0.83333334,87.948116,826.1645)" />
          <path
             transform="matrix(-1.178731,0,0,1.178731,914.85382,169.72207)"
             d="m 391.42858,332.36218 c 0,15.77957 -12.79187,28.57143 -28.57143,28.57143 -15.77957,0 -28.57143,-12.79186 -28.57143,-28.57143 0,-15.77956 12.79186,-28.57143 28.57143,-28.57143 15.77956,0 28.57143,12.79187 28.57143,28.57143 z"
             sodipodi:ry="28.571428"
             sodipodi:rx="28.571428"
             sodipodi:cy="332.36218"
             sodipodi:cx="362.85715"
             id="path3830"
             style="fill:#000000;fill-opacity:1;fill-rule:nonzero;stroke:#000001;stroke-width:13;stroke-linecap:round;stroke-linejoin:miter;stroke-miterlimit:4;stroke-opacity:1;stroke-dasharray:none;stroke-dashoffset:0"
             sodipodi:type="arc" />
          <path
             transform="matrix(-0.83333334,0,0,-0.83333334,788.33758,824.1645)"
             d="m 378.8072,329.09296 c 0,13.3894 -10.85426,24.24366 -24.24366,24.24366 -13.38941,0 -24.24366,-10.85426 -24.24366,-24.24366 0,-13.38941 10.85425,-24.24367 24.24366,-24.24367 13.3894,0 24.24366,10.85426 24.24366,24.24367 z"
             sodipodi:ry="24.243662"
             sodipodi:rx="24.243662"
             sodipodi:cy="329.09296"
             sodipodi:cx="354.56354"
             id="path3832"
             style="fill:#ffffff;fill-opacity:1;fill-rule:nonzero;stroke:none"
             sodipodi:type="arc" />
        </g>
        <path
           transform="matrix(4.4768317,0,0,4.4768317,-618.92991,-1313.1345)"
           d="m 247,535.36218 c 0,7.1797 -5.8203,13 -13,13 -7.1797,0 -13,-5.8203 -13,-13 0,-7.1797 5.8203,-13 13,-13 7.1797,0 13,5.8203 13,13 z"
           sodipodi:ry="13"
           sodipodi:rx="13"
           sodipodi:cy="535.36218"
           sodipodi:cx="234"
           id="path3857"
           style="fill:#ffffff;fill-opacity:1;fill-rule:nonzero;stroke:none"
           sodipodi:type="arc" />
      </g>
      <g
         transform="translate(-47,201)"
         id="g3865">
        <path
           sodipodi:type="arc"
           style="fill:none;stroke:#c30000;stroke-width:18.25757599;stroke-miterlimit:4;stroke-opacity:1;stroke-dasharray:none"
           id="path3861"
           sodipodi:cx="254.5"
           sodipodi:cy="653.86218"
           sodipodi:rx="110.5"
           sodipodi:ry="110.5"
           d="m 365,653.86218 c 0,61.02747 -49.47254,110.5 -110.5,110.5 -61.02746,0 -110.5,-49.47253 -110.5,-110.5 0,-61.02746 49.47254,-110.5 110.5,-110.5 61.02746,0 110.5,49.47254 110.5,110.5 z"
           transform="matrix(1.0954357,0,0,1.0954357,48.211618,-89.901785)" />
        <path
           style="fill:none;stroke:#c30000;stroke-width:20;stroke-linecap:butt;stroke-linejoin:miter;stroke-miterlimit:4;stroke-opacity:1;stroke-dasharray:none"
           d="m 251,543.36218 166.5,166.5"
           id="path3863"
           inkscape:connector-curvature="0" />
      </g>
    </g>
  </g>
</svg>
