<?xml version="1.0" encoding="UTF-8" standalone="no"?>
<!-- Created with Inkscape (http://www.inkscape.org/) -->

<svg
   xmlns:dc="http://purl.org/dc/elements/1.1/"
   xmlns:cc="http://creativecommons.org/ns#"
   xmlns:rdf="http://www.w3.org/1999/02/22-rdf-syntax-ns#"
   xmlns:svg="http://www.w3.org/2000/svg"
   xmlns="http://www.w3.org/2000/svg"
   xmlns:sodipodi="http://sodipodi.sourceforge.net/DTD/sodipodi-0.dtd"
   xmlns:inkscape="http://www.inkscape.org/namespaces/inkscape"
   width="600"
   height="400"
   id="svg2"
   version="1.1"
   inkscape:version="0.48.2 r9819"
   sodipodi:docname="pikmin5.svg"
   inkscape:export-filename="/Users/barbarakohler/Desktop/GlobalGameJam2014/pikmin.png"
   inkscape:export-xdpi="56.949234"
   inkscape:export-ydpi="56.949234">
  <defs
     id="defs4" />
  <sodipodi:namedview
     id="base"
     pagecolor="#ffffff"
     bordercolor="#666666"
     borderopacity="1.0"
     inkscape:pageopacity="0.0"
     inkscape:pageshadow="2"
     inkscape:zoom="0.5"
     inkscape:cx="784.62124"
     inkscape:cy="157.33015"
     inkscape:document-units="px"
     inkscape:current-layer="layer1"
     showgrid="false"
     inkscape:window-width="1280"
     inkscape:window-height="756"
     inkscape:window-x="0"
     inkscape:window-y="0"
     inkscape:window-maximized="0" />
  <metadata
     id="metadata7">
    <rdf:RDF>
      <cc:Work
         rdf:about="">
        <dc:format>image/svg+xml</dc:format>
        <dc:type
           rdf:resource="http://purl.org/dc/dcmitype/StillImage" />
        <dc:title />
      </cc:Work>
    </rdf:RDF>
  </metadata>
  <g
     inkscape:label="Layer 1"
     inkscape:groupmode="layer"
     id="layer1"
     transform="translate(0,-752.36218)">
    <path
       sodipodi:type="arc"
       style="fill:#07f500;fill-opacity:1;fill-rule:nonzero;stroke:#016c01;stroke-width:13;stroke-linecap:round;stroke-linejoin:miter;stroke-miterlimit:4;stroke-opacity:1;stroke-dasharray:none;stroke-dashoffset:0"
       id="path2985"
       sodipodi:cx="397.14285"
       sodipodi:cy="343.79074"
       sodipodi:rx="134.28572"
       sodipodi:ry="134.28572"
       d="m 531.42857,343.79074 a 134.28572,134.28572 0 1 1 -268.57144,0 134.28572,134.28572 0 1 1 268.57144,0 z"
       transform="matrix(0.37091036,0,0,0.37091036,70.271614,812.70103)" />
    <g
       id="g3813"
       transform="matrix(0.37091036,0,0,0.37091036,72.497077,812.70103)">
      <path
         transform="matrix(0.32598341,0,0,0.32598341,217.68087,329.43494)"
         sodipodi:type="arc"
         style="fill:#07f500;fill-opacity:1;fill-rule:nonzero;stroke:#016c01;stroke-width:39.11236191;stroke-linecap:round;stroke-linejoin:miter;stroke-miterlimit:4;stroke-opacity:1;stroke-dasharray:none;stroke-dashoffset:0"
         id="path3789"
         sodipodi:cx="397.14285"
         sodipodi:cy="343.79074"
         sodipodi:rx="134.28572"
         sodipodi:ry="134.28572"
         d="m 531.42857,343.79074 a 134.28572,134.28572 0 1 1 -268.57144,0 134.28572,134.28572 0 1 1 268.57144,0 z" />
    </g>
    <g
       id="g3839"
       transform="matrix(0.37091036,0,0,0.37091036,69.112335,812.70103)">
      <path
         transform="matrix(1.178731,0,0,1.178731,-83.44262,-70.277934)"
         d="m 391.42858,332.36218 a 28.571428,28.571428 0 1 1 -57.14286,0 28.571428,28.571428 0 1 1 57.14286,0 z"
         sodipodi:ry="28.571428"
         sodipodi:rx="28.571428"
         sodipodi:cy="332.36218"
         sodipodi:cx="362.85715"
         id="path3763"
         style="fill:#016c01;fill-opacity:1;fill-rule:nonzero;stroke:#016c01;stroke-width:13;stroke-linecap:round;stroke-linejoin:miter;stroke-miterlimit:4;stroke-opacity:1;stroke-dasharray:none;stroke-dashoffset:0"
         sodipodi:type="arc" />
      <path
         transform="matrix(0.83333334,0,0,-0.83333334,57.073616,586.1645)"
         d="m 378.8072,329.09296 a 24.243662,24.243662 0 1 1 -48.48732,0 24.243662,24.243662 0 1 1 48.48732,0 z"
         sodipodi:ry="24.243662"
         sodipodi:rx="24.243662"
         sodipodi:cy="329.09296"
         sodipodi:cx="354.56354"
         id="path3819"
         style="fill:#ffffff;fill-opacity:1;fill-rule:nonzero;stroke:none"
         sodipodi:type="arc" />
    </g>
    <path
       transform="matrix(-0.43720355,0,0,0.43720355,396.98942,786.63421)"
       d="m 391.42858,332.36218 a 28.571428,28.571428 0 1 1 -57.14286,0 28.571428,28.571428 0 1 1 57.14286,0 z"
       sodipodi:ry="28.571428"
       sodipodi:rx="28.571428"
       sodipodi:cy="332.36218"
       sodipodi:cx="362.85715"
       id="path3847"
       style="fill:#016c01;fill-opacity:1;fill-rule:nonzero;stroke:#016c01;stroke-width:13;stroke-linecap:round;stroke-linejoin:miter;stroke-miterlimit:4;stroke-opacity:1;stroke-dasharray:none;stroke-dashoffset:0"
       sodipodi:type="arc" />
    <path
       transform="matrix(-0.30909197,0,0,-0.30909197,350.06324,1029.3737)"
       d="m 378.8072,329.09296 a 24.243662,24.243662 0 1 1 -48.48732,0 24.243662,24.243662 0 1 1 48.48732,0 z"
       sodipodi:ry="24.243662"
       sodipodi:rx="24.243662"
       sodipodi:cy="329.09296"
       sodipodi:cx="354.56354"
       id="path3849"
       style="fill:#ffffff;fill-opacity:1;fill-rule:nonzero;stroke:none"
       sodipodi:type="arc" />
    <path
       sodipodi:type="arc"
       style="fill:none;stroke:#000000;stroke-width:4;stroke-linecap:round;stroke-linejoin:miter;stroke-miterlimit:4;stroke-opacity:1;stroke-dasharray:none;stroke-dashoffset:0"
       id="path3973"
       sodipodi:cx="275.5"
       sodipodi:cy="236.86218"
       sodipodi:rx="18.5"
       sodipodi:ry="18.5"
       d="m 294,236.86218 a 18.5,18.5 0 1 1 -37,0 18.5,18.5 0 1 1 37,0 z"
       transform="matrix(0.37091036,0,0,0.37091036,138.89004,790.44641)" />
    <path
       transform="matrix(0.50660929,0,0,0.50660929,125.40234,740.88806)"
       d="m 294,236.86218 a 18.5,18.5 0 1 1 -37,0 18.5,18.5 0 1 1 37,0 z"
       sodipodi:ry="18.5"
       sodipodi:rx="18.5"
       sodipodi:cy="236.86218"
       sodipodi:cx="275.5"
       id="path3975"
       style="fill:none;stroke:#000000;stroke-width:4;stroke-linecap:round;stroke-linejoin:miter;stroke-miterlimit:4;stroke-opacity:1;stroke-dasharray:none;stroke-dashoffset:0"
       sodipodi:type="arc" />
    <g
       id="g3996"
       transform="matrix(0.70041757,0,0,0.69372667,-13.880499,701.96998)">
      <path
         style="fill:#ffffff;fill-opacity:1;stroke:#000000;stroke-width:6;stroke-linecap:round;stroke-linejoin:miter;stroke-miterlimit:4;stroke-opacity:1;stroke-dasharray:none;stroke-dashoffset:0"
         d="m 542.90625,40.96875 c -34.10969,0 -61.75,27.403651 -61.75,61.1875 0,4.60114 0.52775,9.06419 1.5,13.375 -28.46972,5.45111 -49.96875,30.27248 -49.96875,60.0625 0,33.78385 27.64031,61.15625 61.75,61.15625 19.63523,0 37.12516,-9.07206 48.4375,-23.21875 20.04466,10.85624 47.54109,17.5625 77.875,17.5625 61.34125,0 111.0625,-27.3724 111.0625,-61.15625 0,-13.01914 -7.41159,-25.08202 -20,-35 2.35359,-5.88218 3.625,-12.14955 3.625,-18.65625 0,-33.783849 -34.24701,-61.1875 -76.5,-61.1875 -17.01577,0 -32.73118,4.456517 -45.4375,11.96875 C 582.32977,51.287388 563.83719,40.96875 542.90625,40.96875 z"
         transform="matrix(0.70136556,0,0,0.70813009,120.2177,96.029692)"
         id="path3977"
         inkscape:connector-curvature="0" />
    </g>
    <path
       inkscape:connector-curvature="0"
       style="fill:#000000;fill-opacity:0.76888888;fill-rule:nonzero;stroke:#000000;stroke-width:2.89056325;stroke-linecap:round;stroke-linejoin:miter;stroke-miterlimit:4;stroke-opacity:1;stroke-dasharray:none;stroke-dashoffset:0"
       d="m 354.30991,807.85753 c -11.64978,0 -21.74484,6.67967 -26.66559,16.41078 7.09402,-1.52409 16.25788,-2.44089 26.29715,-2.44089 10.42473,0 19.9118,0.99451 27.1108,2.62511 -4.88611,-9.83088 -15.01931,-16.595 -26.74236,-16.595 z m 29.81266,31.42457 c -7.45365,2.08557 -18.20063,3.39268 -30.1811,3.39268 -11.60361,0 -22.02656,-1.23657 -29.44422,-3.20846 0.907,15.67494 13.91038,28.10864 29.81266,28.10864 15.96475,0 28.9976,-12.53092 29.81266,-28.29286 z"
       id="path4004" />
    <path
       d="m 531.42857,343.79074 a 134.28572,134.28572 0 1 1 -268.57144,0 134.28572,134.28572 0 1 1 268.57144,0 z"
       sodipodi:ry="134.28572"
       sodipodi:rx="134.28572"
       sodipodi:cy="343.79074"
       sodipodi:cx="397.14285"
       id="path4008"
       style="fill:#3b3b3b;fill-opacity:1;fill-rule:nonzero;stroke:#000000;stroke-width:39.11236191;stroke-linecap:round;stroke-linejoin:miter;stroke-miterlimit:4;stroke-opacity:1;stroke-dasharray:none;stroke-dashoffset:0"
       sodipodi:type="arc"
       transform="matrix(0.07248275,0,0,0.07248275,297.37465,839.77425)" />
    <path
       transform="matrix(0.07248275,0,0,0.07248275,358.22679,833.66036)"
       sodipodi:type="arc"
       style="fill:#3b3b3b;fill-opacity:1;fill-rule:nonzero;stroke:#000000;stroke-width:39.11236191;stroke-linecap:round;stroke-linejoin:miter;stroke-miterlimit:4;stroke-opacity:1;stroke-dasharray:none;stroke-dashoffset:0"
       id="path4010"
       sodipodi:cx="397.14285"
       sodipodi:cy="343.79074"
       sodipodi:rx="134.28572"
       sodipodi:ry="134.28572"
       d="m 531.42857,343.79074 a 134.28572,134.28572 0 1 1 -268.57144,0 134.28572,134.28572 0 1 1 268.57144,0 z" />
    <path
       sodipodi:type="arc"
       style="fill:#000000;fill-opacity:1;fill-rule:nonzero;stroke:#000000;stroke-width:13;stroke-linecap:round;stroke-linejoin:miter;stroke-miterlimit:4;stroke-opacity:1;stroke-dasharray:none;stroke-dashoffset:0"
       id="path4018"
       sodipodi:cx="362.85715"
       sodipodi:cy="332.36218"
       sodipodi:rx="28.571428"
       sodipodi:ry="28.571428"
       d="m 391.42858,332.36218 a 28.571428,28.571428 0 1 1 -57.14286,0 28.571428,28.571428 0 1 1 57.14286,0 z"
       transform="matrix(0.26209205,0,0,0.26209205,246.7496,745.65221)" />
    <path
       sodipodi:type="arc"
       style="fill:#ffffff;fill-opacity:1;fill-rule:nonzero;stroke:none"
       id="path4020"
       sodipodi:cx="354.56354"
       sodipodi:cy="329.09296"
       sodipodi:rx="24.243662"
       sodipodi:ry="24.243662"
       d="m 378.8072,329.09296 a 24.243662,24.243662 0 1 1 -48.48732,0 24.243662,24.243662 0 1 1 48.48732,0 z"
       transform="matrix(0.18529252,0,0,-0.18529252,276.08302,893.69705)" />
    <path
       transform="matrix(-0.26209205,0,0,0.26209205,461.85686,745.65221)"
       d="m 391.42858,332.36218 a 28.571428,28.571428 0 1 1 -57.14286,0 28.571428,28.571428 0 1 1 57.14286,0 z"
       sodipodi:ry="28.571428"
       sodipodi:rx="28.571428"
       sodipodi:cy="332.36218"
       sodipodi:cx="362.85715"
       id="path4028"
       style="fill:#000000;fill-opacity:1;fill-rule:nonzero;stroke:#000000;stroke-width:13;stroke-linecap:round;stroke-linejoin:miter;stroke-miterlimit:4;stroke-opacity:1;stroke-dasharray:none;stroke-dashoffset:0"
       sodipodi:type="arc" />
    <path
       transform="matrix(-0.18529252,0,0,-0.18529252,432.69712,893.69705)"
       d="m 378.8072,329.09296 a 24.243662,24.243662 0 1 1 -48.48732,0 24.243662,24.243662 0 1 1 48.48732,0 z"
       sodipodi:ry="24.243662"
       sodipodi:rx="24.243662"
       sodipodi:cy="329.09296"
       sodipodi:cx="354.56354"
       id="path4030"
       style="fill:#ffffff;fill-opacity:1;fill-rule:nonzero;stroke:none"
       sodipodi:type="arc" />
    <path
       sodipodi:type="arc"
       style="fill:#000000;fill-opacity:1;fill-rule:nonzero;stroke:#000000;stroke-width:4.5999999;stroke-linecap:round;stroke-linejoin:miter;stroke-miterlimit:4;stroke-opacity:1;stroke-dasharray:none;stroke-dashoffset:0"
       id="path3797"
       sodipodi:cx="612.35449"
       sodipodi:cy="-10.419312"
       sodipodi:rx="15.556349"
       sodipodi:ry="10.606602"
       d="m 627.91084,-10.419312 a 15.556349,10.606602 0 1 1 -31.1127,0 15.556349,10.606602 0 1 1 31.1127,0 z"
       transform="matrix(0.37091036,0,0,0.37091036,160.62915,860.95743)" />
    <path
       sodipodi:nodetypes="ccccc"
       inkscape:connector-curvature="0"
       id="path3799"
       d="m 384.08594,857.87962 5.77002,2.09819 30.4237,-77.63288 1.57363,-22.03095 z"
       style="fill:#e6e6e6;stroke:#000000;stroke-width:1.70618773;stroke-linecap:butt;stroke-linejoin:miter;stroke-miterlimit:4;stroke-opacity:1;stroke-dasharray:none" />
    <path
       transform="matrix(0.37091036,0,0,0.37091036,251.24015,831.5847)"
       d="m 531.42857,343.79074 a 134.28572,134.28572 0 1 1 -268.57144,0 134.28572,134.28572 0 1 1 268.57144,0 z"
       sodipodi:ry="134.28572"
       sodipodi:rx="134.28572"
       sodipodi:cy="343.79074"
       sodipodi:cx="397.14285"
       id="path3118"
       style="fill:#4ac0ff;fill-opacity:1;fill-rule:nonzero;stroke:#00008a;stroke-width:13;stroke-linecap:round;stroke-linejoin:miter;stroke-miterlimit:4;stroke-opacity:1;stroke-dasharray:none;stroke-dashoffset:0"
       sodipodi:type="arc" />
    <g
       transform="matrix(0.37091036,0,0,0.37091036,214.64917,829.48652)"
       id="g3120"
       style="fill:#4ac0ff;fill-opacity:1;stroke:#00008a;stroke-opacity:1">
      <path
         d="m 531.42857,343.79074 a 134.28572,134.28572 0 1 1 -268.57144,0 134.28572,134.28572 0 1 1 268.57144,0 z"
         sodipodi:ry="134.28572"
         sodipodi:rx="134.28572"
         sodipodi:cy="343.79074"
         sodipodi:cx="397.14285"
         id="path3122"
         style="fill:#4ac0ff;fill-opacity:1;fill-rule:nonzero;stroke:#00008a;stroke-width:39.11236191;stroke-linecap:round;stroke-linejoin:miter;stroke-miterlimit:4;stroke-opacity:1;stroke-dasharray:none;stroke-dashoffset:0"
         sodipodi:type="arc"
         transform="matrix(0.32598341,0,0,0.32598341,217.68087,329.43494)" />
    </g>
    <path
       transform="matrix(0.43720355,0,0,0.43720355,219.13114,805.51789)"
       d="m 391.42858,332.36218 a 28.571428,28.571428 0 1 1 -57.14286,0 28.571428,28.571428 0 1 1 57.14286,0 z"
       sodipodi:ry="28.571428"
       sodipodi:rx="28.571428"
       sodipodi:cy="332.36218"
       sodipodi:cx="362.85715"
       id="path3126"
       style="fill:#00008a;fill-opacity:1;fill-rule:nonzero;stroke:#00008a;stroke-width:9.0130825;stroke-linecap:round;stroke-linejoin:miter;stroke-miterlimit:4;stroke-opacity:1;stroke-dasharray:none;stroke-dashoffset:0"
       sodipodi:type="arc" />
    <path
       transform="matrix(0.30909197,0,0,-0.30909197,270.20097,1052.6711)"
       d="m 378.8072,329.09296 a 24.243662,24.243662 0 1 1 -48.48732,0 24.243662,24.243662 0 1 1 48.48732,0 z"
       sodipodi:ry="24.243662"
       sodipodi:rx="24.243662"
       sodipodi:cy="329.09296"
       sodipodi:cx="354.56354"
       id="path3128"
       style="fill:#ffffff;fill-opacity:1;fill-rule:nonzero;stroke:none"
       sodipodi:type="arc" />
    <path
       sodipodi:type="arc"
       style="fill:#00008a;fill-opacity:1;fill-rule:nonzero;stroke:#00008a;stroke-width:9.0130825;stroke-linecap:round;stroke-linejoin:miter;stroke-miterlimit:4;stroke-opacity:1;stroke-dasharray:none;stroke-dashoffset:0"
       id="path3130"
       sodipodi:cx="362.85715"
       sodipodi:cy="332.36218"
       sodipodi:rx="28.571428"
       sodipodi:ry="28.571428"
       d="m 391.42858,332.36218 a 28.571428,28.571428 0 1 1 -57.14286,0 28.571428,28.571428 0 1 1 57.14286,0 z"
       transform="matrix(-0.43720355,0,0,0.43720355,577.95796,819.61248)" />
    <path
       sodipodi:type="arc"
       style="fill:#ffffff;fill-opacity:1;fill-rule:nonzero;stroke:none"
       id="path3132"
       sodipodi:cx="354.56354"
       sodipodi:cy="329.09296"
       sodipodi:rx="24.243662"
       sodipodi:ry="24.243662"
       d="m 378.8072,329.09296 a 24.243662,24.243662 0 1 1 -48.48732,0 24.243662,24.243662 0 1 1 48.48732,0 z"
       transform="matrix(-0.30909197,0,0,-0.30909197,527.35996,1068.122)" />
    <g
       id="g3134"
       transform="matrix(0.37091036,0,0,0.37091036,266.57927,854.66476)"
       style="fill:#4ac0ff;fill-opacity:1;stroke:#00008a;stroke-opacity:1">
      <path
         transform="matrix(0.32598341,0,0,0.32598341,217.68087,329.43494)"
         sodipodi:type="arc"
         style="fill:#4ac0ff;fill-opacity:1;fill-rule:nonzero;stroke:#00008a;stroke-width:39.11236191;stroke-linecap:round;stroke-linejoin:miter;stroke-miterlimit:4;stroke-opacity:1;stroke-dasharray:none;stroke-dashoffset:0"
         id="path3136"
         sodipodi:cx="397.14285"
         sodipodi:cy="343.79074"
         sodipodi:rx="134.28572"
         sodipodi:ry="134.28572"
         d="m 531.42857,343.79074 a 134.28572,134.28572 0 1 1 -268.57144,0 134.28572,134.28572 0 1 1 268.57144,0 z" />
    </g>
    <g
       transform="matrix(0,-0.93754168,0.74787706,0,23.398781,1427.8995)"
       id="g3980">
      <path
         transform="matrix(0.75503575,0,0,0.75503575,-40.402528,544.66831)"
         d="m 627.91084,-10.419312 a 15.556349,10.606602 0 1 1 -31.1127,0 15.556349,10.606602 0 1 1 31.1127,0 z"
         sodipodi:ry="10.606602"
         sodipodi:rx="15.556349"
         sodipodi:cy="-10.419312"
         sodipodi:cx="612.35449"
         id="path3982"
         style="fill:#000000;fill-opacity:1;fill-rule:nonzero;stroke:#000000;stroke-width:4.5999999;stroke-linecap:round;stroke-linejoin:miter;stroke-miterlimit:4;stroke-opacity:1;stroke-dasharray:none;stroke-dashoffset:0"
         sodipodi:type="arc" />
      <path
         style="fill:#e6e6e6;stroke:#000000;stroke-width:3.47316432;stroke-linecap:butt;stroke-linejoin:miter;stroke-miterlimit:4;stroke-opacity:1;stroke-dasharray:none"
         d="m 414.47252,538.40303 11.7456,4.27113 61.93134,-158.03172 3.20335,-44.84683 z"
         id="path3984"
         inkscape:connector-curvature="0"
         sodipodi:nodetypes="ccccc" />
    </g>
    <path
       style="fill:#000000;fill-opacity:1;stroke:#000000;stroke-width:0.37091038px;stroke-linecap:butt;stroke-linejoin:miter;stroke-opacity:1"
       d="m 428.14785,1028.8817 17.83458,8.9174 1.04909,4.4586 -3.14728,3.4095 -15.21184,-6.2945"
       id="path3986"
       inkscape:connector-curvature="0"
       sodipodi:nodetypes="ccccc" />
  </g>
</svg>
