<?xml version="1.0" encoding="UTF-8" standalone="no"?>
<!-- Created with Inkscape (http://www.inkscape.org/) -->

<svg
   xmlns:dc="http://purl.org/dc/elements/1.1/"
   xmlns:cc="http://creativecommons.org/ns#"
   xmlns:rdf="http://www.w3.org/1999/02/22-rdf-syntax-ns#"
   xmlns:svg="http://www.w3.org/2000/svg"
   xmlns="http://www.w3.org/2000/svg"
   xmlns:sodipodi="http://sodipodi.sourceforge.net/DTD/sodipodi-0.dtd"
   xmlns:inkscape="http://www.inkscape.org/namespaces/inkscape"
   width="600"
   height="400"
   id="svg2"
   version="1.1"
   inkscape:version="0.48.2 r9819"
   sodipodi:docname="poor.svg"
   inkscape:export-filename="/Users/barbarakohler/Desktop/GlobalGameJam2014/pikmin.png"
   inkscape:export-xdpi="56.949234"
   inkscape:export-ydpi="56.949234">
  <defs
     id="defs4" />
  <sodipodi:namedview
     id="base"
     pagecolor="#ffffff"
     bordercolor="#666666"
     borderopacity="1.0"
     inkscape:pageopacity="0.0"
     inkscape:pageshadow="2"
     inkscape:zoom="0.45804224"
     inkscape:cx="261.50417"
     inkscape:cy="187.88293"
     inkscape:document-units="px"
     inkscape:current-layer="layer1"
     showgrid="false"
     inkscape:window-width="1280"
     inkscape:window-height="709"
     inkscape:window-x="0"
     inkscape:window-y="0"
     inkscape:window-maximized="1" />
  <metadata
     id="metadata7">
    <rdf:RDF>
      <cc:Work
         rdf:about="">
        <dc:format>image/svg+xml</dc:format>
        <dc:type
           rdf:resource="http://purl.org/dc/dcmitype/StillImage" />
        <dc:title></dc:title>
      </cc:Work>
    </rdf:RDF>
  </metadata>
  <g
     inkscape:label="Layer 1"
     inkscape:groupmode="layer"
     id="layer1"
     transform="translate(0,-752.36218)">
    <path
       sodipodi:type="arc"
       style="fill:#07f500;fill-opacity:1;fill-rule:nonzero;stroke:#016c01;stroke-width:13;stroke-linecap:round;stroke-linejoin:miter;stroke-miterlimit:4;stroke-opacity:1;stroke-dasharray:none;stroke-dashoffset:0"
       id="path2985"
       sodipodi:cx="397.14285"
       sodipodi:cy="343.79074"
       sodipodi:rx="134.28572"
       sodipodi:ry="134.28572"
       d="m 531.42857,343.79074 a 134.28572,134.28572 0 1 1 -268.57144,0 134.28572,134.28572 0 1 1 268.57144,0 z"
       transform="matrix(0.79399468,0,0,0.79399468,-48.362446,686.4075)" />
    <g
       id="g3813"
       transform="matrix(0.79399468,0,0,0.79399468,-119.87249,699.67254)">
      <path
         transform="matrix(0.32598341,0,0,0.32598341,217.68087,329.43494)"
         sodipodi:type="arc"
         style="fill:#07f500;fill-opacity:1;fill-rule:nonzero;stroke:#016c01;stroke-width:39.11236191;stroke-linecap:round;stroke-linejoin:miter;stroke-miterlimit:4;stroke-opacity:1;stroke-dasharray:none;stroke-dashoffset:0"
         id="path3789"
         sodipodi:cx="397.14285"
         sodipodi:cy="343.79074"
         sodipodi:rx="134.28572"
         sodipodi:ry="134.28572"
         d="m 531.42857,343.79074 c 0,74.16396 -60.12176,134.28572 -134.28572,134.28572 -74.16395,0 -134.28572,-60.12176 -134.28572,-134.28572 0,-74.16395 60.12177,-134.28572 134.28572,-134.28572 74.16396,0 134.28572,60.12177 134.28572,134.28572 z" />
    </g>
    <g
       id="g3839"
       transform="matrix(0.79399468,0,0,0.79399468,-50.844071,686.4075)">
      <path
         transform="matrix(1.178731,0,0,1.178731,-83.44262,-70.277934)"
         d="m 391.42858,332.36218 c 0,15.77957 -12.79187,28.57143 -28.57143,28.57143 -15.77957,0 -28.57143,-12.79186 -28.57143,-28.57143 0,-15.77956 12.79186,-28.57143 28.57143,-28.57143 15.77956,0 28.57143,12.79187 28.57143,28.57143 z"
         sodipodi:ry="28.571428"
         sodipodi:rx="28.571428"
         sodipodi:cy="332.36218"
         sodipodi:cx="362.85715"
         id="path3763"
         style="fill:#016c01;fill-opacity:1;fill-rule:nonzero;stroke:#016c01;stroke-width:13;stroke-linecap:round;stroke-linejoin:miter;stroke-miterlimit:4;stroke-opacity:1;stroke-dasharray:none;stroke-dashoffset:0"
         sodipodi:type="arc" />
      <path
         transform="matrix(0.83333334,0,0,-0.83333334,57.073616,586.1645)"
         d="m 378.8072,329.09296 c 0,13.3894 -10.85426,24.24366 -24.24366,24.24366 -13.38941,0 -24.24366,-10.85426 -24.24366,-24.24366 0,-13.38941 10.85425,-24.24367 24.24366,-24.24367 13.3894,0 24.24366,10.85426 24.24366,24.24367 z"
         sodipodi:ry="24.243662"
         sodipodi:rx="24.243662"
         sodipodi:cy="329.09296"
         sodipodi:cx="354.56354"
         id="path3819"
         style="fill:#ffffff;fill-opacity:1;fill-rule:nonzero;stroke:none"
         sodipodi:type="arc" />
    </g>
    <path
       transform="matrix(-0.93590613,0,0,0.93590613,651.03078,630.60719)"
       d="m 391.42858,332.36218 a 28.571428,28.571428 0 1 1 -57.14286,0 28.571428,28.571428 0 1 1 57.14286,0 z"
       sodipodi:ry="28.571428"
       sodipodi:rx="28.571428"
       sodipodi:cy="332.36218"
       sodipodi:cx="362.85715"
       id="path3847"
       style="fill:#016c01;fill-opacity:1;fill-rule:nonzero;stroke:#016c01;stroke-width:13;stroke-linecap:round;stroke-linejoin:miter;stroke-miterlimit:4;stroke-opacity:1;stroke-dasharray:none;stroke-dashoffset:0"
       sodipodi:type="arc" />
    <path
       transform="matrix(-0.66166224,0,0,-0.66166224,550.57757,1150.2311)"
       d="m 378.8072,329.09296 a 24.243662,24.243662 0 1 1 -48.48732,0 24.243662,24.243662 0 1 1 48.48732,0 z"
       sodipodi:ry="24.243662"
       sodipodi:rx="24.243662"
       sodipodi:cy="329.09296"
       sodipodi:cx="354.56354"
       id="path3849"
       style="fill:#ffffff;fill-opacity:1;fill-rule:nonzero;stroke:none"
       sodipodi:type="arc" />
    <g
       id="g4099"
       transform="matrix(1.3244406,0,0,1.3244406,-165.51281,-433.15635)">
      <g
         transform="translate(2,312)"
         id="g4090" />
    </g>
    <g
       id="g3846"
       transform="matrix(1.4339841,-0.24217679,0.24217679,1.4339841,-305.54447,-414.86072)">
      <path
         sodipodi:nodetypes="cccsccccscc"
         style="fill:#cccccc;stroke:none"
         d="m 146.43427,1051.4488 6.25253,-47.5193 -0.56873,-1.0741 c 0,4.3952 -10.68898,7.9582 -23.87451,7.9582 -13.18553,0 -23.87452,-3.563 -23.87452,-7.9582 l -0.45197,-0.1764 5.62727,47.5192 -0.0645,-0.3617 c 0,3.3472 8.14044,6.0607 18.18219,6.0607 10.04175,0 18.1822,-2.7135 18.1822,-6.0607 z"
         id="path3832"
         inkscape:connector-curvature="0" />
      <path
         transform="matrix(1.3432836,0,0,1.16,-31.236429,746.78088)"
         d="m 135,221.25 c 0,3.45178 -7.49923,6.25 -16.75,6.25 -9.25077,0 -16.75,-2.79822 -16.75,-6.25 0,-3.45178 7.49923,-6.25 16.75,-6.25 9.25077,0 16.75,2.79822 16.75,6.25 z"
         sodipodi:ry="6.25"
         sodipodi:rx="16.75"
         sodipodi:cy="221.25"
         sodipodi:cx="118.25"
         id="path3806"
         style="fill:#cccccc;stroke:none"
         sodipodi:type="arc" />
      <path
         transform="matrix(0.88424132,0,0,0.88424132,33.968182,780.91087)"
         d="m 133,251 c 0,4.97056 -12.08831,9 -27,9 -14.911688,0 -27,-4.02944 -27,-9 0,-4.97056 12.088312,-9 27,-9 14.91169,0 27,4.02944 27,9 z"
         sodipodi:ry="9"
         sodipodi:rx="27"
         sodipodi:cy="251"
         sodipodi:cx="106"
         id="path3023"
         style="fill:#999999;stroke:#000000;stroke-width:4.9000001;stroke-linejoin:miter;stroke-miterlimit:4;stroke-dasharray:none"
         sodipodi:type="arc" />
      <path
         sodipodi:nodetypes="csc"
         inkscape:connector-curvature="0"
         id="path3793"
         d="m 145.29839,1049.8365 c 0,3.3472 -8.14045,6.0607 -18.18219,6.0607 -10.04176,0 -18.1822,-2.7135 -18.1822,-6.0607"
         style="fill:none;stroke:#000000;stroke-width:3.29973197;stroke-linejoin:miter;stroke-miterlimit:4" />
      <path
         inkscape:connector-curvature="0"
         id="path3796"
         d="m 103.37127,1002.679 5.62728,47.5192"
         style="fill:none;stroke:#000000;stroke-width:3.00642061;stroke-linecap:butt;stroke-linejoin:miter;stroke-miterlimit:4;stroke-opacity:1;stroke-dasharray:none" />
      <path
         inkscape:connector-curvature="0"
         id="path3798"
         d="m 145.88847,1051.4488 6.25253,-47.5193"
         style="fill:none;stroke:#000000;stroke-width:3.00642061;stroke-linecap:butt;stroke-linejoin:miter;stroke-miterlimit:4;stroke-opacity:1;stroke-dasharray:none" />
    </g>
    <path
       sodipodi:nodetypes="ccccc"
       inkscape:connector-curvature="0"
       id="path3857"
       d="m 376.46429,1017.2337 170.14185,1.81 16.29017,63.351 -170.14183,-1.8101 z"
       style="fill:#ff6600;fill-opacity:1;stroke:#000000;stroke-width:8.29065418;stroke-miterlimit:4;stroke-dasharray:none"
       inkscape:transform-center-x="132.13145"
       inkscape:transform-center-y="137.56151" />
    <path
       style="fill:#ff9955;fill-opacity:1;stroke:#000000;stroke-width:8.29065418;stroke-miterlimit:4;stroke-dasharray:none"
       d="m 372.54047,1017.2337 170.14185,1.81 -9.0501,90.5009 -170.14184,-1.8099 z"
       id="rect3854"
       inkscape:connector-curvature="0"
       sodipodi:nodetypes="ccccc" />
    <text
       xml:space="preserve"
       style="font-size:30.77088165px;font-style:normal;font-weight:normal;line-height:125%;letter-spacing:0px;word-spacing:0px;fill:#aa4400;fill-opacity:1;stroke:none;font-family:Sans"
       x="556.02661"
       y="1053.5146"
       id="text3885"
       sodipodi:linespacing="125%"
       transform="matrix(1,0,-0.1458777,1,0,0)"><tspan
         sodipodi:role="line"
         x="556.02661"
         y="1053.5146"
         id="tspan3889">Please</tspan><tspan
         sodipodi:role="line"
         x="556.02661"
         y="1091.9783"
         id="tspan3893">Help</tspan></text>
  </g>
</svg>
