<?xml version="1.0" encoding="UTF-8" standalone="no"?>
<!-- Created with Inkscape (http://www.inkscape.org/) -->

<svg
   xmlns:dc="http://purl.org/dc/elements/1.1/"
   xmlns:cc="http://creativecommons.org/ns#"
   xmlns:rdf="http://www.w3.org/1999/02/22-rdf-syntax-ns#"
   xmlns:svg="http://www.w3.org/2000/svg"
   xmlns="http://www.w3.org/2000/svg"
   xmlns:sodipodi="http://sodipodi.sourceforge.net/DTD/sodipodi-0.dtd"
   xmlns:inkscape="http://www.inkscape.org/namespaces/inkscape"
   width="600"
   height="400"
   id="svg2"
   version="1.1"
   inkscape:version="0.48.2 r9819"
   sodipodi:docname="tinitus.svg"
   inkscape:export-filename="/Users/barbarakohler/Desktop/GlobalGameJam2014/pikmin.png"
   inkscape:export-xdpi="56.949234"
   inkscape:export-ydpi="56.949234">
  <defs
     id="defs4">
    <inkscape:perspective
       sodipodi:type="inkscape:persp3d"
       inkscape:vp_x="0 : 526.18109 : 1"
       inkscape:vp_y="0 : 1000 : 0"
       inkscape:vp_z="744.09448 : 526.18109 : 1"
       inkscape:persp3d-origin="372.04724 : 350.78739 : 1"
       id="perspective4397" />
  </defs>
  <sodipodi:namedview
     id="base"
     pagecolor="#ffffff"
     bordercolor="#666666"
     borderopacity="1.0"
     inkscape:pageopacity="0.0"
     inkscape:pageshadow="2"
     inkscape:zoom="0.5"
     inkscape:cx="283.42263"
     inkscape:cy="-28.492985"
     inkscape:document-units="px"
     inkscape:current-layer="layer1"
     showgrid="false"
     inkscape:window-width="1280"
     inkscape:window-height="756"
     inkscape:window-x="62"
     inkscape:window-y="142"
     inkscape:window-maximized="0" />
  <metadata
     id="metadata7">
    <rdf:RDF>
      <cc:Work
         rdf:about="">
        <dc:format>image/svg+xml</dc:format>
        <dc:type
           rdf:resource="http://purl.org/dc/dcmitype/StillImage" />
        <dc:title />
      </cc:Work>
    </rdf:RDF>
  </metadata>
  <g
     inkscape:label="Layer 1"
     inkscape:groupmode="layer"
     id="layer1"
     transform="translate(0,-752.36215)">
    <g
       id="g3020"
       transform="matrix(1.3070244,0,0,1.3070244,-56.476341,-222.00003)">
      <path
         transform="matrix(0.49362777,0,0,0.49362777,121.85724,769.97222)"
         d="m 531.42857,343.79074 c 0,74.16396 -60.12176,134.28572 -134.28572,134.28572 -74.16395,0 -134.28572,-60.12176 -134.28572,-134.28572 0,-74.16395 60.12177,-134.28572 134.28572,-134.28572 74.16396,0 134.28572,60.12177 134.28572,134.28572 z"
         sodipodi:ry="134.28572"
         sodipodi:rx="134.28572"
         sodipodi:cy="343.79074"
         sodipodi:cx="397.14285"
         id="path2985"
         style="fill:#07f500;fill-opacity:1;fill-rule:nonzero;stroke:#016c01;stroke-width:13;stroke-linecap:round;stroke-linejoin:miter;stroke-miterlimit:4;stroke-opacity:1;stroke-dasharray:none;stroke-dashoffset:0"
         sodipodi:type="arc" />
      <g
         transform="matrix(0.49362777,0,0,0.49362777,135.94111,772.06651)"
         id="g3839">
        <path
           sodipodi:type="arc"
           style="fill:#016c01;fill-opacity:1;fill-rule:nonzero;stroke:#016c01;stroke-width:13;stroke-linecap:round;stroke-linejoin:miter;stroke-miterlimit:4;stroke-opacity:1;stroke-dasharray:none;stroke-dashoffset:0"
           id="path3763"
           sodipodi:cx="362.85715"
           sodipodi:cy="332.36218"
           sodipodi:rx="28.571428"
           sodipodi:ry="28.571428"
           d="m 391.42858,332.36218 c 0,15.77957 -12.79187,28.57143 -28.57143,28.57143 -15.77957,0 -28.57143,-12.79186 -28.57143,-28.57143 0,-15.77956 12.79186,-28.57143 28.57143,-28.57143 15.77956,0 28.57143,12.79187 28.57143,28.57143 z"
           transform="matrix(1.178731,0,0,1.178731,-83.44262,-70.277934)" />
        <path
           sodipodi:type="arc"
           style="fill:#ffffff;fill-opacity:1;fill-rule:nonzero;stroke:none"
           id="path3819"
           sodipodi:cx="354.56354"
           sodipodi:cy="329.09296"
           sodipodi:rx="24.243662"
           sodipodi:ry="24.243662"
           d="m 378.8072,329.09296 c 0,13.3894 -10.85426,24.24366 -24.24366,24.24366 -13.38941,0 -24.24366,-10.85426 -24.24366,-24.24366 0,-13.38941 10.85425,-24.24367 24.24366,-24.24367 13.3894,0 24.24366,10.85426 24.24366,24.24367 z"
           transform="matrix(0.83333334,0,0,-0.83333334,48.588335,596.06399)" />
      </g>
      <path
         sodipodi:type="arc"
         style="fill:#016c01;fill-opacity:1;fill-rule:nonzero;stroke:#016c01;stroke-width:13;stroke-linecap:round;stroke-linejoin:miter;stroke-miterlimit:4;stroke-opacity:1;stroke-dasharray:none;stroke-dashoffset:0"
         id="path3847"
         sodipodi:cx="362.85715"
         sodipodi:cy="332.36218"
         sodipodi:rx="28.571428"
         sodipodi:ry="28.571428"
         d="m 391.42858,332.36218 c 0,15.77957 -12.79187,28.57143 -28.57143,28.57143 -15.77957,0 -28.57143,-12.79186 -28.57143,-28.57143 0,-15.77956 12.79186,-28.57143 28.57143,-28.57143 15.77956,0 28.57143,12.79187 28.57143,28.57143 z"
         transform="matrix(-0.58185436,0,0,0.58185436,569.50548,735.28109)" />
      <path
         sodipodi:type="arc"
         style="fill:#ffffff;fill-opacity:1;fill-rule:nonzero;stroke:none"
         id="path3849"
         sodipodi:cx="354.56354"
         sodipodi:cy="329.09296"
         sodipodi:rx="24.243662"
         sodipodi:ry="24.243662"
         d="m 378.8072,329.09296 c 0,13.3894 -10.85426,24.24366 -24.24366,24.24366 -13.38941,0 -24.24366,-10.85426 -24.24366,-24.24366 0,-13.38941 10.85425,-24.24367 24.24366,-24.24367 13.3894,0 24.24366,10.85426 24.24366,24.24367 z"
         transform="matrix(-0.41135647,0,0,-0.41135647,506.35545,1064.6149)" />
      <g
         transform="matrix(0.49362777,0,0,0.49362777,141.58429,855.83543)"
         id="g3783">
        <path
           sodipodi:type="arc"
           style="fill:#07f500;fill-opacity:1;fill-rule:nonzero;stroke:#016c01;stroke-width:8.80000019;stroke-linecap:round;stroke-linejoin:miter;stroke-miterlimit:4;stroke-opacity:1;stroke-dasharray:none;stroke-dashoffset:0"
           id="path3779"
           sodipodi:cx="220.61731"
           sodipodi:cy="138.78021"
           sodipodi:rx="52.325901"
           sodipodi:ry="52.325901"
           d="m 272.94321,138.78021 c 0,28.8988 -23.4271,52.3259 -52.3259,52.3259 -28.8988,0 -52.3259,-23.4271 -52.3259,-52.3259 0,0 0,0 0,0 l 52.3259,0 z"
           sodipodi:start="0"
           sodipodi:end="3.1415927"
           transform="matrix(0,1,-1,0,385.56047,-55.674149)" />
        <path
           transform="matrix(0,0.34800698,-0.45277076,0,310.8551,86.752583)"
           sodipodi:end="3.1415927"
           sodipodi:start="0"
           d="m 272.94321,138.78021 c 0,28.8988 -23.4271,52.3259 -52.3259,52.3259 -28.8988,0 -52.3259,-23.4271 -52.3259,-52.3259 0,0 0,0 0,0 l 52.3259,0 z"
           sodipodi:ry="52.325901"
           sodipodi:rx="52.325901"
           sodipodi:cy="138.78021"
           sodipodi:cx="220.61731"
           id="path3781"
           style="fill:#016c01;fill-opacity:1;fill-rule:nonzero;stroke:#016c01;stroke-width:8.80000019;stroke-linecap:round;stroke-linejoin:miter;stroke-miterlimit:4;stroke-opacity:1;stroke-dasharray:none;stroke-dashoffset:0"
           sodipodi:type="arc" />
      </g>
      <g
         id="g4426"
         style="fill:none;stroke:#000000;stroke-width:13.84488678;stroke-miterlimit:4;stroke-opacity:1;stroke-dasharray:none"
         transform="matrix(0.28523326,0,0,0.28523326,185.32716,822.04946)">
        <path
           transform="matrix(-0.00394727,-1.5413616,0.99999221,-0.00608422,-496.27919,231.72032)"
           style="stroke:#000000;stroke-width:11.15155506;stroke-linecap:round;stroke-linejoin:miter;stroke-miterlimit:4;stroke-dasharray:none;stroke-dashoffset:0"
           d="m -34.403629,371.50099 c -9.02769,38.79699 -47.797258,62.92978 -86.594251,53.90209 -26.45763,-6.15644 -47.21217,-26.65623 -53.69487,-53.03581"
           id="path4428"
           inkscape:connector-curvature="0" />
      </g>
      <g
         transform="matrix(0.1393571,0,0,0.1393571,143.65941,879.02927)"
         style="fill:none;stroke:#000000;stroke-width:35.42178726;stroke-miterlimit:4;stroke-opacity:1;stroke-dasharray:none"
         id="g4430">
        <path
           inkscape:connector-curvature="0"
           id="path4432"
           d="m -34.403629,371.50099 c -9.02769,38.79699 -47.797258,62.92978 -86.594251,53.90209 -26.45763,-6.15644 -47.21217,-26.65623 -53.69487,-53.03581"
           style="stroke:#000000;stroke-width:28.53096771;stroke-linecap:round;stroke-linejoin:miter;stroke-miterlimit:4;stroke-dasharray:none;stroke-dashoffset:0"
           transform="matrix(-0.00394727,-1.5413616,0.99999221,-0.00608422,-496.27919,231.72032)" />
      </g>
      <path
         sodipodi:type="arc"
         style="fill:#07f500;fill-opacity:1;fill-rule:nonzero;stroke:#016c01;stroke-width:25.73758125;stroke-linecap:round;stroke-linejoin:miter;stroke-miterlimit:4;stroke-opacity:1;stroke-dasharray:none;stroke-dashoffset:0"
         id="path4434"
         sodipodi:cx="397.14285"
         sodipodi:cy="343.79074"
         sodipodi:rx="134.28572"
         sodipodi:ry="134.28572"
         d="m 531.42857,343.79074 c 0,74.16396 -60.12176,134.28572 -134.28572,134.28572 -74.16395,0 -134.28572,-60.12176 -134.28572,-134.28572 0,-74.16395 60.12177,-134.28572 134.28572,-134.28572 74.16396,0 134.28572,60.12177 134.28572,134.28572 z"
         transform="matrix(0.15343409,0,0,0.15343409,151.89941,869.82433)" />
      <g
         id="g4436"
         style="fill:none;stroke:#000000;stroke-width:3;stroke-miterlimit:4;stroke-opacity:1;stroke-dasharray:none"
         transform="matrix(0.49362777,0,0,0.49362777,233.03476,740.64974)">
        <path
           transform="matrix(-0.00394727,-1.5413616,0.99999221,-0.00608422,-496.27919,231.72032)"
           style="stroke:#000000;stroke-width:2.41639137;stroke-linecap:round;stroke-linejoin:miter;stroke-miterlimit:4;stroke-dasharray:none;stroke-dashoffset:0"
           d="m -34.403629,371.50099 c -9.02769,38.79699 -47.797258,62.92978 -86.594251,53.90209 -26.45763,-6.15644 -47.21217,-26.65623 -53.69487,-53.03581"
           id="path4438"
           inkscape:connector-curvature="0" />
      </g>
      <g
         transform="matrix(0.65907536,0,0,0.65907536,274.14996,673.91613)"
         style="fill:none;stroke:#000000;stroke-width:0.74897015;stroke-miterlimit:4;stroke-opacity:1;stroke-dasharray:none"
         id="g2999">
        <path
           inkscape:connector-curvature="0"
           id="path3001"
           d="m -34.403629,371.50099 c -9.02769,38.79699 -47.797258,62.92978 -86.594251,53.90209 -26.45763,-6.15644 -47.21217,-26.65623 -53.69487,-53.03581"
           style="stroke:#000000;stroke-width:0.60326838;stroke-linecap:round;stroke-linejoin:miter;stroke-miterlimit:4;stroke-dasharray:none;stroke-dashoffset:0"
           transform="matrix(-0.00394727,-1.5413616,0.99999221,-0.00608422,-496.27919,231.72032)" />
      </g>
      <text
         transform="matrix(1.1189478,0.24586613,-0.1873274,0.85253534,0,0)"
         sodipodi:linespacing="125%"
         id="text3771"
         y="884.51031"
         x="421.59631"
         style="font-size:128.22369385px;font-style:normal;font-variant:normal;font-weight:normal;font-stretch:normal;text-align:start;line-height:125%;letter-spacing:0px;word-spacing:0px;writing-mode:lr-tb;text-anchor:start;fill:#000000;fill-opacity:1;stroke:none;font-family:Sans;-inkscape-font-specification:Sans"
         xml:space="preserve"><tspan
           y="884.51031"
           x="421.59631"
           id="tspan3773"
           sodipodi:role="line">?</tspan></text>
      <text
         xml:space="preserve"
         style="font-size:88.80391693px;font-style:normal;font-variant:normal;font-weight:normal;font-stretch:normal;text-align:start;line-height:125%;letter-spacing:0px;word-spacing:0px;writing-mode:lr-tb;text-anchor:start;fill:#000000;fill-opacity:1;stroke:none;font-family:Sans;-inkscape-font-specification:Sans"
         x="-168.02354"
         y="1031.4645"
         id="text3775"
         sodipodi:linespacing="125%"
         transform="matrix(1.0065827,-0.54707001,0.41681703,0.76692347,0,0)"><tspan
           sodipodi:role="line"
           id="tspan3777"
           x="-168.02354"
           y="1031.4645">?</tspan></text>
      <text
         xml:space="preserve"
         style="font-size:65.02518463px;font-style:normal;font-variant:normal;font-weight:normal;font-stretch:normal;text-align:start;line-height:125%;letter-spacing:0px;word-spacing:0px;writing-mode:lr-tb;text-anchor:start;fill:#000000;fill-opacity:1;stroke:none;font-family:Sans;-inkscape-font-specification:Sans"
         x="721.43884"
         y="553.76996"
         id="text3779"
         sodipodi:linespacing="125%"
         transform="matrix(0.91735499,0.686261,-0.52286779,0.69894015,0,0)"><tspan
           sodipodi:role="line"
           id="tspan3781"
           x="721.43884"
           y="553.76996">?</tspan></text>
    </g>
  </g>
</svg>
