<?xml version="1.0" encoding="UTF-8" standalone="no"?>
<!-- Created with Inkscape (http://www.inkscape.org/) -->

<svg
   xmlns:dc="http://purl.org/dc/elements/1.1/"
   xmlns:cc="http://creativecommons.org/ns#"
   xmlns:rdf="http://www.w3.org/1999/02/22-rdf-syntax-ns#"
   xmlns:svg="http://www.w3.org/2000/svg"
   xmlns="http://www.w3.org/2000/svg"
   xmlns:sodipodi="http://sodipodi.sourceforge.net/DTD/sodipodi-0.dtd"
   xmlns:inkscape="http://www.inkscape.org/namespaces/inkscape"
   width="600"
   height="400"
   id="svg2"
   version="1.1"
   inkscape:version="0.48.2 r9819"
   sodipodi:docname="too-small.svg"
   inkscape:export-filename="/Users/barbarakohler/Desktop/GlobalGameJam2014/pikmin.png"
   inkscape:export-xdpi="56.949234"
   inkscape:export-ydpi="56.949234">
  <defs
     id="defs4">
    <inkscape:perspective
       sodipodi:type="inkscape:persp3d"
       inkscape:vp_x="0 : 526.18109 : 1"
       inkscape:vp_y="0 : 1000 : 0"
       inkscape:vp_z="744.09448 : 526.18109 : 1"
       inkscape:persp3d-origin="372.04724 : 350.78739 : 1"
       id="perspective4397" />
  </defs>
  <sodipodi:namedview
     id="base"
     pagecolor="#ffffff"
     bordercolor="#666666"
     borderopacity="1.0"
     inkscape:pageopacity="0.0"
     inkscape:pageshadow="2"
     inkscape:zoom="0.64802928"
     inkscape:cx="330.86939"
     inkscape:cy="256.41394"
     inkscape:document-units="px"
     inkscape:current-layer="layer1"
     showgrid="false"
     inkscape:window-width="1280"
     inkscape:window-height="709"
     inkscape:window-x="0"
     inkscape:window-y="0"
     inkscape:window-maximized="1" />
  <metadata
     id="metadata7">
    <rdf:RDF>
      <cc:Work
         rdf:about="">
        <dc:format>image/svg+xml</dc:format>
        <dc:type
           rdf:resource="http://purl.org/dc/dcmitype/StillImage" />
        <dc:title />
      </cc:Work>
    </rdf:RDF>
  </metadata>
  <g
     inkscape:label="Layer 1"
     inkscape:groupmode="layer"
     id="layer1"
     transform="translate(0,-752.36215)">
    <g
       id="g3822"
       transform="matrix(1.3071202,0,0,1.3071202,-67.140732,-257.23225)">
      <g
         transform="matrix(1,0,0,0.87745616,247.19536,71.335786)"
         id="g3816">
        <path
           transform="translate(0,752.36215)"
           inkscape:connector-curvature="0"
           id="path3818"
           d="m 125.86501,278.7868 13.43503,0 1.41421,-159.09903 -14.14214,-1.41421 z"
           style="fill:#d45500;stroke:#000000;stroke-width:1px;stroke-linecap:butt;stroke-linejoin:miter;stroke-opacity:1" />
        <path
           sodipodi:nodetypes="cccc"
           transform="translate(0,752.36215)"
           inkscape:connector-curvature="0"
           id="path3820"
           d="m 139.69778,278.87519 5.65685,-6.36396 2.47488,-156.09382 -6.89429,3.53553"
           style="fill:#aa4400;stroke:#000000;stroke-width:1px;stroke-linecap:butt;stroke-linejoin:miter;stroke-opacity:1" />
      </g>
      <g
         transform="translate(156.0023,6.1420562)"
         id="g3812">
        <path
           style="fill:#d45500;stroke:#000000;stroke-width:1px;stroke-linecap:butt;stroke-linejoin:miter;stroke-opacity:1"
           d="m 125.86501,278.7868 13.43503,0 1.41421,-159.09903 -14.14214,-1.41421 z"
           id="path3797"
           inkscape:connector-curvature="0"
           transform="translate(0,752.36215)" />
        <path
           style="fill:#aa4400;stroke:#000000;stroke-width:1px;stroke-linecap:butt;stroke-linejoin:miter;stroke-opacity:1"
           d="m 139.69778,278.87519 5.65685,-6.36396 2.47488,-156.09382 -6.89429,3.53553"
           id="path3799"
           inkscape:connector-curvature="0"
           transform="translate(0,752.36215)"
           sodipodi:nodetypes="cccc" />
      </g>
      <g
         transform="translate(84.181609,53.44506)"
         id="g3807">
        <path
           style="fill:#d45500;stroke:#000000;stroke-width:1px;stroke-linecap:butt;stroke-linejoin:miter;stroke-opacity:1"
           d="M 39,83 224,97 225,80 35,65 z"
           id="path3801"
           inkscape:connector-curvature="0"
           transform="translate(0,752.36215)" />
        <path
           style="fill:#803300;stroke:#000000;stroke-width:1px;stroke-linecap:butt;stroke-linejoin:miter;stroke-opacity:1"
           d="M 338.70415,41.198917 223.44574,96.7068 225.0611,79.468431 338.86558,24.830957"
           id="path3803"
           inkscape:connector-curvature="0"
           transform="translate(0,752.36215)" />
        <path
           style="fill:#ff7f2a;stroke:none"
           d="M 34.299094,64.193726 224.16908,80.118306 338.70356,24.994761 121.2718,19.482406 z"
           id="path3805"
           inkscape:connector-curvature="0"
           transform="translate(0,752.36215)"
           sodipodi:nodetypes="ccccc" />
      </g>
    </g>
    <g
       id="g3834"
       transform="matrix(1.1607506,0,0,1.1607506,-5.1462926,-105.31824)">
      <path
         transform="matrix(0.21340653,0,0,0.21340653,339.59865,915.89674)"
         d="m 531.42857,343.79074 c 0,74.16396 -60.12176,134.28572 -134.28572,134.28572 -74.16395,0 -134.28572,-60.12176 -134.28572,-134.28572 0,-74.16395 60.12177,-134.28572 134.28572,-134.28572 74.16396,0 134.28572,60.12177 134.28572,134.28572 z"
         sodipodi:ry="134.28572"
         sodipodi:rx="134.28572"
         sodipodi:cy="343.79074"
         sodipodi:cx="397.14285"
         id="path2985"
         style="fill:#07f500;fill-opacity:1;fill-rule:nonzero;stroke:#016c01;stroke-width:13;stroke-linecap:round;stroke-linejoin:miter;stroke-miterlimit:4;stroke-opacity:1;stroke-dasharray:none;stroke-dashoffset:0"
         sodipodi:type="arc" />
      <g
         transform="translate(126.50021,-2.857174)"
         id="g3011">
        <path
           transform="matrix(-0.25154889,0,0,0.25154889,383.11567,890.76307)"
           d="m 391.42858,332.36218 c 0,15.77957 -12.79187,28.57143 -28.57143,28.57143 -15.77957,0 -28.57143,-12.79186 -28.57143,-28.57143 0,-15.77956 12.79186,-28.57143 28.57143,-28.57143 15.77956,0 28.57143,12.79187 28.57143,28.57143 z"
           sodipodi:ry="28.571428"
           sodipodi:rx="28.571428"
           sodipodi:cy="332.36218"
           sodipodi:cx="362.85715"
           id="path3847"
           style="fill:#016c01;fill-opacity:1;fill-rule:nonzero;stroke:#016c01;stroke-width:13;stroke-linecap:round;stroke-linejoin:miter;stroke-miterlimit:4;stroke-opacity:1;stroke-dasharray:none;stroke-dashoffset:0"
           sodipodi:type="arc" />
        <path
           transform="matrix(-0.17783878,0,0,-0.17783878,355.81447,1033.1416)"
           d="m 378.8072,329.09296 c 0,13.3894 -10.85426,24.24366 -24.24366,24.24366 -13.38941,0 -24.24366,-10.85426 -24.24366,-24.24366 0,-13.38941 10.85425,-24.24367 24.24366,-24.24367 13.3894,0 24.24366,10.85426 24.24366,24.24367 z"
           sodipodi:ry="24.243662"
           sodipodi:rx="24.243662"
           sodipodi:cy="329.09296"
           sodipodi:cx="354.56354"
           id="path3849"
           style="fill:#ffffff;fill-opacity:1;fill-rule:nonzero;stroke:none"
           sodipodi:type="arc" />
      </g>
      <path
         sodipodi:type="arc"
         style="fill:#07f500;fill-opacity:1;fill-rule:nonzero;stroke:#016c01;stroke-width:25.73758125;stroke-linecap:round;stroke-linejoin:miter;stroke-miterlimit:4;stroke-opacity:1;stroke-dasharray:none;stroke-dashoffset:0"
         id="path4434"
         sodipodi:cx="397.14285"
         sodipodi:cy="343.79074"
         sodipodi:rx="134.28572"
         sodipodi:ry="134.28572"
         d="m 531.42857,343.79074 c 0,74.16396 -60.12176,134.28572 -134.28572,134.28572 -74.16395,0 -134.28572,-60.12176 -134.28572,-134.28572 0,-74.16395 60.12177,-134.28572 134.28572,-134.28572 74.16396,0 134.28572,60.12177 134.28572,134.28572 z"
         transform="matrix(0.06633305,0,0,0.06633305,367.17222,934.59851)" />
      <path
         transform="matrix(0.06633305,0,0,0.06633305,386.2641,923.2848)"
         d="m 531.42857,343.79074 c 0,74.16396 -60.12176,134.28572 -134.28572,134.28572 -74.16395,0 -134.28572,-60.12176 -134.28572,-134.28572 0,-74.16395 60.12177,-134.28572 134.28572,-134.28572 74.16396,0 134.28572,60.12177 134.28572,134.28572 z"
         sodipodi:ry="134.28572"
         sodipodi:rx="134.28572"
         sodipodi:cy="343.79074"
         sodipodi:cx="397.14285"
         id="path3015"
         style="fill:#07f500;fill-opacity:1;fill-rule:nonzero;stroke:#016c01;stroke-width:25.73758125;stroke-linecap:round;stroke-linejoin:miter;stroke-miterlimit:4;stroke-opacity:1;stroke-dasharray:none;stroke-dashoffset:0"
         sodipodi:type="arc" />
      <g
         id="g3017"
         transform="matrix(0.71698362,0,0,0.71698362,219.5473,262.39282)">
        <path
           sodipodi:nodetypes="sssss"
           inkscape:connector-curvature="0"
           id="path3019"
           d="m 391.42858,332.36218 c -2.15343,15.63194 -12.79187,28.57143 -28.57143,28.57143 -15.77957,0 -28.57143,-12.79186 -28.57143,-28.57143 0,-2.22728 13.63888,-8.87827 29.41845,-8.87827 15.77956,0 28.14792,5.80398 27.72441,8.87827 z"
           style="fill:#016c01;fill-opacity:1;fill-rule:nonzero;stroke:#016c01;stroke-width:13;stroke-linecap:round;stroke-linejoin:miter;stroke-miterlimit:4;stroke-opacity:1;stroke-dashoffset:0"
           transform="matrix(-0.25154889,0,0,0.25154889,383.11567,890.76307)" />
        <path
           sodipodi:nodetypes="sssss"
           inkscape:connector-curvature="0"
           id="path3021"
           d="m 288.06056,975.51473 c 0,-2.11559 1.62037,-2.55282 3.73596,-2.55282 2.11558,0 3.92525,0.43723 3.92525,2.55282 0,2.11559 -1.71501,3.8306 -3.8306,3.8306 -2.11559,0 -3.83061,-1.71501 -3.83061,-3.8306 z"
           style="fill:#ffffff;fill-opacity:1;fill-rule:nonzero;stroke:none" />
      </g>
    </g>
    <g
       id="g4074"
       transform="matrix(1.4010593,0,0,1.4010593,-320.53214,-290.24906)">
      <g
         id="g3966"
         transform="translate(-57.27459,24.913915)">
        <path
           transform="translate(0,752.36215)"
           d="m 557.40368,40.022675 c 0,1.659232 -5.63054,3.004306 -12.57617,3.004306 -6.94562,0 -12.57616,-1.345074 -12.57616,-3.004306 0,-1.659233 5.63054,-3.004307 12.57616,-3.004307 6.94563,0 12.57617,1.345074 12.57617,3.004307 z"
           sodipodi:ry="3.0043066"
           sodipodi:rx="12.576167"
           sodipodi:cy="40.022675"
           sodipodi:cx="544.82751"
           id="path3968"
           style="fill:#ff912e;fill-opacity:1;stroke:#000000"
           sodipodi:type="arc" />
        <path
           transform="translate(-7.1264948,736.85154)"
           d="m 547.62225,55.952484 c 0,0.347281 -0.43793,0.628809 -0.97815,0.628809 -0.54021,0 -0.97814,-0.281528 -0.97814,-0.628809 0,-0.347281 0.43793,-0.628808 0.97814,-0.628808 0.54022,0 0.97815,0.281527 0.97815,0.628808 z"
           sodipodi:ry="0.62880838"
           sodipodi:rx="0.97814637"
           sodipodi:cy="55.952484"
           sodipodi:cx="546.6441"
           id="path3970"
           style="fill:#000000;fill-opacity:1;stroke:#000000;stroke-linejoin:miter"
           sodipodi:type="arc" />
        <path
           transform="translate(-4.7509966,736.15287)"
           d="m 547.62225,55.952484 c 0,0.347281 -0.43793,0.628809 -0.97815,0.628809 -0.54021,0 -0.97814,-0.281528 -0.97814,-0.628809 0,-0.347281 0.43793,-0.628808 0.97814,-0.628808 0.54022,0 0.97815,0.281527 0.97815,0.628808 z"
           sodipodi:ry="0.62880838"
           sodipodi:rx="0.97814637"
           sodipodi:cy="55.952484"
           sodipodi:cx="546.6441"
           id="path3972"
           style="fill:#000000;fill-opacity:1;stroke:#000000;stroke-linejoin:miter"
           sodipodi:type="arc" />
        <path
           transform="translate(-0.83841117,734.33631)"
           d="m 547.62225,55.952484 c 0,0.347281 -0.43793,0.628809 -0.97815,0.628809 -0.54021,0 -0.97814,-0.281528 -0.97814,-0.628809 0,-0.347281 0.43793,-0.628808 0.97814,-0.628808 0.54022,0 0.97815,0.281527 0.97815,0.628808 z"
           sodipodi:ry="0.62880838"
           sodipodi:rx="0.97814637"
           sodipodi:cy="55.952484"
           sodipodi:cx="546.6441"
           id="path3974"
           style="fill:#000000;fill-opacity:1;stroke:#000000;stroke-linejoin:miter"
           sodipodi:type="arc" />
        <path
           transform="translate(-0.2794704,736.15287)"
           d="m 547.62225,55.952484 c 0,0.347281 -0.43793,0.628809 -0.97815,0.628809 -0.54021,0 -0.97814,-0.281528 -0.97814,-0.628809 0,-0.347281 0.43793,-0.628808 0.97814,-0.628808 0.54022,0 0.97815,0.281527 0.97815,0.628808 z"
           sodipodi:ry="0.62880838"
           sodipodi:rx="0.97814637"
           sodipodi:cy="55.952484"
           sodipodi:cx="546.6441"
           id="path3976"
           style="fill:#000000;fill-opacity:1;stroke:#000000;stroke-linejoin:miter"
           sodipodi:type="arc" />
        <path
           transform="translate(3.7728502,735.17472)"
           d="m 547.62225,55.952484 c 0,0.347281 -0.43793,0.628809 -0.97815,0.628809 -0.54021,0 -0.97814,-0.281528 -0.97814,-0.628809 0,-0.347281 0.43793,-0.628808 0.97814,-0.628808 0.54022,0 0.97815,0.281527 0.97815,0.628808 z"
           sodipodi:ry="0.62880838"
           sodipodi:rx="0.97814637"
           sodipodi:cy="55.952484"
           sodipodi:cx="546.6441"
           id="path3978"
           style="fill:#000000;fill-opacity:1;stroke:#000000;stroke-linejoin:miter"
           sodipodi:type="arc" />
        <path
           transform="translate(8.663582,735.03498)"
           d="m 547.62225,55.952484 c 0,0.347281 -0.43793,0.628809 -0.97815,0.628809 -0.54021,0 -0.97814,-0.281528 -0.97814,-0.628809 0,-0.347281 0.43793,-0.628808 0.97814,-0.628808 0.54022,0 0.97815,0.281527 0.97815,0.628808 z"
           sodipodi:ry="0.62880838"
           sodipodi:rx="0.97814637"
           sodipodi:cy="55.952484"
           sodipodi:cx="546.6441"
           id="path3980"
           style="fill:#000000;fill-opacity:1;stroke:#000000;stroke-linejoin:miter"
           sodipodi:type="arc" />
        <path
           sodipodi:type="arc"
           style="fill:#000000;fill-opacity:1;stroke:#000000;stroke-linejoin:miter"
           id="path3982"
           sodipodi:cx="546.6441"
           sodipodi:cy="55.952484"
           sodipodi:rx="0.97814637"
           sodipodi:ry="0.62880838"
           d="m 547.62225,55.952484 c 0,0.347281 -0.43793,0.628809 -0.97815,0.628809 -0.54021,0 -0.97814,-0.281528 -0.97814,-0.628809 0,-0.347281 0.43793,-0.628808 0.97814,-0.628808 0.54022,0 0.97815,0.281527 0.97815,0.628808 z"
           transform="translate(2.7947039,737.27075)" />
      </g>
      <g
         transform="matrix(0.98398855,0.1782317,-0.1782317,0.98398855,106.95103,-60.46885)"
         id="g3955">
        <path
           sodipodi:type="arc"
           style="fill:#ff912e;fill-opacity:1;stroke:#000000"
           id="path3937"
           sodipodi:cx="544.82751"
           sodipodi:cy="40.022675"
           sodipodi:rx="12.576167"
           sodipodi:ry="3.0043066"
           d="m 557.40368,40.022675 c 0,1.659232 -5.63054,3.004306 -12.57617,3.004306 -6.94562,0 -12.57616,-1.345074 -12.57616,-3.004306 0,-1.659233 5.63054,-3.004307 12.57616,-3.004307 6.94563,0 12.57617,1.345074 12.57617,3.004307 z"
           transform="translate(0,752.36215)" />
        <path
           sodipodi:type="arc"
           style="fill:#000000;fill-opacity:1;stroke:#000000;stroke-linejoin:miter"
           id="path3943"
           sodipodi:cx="546.6441"
           sodipodi:cy="55.952484"
           sodipodi:rx="0.97814637"
           sodipodi:ry="0.62880838"
           d="m 547.62225,55.952484 c 0,0.347281 -0.43793,0.628809 -0.97815,0.628809 -0.54021,0 -0.97814,-0.281528 -0.97814,-0.628809 0,-0.347281 0.43793,-0.628808 0.97814,-0.628808 0.54022,0 0.97815,0.281527 0.97815,0.628808 z"
           transform="translate(-7.1264948,736.85154)" />
        <path
           sodipodi:type="arc"
           style="fill:#000000;fill-opacity:1;stroke:#000000;stroke-linejoin:miter"
           id="path3945"
           sodipodi:cx="546.6441"
           sodipodi:cy="55.952484"
           sodipodi:rx="0.97814637"
           sodipodi:ry="0.62880838"
           d="m 547.62225,55.952484 c 0,0.347281 -0.43793,0.628809 -0.97815,0.628809 -0.54021,0 -0.97814,-0.281528 -0.97814,-0.628809 0,-0.347281 0.43793,-0.628808 0.97814,-0.628808 0.54022,0 0.97815,0.281527 0.97815,0.628808 z"
           transform="translate(-4.7509966,736.15287)" />
        <path
           sodipodi:type="arc"
           style="fill:#000000;fill-opacity:1;stroke:#000000;stroke-linejoin:miter"
           id="path3947"
           sodipodi:cx="546.6441"
           sodipodi:cy="55.952484"
           sodipodi:rx="0.97814637"
           sodipodi:ry="0.62880838"
           d="m 547.62225,55.952484 c 0,0.347281 -0.43793,0.628809 -0.97815,0.628809 -0.54021,0 -0.97814,-0.281528 -0.97814,-0.628809 0,-0.347281 0.43793,-0.628808 0.97814,-0.628808 0.54022,0 0.97815,0.281527 0.97815,0.628808 z"
           transform="translate(-0.83841117,734.33631)" />
        <path
           sodipodi:type="arc"
           style="fill:#000000;fill-opacity:1;stroke:#000000;stroke-linejoin:miter"
           id="path3949"
           sodipodi:cx="546.6441"
           sodipodi:cy="55.952484"
           sodipodi:rx="0.97814637"
           sodipodi:ry="0.62880838"
           d="m 547.62225,55.952484 c 0,0.347281 -0.43793,0.628809 -0.97815,0.628809 -0.54021,0 -0.97814,-0.281528 -0.97814,-0.628809 0,-0.347281 0.43793,-0.628808 0.97814,-0.628808 0.54022,0 0.97815,0.281527 0.97815,0.628808 z"
           transform="translate(-0.2794704,736.15287)" />
        <path
           sodipodi:type="arc"
           style="fill:#000000;fill-opacity:1;stroke:#000000;stroke-linejoin:miter"
           id="path3951"
           sodipodi:cx="546.6441"
           sodipodi:cy="55.952484"
           sodipodi:rx="0.97814637"
           sodipodi:ry="0.62880838"
           d="m 547.62225,55.952484 c 0,0.347281 -0.43793,0.628809 -0.97815,0.628809 -0.54021,0 -0.97814,-0.281528 -0.97814,-0.628809 0,-0.347281 0.43793,-0.628808 0.97814,-0.628808 0.54022,0 0.97815,0.281527 0.97815,0.628808 z"
           transform="translate(3.7728502,735.17472)" />
        <path
           sodipodi:type="arc"
           style="fill:#000000;fill-opacity:1;stroke:#000000;stroke-linejoin:miter"
           id="path3953"
           sodipodi:cx="546.6441"
           sodipodi:cy="55.952484"
           sodipodi:rx="0.97814637"
           sodipodi:ry="0.62880838"
           d="m 547.62225,55.952484 c 0,0.347281 -0.43793,0.628809 -0.97815,0.628809 -0.54021,0 -0.97814,-0.281528 -0.97814,-0.628809 0,-0.347281 0.43793,-0.628808 0.97814,-0.628808 0.54022,0 0.97815,0.281527 0.97815,0.628808 z"
           transform="translate(8.663582,735.03498)" />
        <path
           transform="translate(2.7947039,737.27075)"
           d="m 547.62225,55.952484 c 0,0.347281 -0.43793,0.628809 -0.97815,0.628809 -0.54021,0 -0.97814,-0.281528 -0.97814,-0.628809 0,-0.347281 0.43793,-0.628808 0.97814,-0.628808 0.54022,0 0.97815,0.281527 0.97815,0.628808 z"
           sodipodi:ry="0.62880838"
           sodipodi:rx="0.97814637"
           sodipodi:cy="55.952484"
           sodipodi:cx="546.6441"
           id="path3941"
           style="fill:#000000;fill-opacity:1;stroke:#000000;stroke-linejoin:miter"
           sodipodi:type="arc" />
      </g>
      <g
         transform="translate(-0.06544226,-0.4577564)"
         id="g3886">
        <path
           id="path3882"
           d="m 514.15863,775.74649 c 0,3.19675 -10.6643,5.78822 -23.81939,5.78822 -13.15509,0 -23.8194,-2.59147 -23.8194,-5.78822 0,-2.20862 5.09045,-4.12831 12.57581,-5.10406 3.34895,-0.43655 7.53563,-7.49297 11.60195,-7.49297 4.47803,0 8.30908,7.10909 11.88747,7.63132 6.93386,1.01191 11.57356,2.85714 11.57356,4.96571 z"
           style="fill:#eaeaea;fill-opacity:0.53333285;stroke:#000000;stroke-width:0.84488219"
           inkscape:connector-curvature="0"
           sodipodi:nodetypes="sssssss" />
        <path
           style="fill:none;stroke:#000000;stroke-width:1px;stroke-linecap:butt;stroke-linejoin:miter;stroke-opacity:1"
           d="m 485.93432,17.97175 c 2.36172,-3.489693 5.87785,-6.155293 10.03403,0.17918 0.43183,1.846754 -1.5161,3.822425 -4.65865,3.404406"
           id="path3884"
           inkscape:connector-curvature="0"
           transform="translate(0,752.36215)"
           sodipodi:nodetypes="ccc" />
      </g>
      <g
         id="g3984"
         transform="matrix(0.98325806,-0.18221854,0.18221854,0.98325806,-187.33223,131.67087)">
        <path
           transform="translate(0,752.36215)"
           d="m 557.40368,40.022675 c 0,1.659232 -5.63054,3.004306 -12.57617,3.004306 -6.94562,0 -12.57616,-1.345074 -12.57616,-3.004306 0,-1.659233 5.63054,-3.004307 12.57616,-3.004307 6.94563,0 12.57617,1.345074 12.57617,3.004307 z"
           sodipodi:ry="3.0043066"
           sodipodi:rx="12.576167"
           sodipodi:cy="40.022675"
           sodipodi:cx="544.82751"
           id="path3986"
           style="fill:#ff912e;fill-opacity:1;stroke:#000000"
           sodipodi:type="arc" />
        <path
           transform="translate(-7.1264948,736.85154)"
           d="m 547.62225,55.952484 c 0,0.347281 -0.43793,0.628809 -0.97815,0.628809 -0.54021,0 -0.97814,-0.281528 -0.97814,-0.628809 0,-0.347281 0.43793,-0.628808 0.97814,-0.628808 0.54022,0 0.97815,0.281527 0.97815,0.628808 z"
           sodipodi:ry="0.62880838"
           sodipodi:rx="0.97814637"
           sodipodi:cy="55.952484"
           sodipodi:cx="546.6441"
           id="path3988"
           style="fill:#000000;fill-opacity:1;stroke:#000000;stroke-linejoin:miter"
           sodipodi:type="arc" />
        <path
           transform="translate(-4.7509966,736.15287)"
           d="m 547.62225,55.952484 c 0,0.347281 -0.43793,0.628809 -0.97815,0.628809 -0.54021,0 -0.97814,-0.281528 -0.97814,-0.628809 0,-0.347281 0.43793,-0.628808 0.97814,-0.628808 0.54022,0 0.97815,0.281527 0.97815,0.628808 z"
           sodipodi:ry="0.62880838"
           sodipodi:rx="0.97814637"
           sodipodi:cy="55.952484"
           sodipodi:cx="546.6441"
           id="path3990"
           style="fill:#000000;fill-opacity:1;stroke:#000000;stroke-linejoin:miter"
           sodipodi:type="arc" />
        <path
           transform="translate(-0.83841117,734.33631)"
           d="m 547.62225,55.952484 c 0,0.347281 -0.43793,0.628809 -0.97815,0.628809 -0.54021,0 -0.97814,-0.281528 -0.97814,-0.628809 0,-0.347281 0.43793,-0.628808 0.97814,-0.628808 0.54022,0 0.97815,0.281527 0.97815,0.628808 z"
           sodipodi:ry="0.62880838"
           sodipodi:rx="0.97814637"
           sodipodi:cy="55.952484"
           sodipodi:cx="546.6441"
           id="path3992"
           style="fill:#000000;fill-opacity:1;stroke:#000000;stroke-linejoin:miter"
           sodipodi:type="arc" />
        <path
           transform="translate(-0.2794704,736.15287)"
           d="m 547.62225,55.952484 c 0,0.347281 -0.43793,0.628809 -0.97815,0.628809 -0.54021,0 -0.97814,-0.281528 -0.97814,-0.628809 0,-0.347281 0.43793,-0.628808 0.97814,-0.628808 0.54022,0 0.97815,0.281527 0.97815,0.628808 z"
           sodipodi:ry="0.62880838"
           sodipodi:rx="0.97814637"
           sodipodi:cy="55.952484"
           sodipodi:cx="546.6441"
           id="path3994"
           style="fill:#000000;fill-opacity:1;stroke:#000000;stroke-linejoin:miter"
           sodipodi:type="arc" />
        <path
           transform="translate(3.7728502,735.17472)"
           d="m 547.62225,55.952484 c 0,0.347281 -0.43793,0.628809 -0.97815,0.628809 -0.54021,0 -0.97814,-0.281528 -0.97814,-0.628809 0,-0.347281 0.43793,-0.628808 0.97814,-0.628808 0.54022,0 0.97815,0.281527 0.97815,0.628808 z"
           sodipodi:ry="0.62880838"
           sodipodi:rx="0.97814637"
           sodipodi:cy="55.952484"
           sodipodi:cx="546.6441"
           id="path3996"
           style="fill:#000000;fill-opacity:1;stroke:#000000;stroke-linejoin:miter"
           sodipodi:type="arc" />
        <path
           transform="translate(8.663582,735.03498)"
           d="m 547.62225,55.952484 c 0,0.347281 -0.43793,0.628809 -0.97815,0.628809 -0.54021,0 -0.97814,-0.281528 -0.97814,-0.628809 0,-0.347281 0.43793,-0.628808 0.97814,-0.628808 0.54022,0 0.97815,0.281527 0.97815,0.628808 z"
           sodipodi:ry="0.62880838"
           sodipodi:rx="0.97814637"
           sodipodi:cy="55.952484"
           sodipodi:cx="546.6441"
           id="path3998"
           style="fill:#000000;fill-opacity:1;stroke:#000000;stroke-linejoin:miter"
           sodipodi:type="arc" />
        <path
           sodipodi:type="arc"
           style="fill:#000000;fill-opacity:1;stroke:#000000;stroke-linejoin:miter"
           id="path4000"
           sodipodi:cx="546.6441"
           sodipodi:cy="55.952484"
           sodipodi:rx="0.97814637"
           sodipodi:ry="0.62880838"
           d="m 547.62225,55.952484 c 0,0.347281 -0.43793,0.628809 -0.97815,0.628809 -0.54021,0 -0.97814,-0.281528 -0.97814,-0.628809 0,-0.347281 0.43793,-0.628808 0.97814,-0.628808 0.54022,0 0.97815,0.281527 0.97815,0.628808 z"
           transform="translate(2.7947039,737.27075)" />
      </g>
      <g
         transform="matrix(0.78734072,0.61651812,-0.61651812,0.78734072,563.43287,-150.02882)"
         id="g4002">
        <path
           sodipodi:type="arc"
           style="fill:#ff912e;fill-opacity:1;stroke:#000000"
           id="path4004"
           sodipodi:cx="544.82751"
           sodipodi:cy="40.022675"
           sodipodi:rx="12.576167"
           sodipodi:ry="3.0043066"
           d="m 557.40368,40.022675 c 0,1.659232 -5.63054,3.004306 -12.57617,3.004306 -6.94562,0 -12.57616,-1.345074 -12.57616,-3.004306 0,-1.659233 5.63054,-3.004307 12.57616,-3.004307 6.94563,0 12.57617,1.345074 12.57617,3.004307 z"
           transform="translate(0,752.36215)" />
        <path
           sodipodi:type="arc"
           style="fill:#000000;fill-opacity:1;stroke:#000000;stroke-linejoin:miter"
           id="path4006"
           sodipodi:cx="546.6441"
           sodipodi:cy="55.952484"
           sodipodi:rx="0.97814637"
           sodipodi:ry="0.62880838"
           d="m 547.62225,55.952484 c 0,0.347281 -0.43793,0.628809 -0.97815,0.628809 -0.54021,0 -0.97814,-0.281528 -0.97814,-0.628809 0,-0.347281 0.43793,-0.628808 0.97814,-0.628808 0.54022,0 0.97815,0.281527 0.97815,0.628808 z"
           transform="translate(-7.1264948,736.85154)" />
        <path
           sodipodi:type="arc"
           style="fill:#000000;fill-opacity:1;stroke:#000000;stroke-linejoin:miter"
           id="path4008"
           sodipodi:cx="546.6441"
           sodipodi:cy="55.952484"
           sodipodi:rx="0.97814637"
           sodipodi:ry="0.62880838"
           d="m 547.62225,55.952484 c 0,0.347281 -0.43793,0.628809 -0.97815,0.628809 -0.54021,0 -0.97814,-0.281528 -0.97814,-0.628809 0,-0.347281 0.43793,-0.628808 0.97814,-0.628808 0.54022,0 0.97815,0.281527 0.97815,0.628808 z"
           transform="translate(-4.7509966,736.15287)" />
        <path
           sodipodi:type="arc"
           style="fill:#000000;fill-opacity:1;stroke:#000000;stroke-linejoin:miter"
           id="path4010"
           sodipodi:cx="546.6441"
           sodipodi:cy="55.952484"
           sodipodi:rx="0.97814637"
           sodipodi:ry="0.62880838"
           d="m 547.62225,55.952484 c 0,0.347281 -0.43793,0.628809 -0.97815,0.628809 -0.54021,0 -0.97814,-0.281528 -0.97814,-0.628809 0,-0.347281 0.43793,-0.628808 0.97814,-0.628808 0.54022,0 0.97815,0.281527 0.97815,0.628808 z"
           transform="translate(-0.83841117,734.33631)" />
        <path
           sodipodi:type="arc"
           style="fill:#000000;fill-opacity:1;stroke:#000000;stroke-linejoin:miter"
           id="path4012"
           sodipodi:cx="546.6441"
           sodipodi:cy="55.952484"
           sodipodi:rx="0.97814637"
           sodipodi:ry="0.62880838"
           d="m 547.62225,55.952484 c 0,0.347281 -0.43793,0.628809 -0.97815,0.628809 -0.54021,0 -0.97814,-0.281528 -0.97814,-0.628809 0,-0.347281 0.43793,-0.628808 0.97814,-0.628808 0.54022,0 0.97815,0.281527 0.97815,0.628808 z"
           transform="translate(-0.2794704,736.15287)" />
        <path
           sodipodi:type="arc"
           style="fill:#000000;fill-opacity:1;stroke:#000000;stroke-linejoin:miter"
           id="path4014"
           sodipodi:cx="546.6441"
           sodipodi:cy="55.952484"
           sodipodi:rx="0.97814637"
           sodipodi:ry="0.62880838"
           d="m 547.62225,55.952484 c 0,0.347281 -0.43793,0.628809 -0.97815,0.628809 -0.54021,0 -0.97814,-0.281528 -0.97814,-0.628809 0,-0.347281 0.43793,-0.628808 0.97814,-0.628808 0.54022,0 0.97815,0.281527 0.97815,0.628808 z"
           transform="translate(3.7728502,735.17472)" />
        <path
           sodipodi:type="arc"
           style="fill:#000000;fill-opacity:1;stroke:#000000;stroke-linejoin:miter"
           id="path4016"
           sodipodi:cx="546.6441"
           sodipodi:cy="55.952484"
           sodipodi:rx="0.97814637"
           sodipodi:ry="0.62880838"
           d="m 547.62225,55.952484 c 0,0.347281 -0.43793,0.628809 -0.97815,0.628809 -0.54021,0 -0.97814,-0.281528 -0.97814,-0.628809 0,-0.347281 0.43793,-0.628808 0.97814,-0.628808 0.54022,0 0.97815,0.281527 0.97815,0.628808 z"
           transform="translate(8.663582,735.03498)" />
        <path
           transform="translate(2.7947039,737.27075)"
           d="m 547.62225,55.952484 c 0,0.347281 -0.43793,0.628809 -0.97815,0.628809 -0.54021,0 -0.97814,-0.281528 -0.97814,-0.628809 0,-0.347281 0.43793,-0.628808 0.97814,-0.628808 0.54022,0 0.97815,0.281527 0.97815,0.628808 z"
           sodipodi:ry="0.62880838"
           sodipodi:rx="0.97814637"
           sodipodi:cy="55.952484"
           sodipodi:cx="546.6441"
           id="path4018"
           style="fill:#000000;fill-opacity:1;stroke:#000000;stroke-linejoin:miter"
           sodipodi:type="arc" />
      </g>
      <g
         id="g4020"
         transform="matrix(0.95408965,-0.29952118,0.29952118,0.95408965,-273.91168,218.27553)">
        <path
           transform="translate(0,752.36215)"
           d="m 557.40368,40.022675 c 0,1.659232 -5.63054,3.004306 -12.57617,3.004306 -6.94562,0 -12.57616,-1.345074 -12.57616,-3.004306 0,-1.659233 5.63054,-3.004307 12.57616,-3.004307 6.94563,0 12.57617,1.345074 12.57617,3.004307 z"
           sodipodi:ry="3.0043066"
           sodipodi:rx="12.576167"
           sodipodi:cy="40.022675"
           sodipodi:cx="544.82751"
           id="path4022"
           style="fill:#ff912e;fill-opacity:1;stroke:#000000"
           sodipodi:type="arc" />
        <path
           transform="translate(-7.1264948,736.85154)"
           d="m 547.62225,55.952484 c 0,0.347281 -0.43793,0.628809 -0.97815,0.628809 -0.54021,0 -0.97814,-0.281528 -0.97814,-0.628809 0,-0.347281 0.43793,-0.628808 0.97814,-0.628808 0.54022,0 0.97815,0.281527 0.97815,0.628808 z"
           sodipodi:ry="0.62880838"
           sodipodi:rx="0.97814637"
           sodipodi:cy="55.952484"
           sodipodi:cx="546.6441"
           id="path4024"
           style="fill:#000000;fill-opacity:1;stroke:#000000;stroke-linejoin:miter"
           sodipodi:type="arc" />
        <path
           transform="translate(-4.7509966,736.15287)"
           d="m 547.62225,55.952484 c 0,0.347281 -0.43793,0.628809 -0.97815,0.628809 -0.54021,0 -0.97814,-0.281528 -0.97814,-0.628809 0,-0.347281 0.43793,-0.628808 0.97814,-0.628808 0.54022,0 0.97815,0.281527 0.97815,0.628808 z"
           sodipodi:ry="0.62880838"
           sodipodi:rx="0.97814637"
           sodipodi:cy="55.952484"
           sodipodi:cx="546.6441"
           id="path4026"
           style="fill:#000000;fill-opacity:1;stroke:#000000;stroke-linejoin:miter"
           sodipodi:type="arc" />
        <path
           transform="translate(-0.83841117,734.33631)"
           d="m 547.62225,55.952484 c 0,0.347281 -0.43793,0.628809 -0.97815,0.628809 -0.54021,0 -0.97814,-0.281528 -0.97814,-0.628809 0,-0.347281 0.43793,-0.628808 0.97814,-0.628808 0.54022,0 0.97815,0.281527 0.97815,0.628808 z"
           sodipodi:ry="0.62880838"
           sodipodi:rx="0.97814637"
           sodipodi:cy="55.952484"
           sodipodi:cx="546.6441"
           id="path4028"
           style="fill:#000000;fill-opacity:1;stroke:#000000;stroke-linejoin:miter"
           sodipodi:type="arc" />
        <path
           transform="translate(-0.2794704,736.15287)"
           d="m 547.62225,55.952484 c 0,0.347281 -0.43793,0.628809 -0.97815,0.628809 -0.54021,0 -0.97814,-0.281528 -0.97814,-0.628809 0,-0.347281 0.43793,-0.628808 0.97814,-0.628808 0.54022,0 0.97815,0.281527 0.97815,0.628808 z"
           sodipodi:ry="0.62880838"
           sodipodi:rx="0.97814637"
           sodipodi:cy="55.952484"
           sodipodi:cx="546.6441"
           id="path4030"
           style="fill:#000000;fill-opacity:1;stroke:#000000;stroke-linejoin:miter"
           sodipodi:type="arc" />
        <path
           transform="translate(3.7728502,735.17472)"
           d="m 547.62225,55.952484 c 0,0.347281 -0.43793,0.628809 -0.97815,0.628809 -0.54021,0 -0.97814,-0.281528 -0.97814,-0.628809 0,-0.347281 0.43793,-0.628808 0.97814,-0.628808 0.54022,0 0.97815,0.281527 0.97815,0.628808 z"
           sodipodi:ry="0.62880838"
           sodipodi:rx="0.97814637"
           sodipodi:cy="55.952484"
           sodipodi:cx="546.6441"
           id="path4032"
           style="fill:#000000;fill-opacity:1;stroke:#000000;stroke-linejoin:miter"
           sodipodi:type="arc" />
        <path
           transform="translate(8.663582,735.03498)"
           d="m 547.62225,55.952484 c 0,0.347281 -0.43793,0.628809 -0.97815,0.628809 -0.54021,0 -0.97814,-0.281528 -0.97814,-0.628809 0,-0.347281 0.43793,-0.628808 0.97814,-0.628808 0.54022,0 0.97815,0.281527 0.97815,0.628808 z"
           sodipodi:ry="0.62880838"
           sodipodi:rx="0.97814637"
           sodipodi:cy="55.952484"
           sodipodi:cx="546.6441"
           id="path4034"
           style="fill:#000000;fill-opacity:1;stroke:#000000;stroke-linejoin:miter"
           sodipodi:type="arc" />
        <path
           sodipodi:type="arc"
           style="fill:#000000;fill-opacity:1;stroke:#000000;stroke-linejoin:miter"
           id="path4036"
           sodipodi:cx="546.6441"
           sodipodi:cy="55.952484"
           sodipodi:rx="0.97814637"
           sodipodi:ry="0.62880838"
           d="m 547.62225,55.952484 c 0,0.347281 -0.43793,0.628809 -0.97815,0.628809 -0.54021,0 -0.97814,-0.281528 -0.97814,-0.628809 0,-0.347281 0.43793,-0.628808 0.97814,-0.628808 0.54022,0 0.97815,0.281527 0.97815,0.628808 z"
           transform="translate(2.7947039,737.27075)" />
      </g>
      <g
         transform="matrix(0.98622201,-0.16542718,0.16542718,0.98622201,-176.51201,112.61728)"
         id="g4038">
        <path
           sodipodi:type="arc"
           style="fill:#ff912e;fill-opacity:1;stroke:#000000"
           id="path4040"
           sodipodi:cx="544.82751"
           sodipodi:cy="40.022675"
           sodipodi:rx="12.576167"
           sodipodi:ry="3.0043066"
           d="m 557.40368,40.022675 c 0,1.659232 -5.63054,3.004306 -12.57617,3.004306 -6.94562,0 -12.57616,-1.345074 -12.57616,-3.004306 0,-1.659233 5.63054,-3.004307 12.57616,-3.004307 6.94563,0 12.57617,1.345074 12.57617,3.004307 z"
           transform="translate(0,752.36215)" />
        <path
           sodipodi:type="arc"
           style="fill:#000000;fill-opacity:1;stroke:#000000;stroke-linejoin:miter"
           id="path4042"
           sodipodi:cx="546.6441"
           sodipodi:cy="55.952484"
           sodipodi:rx="0.97814637"
           sodipodi:ry="0.62880838"
           d="m 547.62225,55.952484 c 0,0.347281 -0.43793,0.628809 -0.97815,0.628809 -0.54021,0 -0.97814,-0.281528 -0.97814,-0.628809 0,-0.347281 0.43793,-0.628808 0.97814,-0.628808 0.54022,0 0.97815,0.281527 0.97815,0.628808 z"
           transform="translate(-7.1264948,736.85154)" />
        <path
           sodipodi:type="arc"
           style="fill:#000000;fill-opacity:1;stroke:#000000;stroke-linejoin:miter"
           id="path4044"
           sodipodi:cx="546.6441"
           sodipodi:cy="55.952484"
           sodipodi:rx="0.97814637"
           sodipodi:ry="0.62880838"
           d="m 547.62225,55.952484 c 0,0.347281 -0.43793,0.628809 -0.97815,0.628809 -0.54021,0 -0.97814,-0.281528 -0.97814,-0.628809 0,-0.347281 0.43793,-0.628808 0.97814,-0.628808 0.54022,0 0.97815,0.281527 0.97815,0.628808 z"
           transform="translate(-4.7509966,736.15287)" />
        <path
           sodipodi:type="arc"
           style="fill:#000000;fill-opacity:1;stroke:#000000;stroke-linejoin:miter"
           id="path4046"
           sodipodi:cx="546.6441"
           sodipodi:cy="55.952484"
           sodipodi:rx="0.97814637"
           sodipodi:ry="0.62880838"
           d="m 547.62225,55.952484 c 0,0.347281 -0.43793,0.628809 -0.97815,0.628809 -0.54021,0 -0.97814,-0.281528 -0.97814,-0.628809 0,-0.347281 0.43793,-0.628808 0.97814,-0.628808 0.54022,0 0.97815,0.281527 0.97815,0.628808 z"
           transform="translate(-0.83841117,734.33631)" />
        <path
           sodipodi:type="arc"
           style="fill:#000000;fill-opacity:1;stroke:#000000;stroke-linejoin:miter"
           id="path4048"
           sodipodi:cx="546.6441"
           sodipodi:cy="55.952484"
           sodipodi:rx="0.97814637"
           sodipodi:ry="0.62880838"
           d="m 547.62225,55.952484 c 0,0.347281 -0.43793,0.628809 -0.97815,0.628809 -0.54021,0 -0.97814,-0.281528 -0.97814,-0.628809 0,-0.347281 0.43793,-0.628808 0.97814,-0.628808 0.54022,0 0.97815,0.281527 0.97815,0.628808 z"
           transform="translate(-0.2794704,736.15287)" />
        <path
           sodipodi:type="arc"
           style="fill:#000000;fill-opacity:1;stroke:#000000;stroke-linejoin:miter"
           id="path4050"
           sodipodi:cx="546.6441"
           sodipodi:cy="55.952484"
           sodipodi:rx="0.97814637"
           sodipodi:ry="0.62880838"
           d="m 547.62225,55.952484 c 0,0.347281 -0.43793,0.628809 -0.97815,0.628809 -0.54021,0 -0.97814,-0.281528 -0.97814,-0.628809 0,-0.347281 0.43793,-0.628808 0.97814,-0.628808 0.54022,0 0.97815,0.281527 0.97815,0.628808 z"
           transform="translate(3.7728502,735.17472)" />
        <path
           sodipodi:type="arc"
           style="fill:#000000;fill-opacity:1;stroke:#000000;stroke-linejoin:miter"
           id="path4052"
           sodipodi:cx="546.6441"
           sodipodi:cy="55.952484"
           sodipodi:rx="0.97814637"
           sodipodi:ry="0.62880838"
           d="m 547.62225,55.952484 c 0,0.347281 -0.43793,0.628809 -0.97815,0.628809 -0.54021,0 -0.97814,-0.281528 -0.97814,-0.628809 0,-0.347281 0.43793,-0.628808 0.97814,-0.628808 0.54022,0 0.97815,0.281527 0.97815,0.628808 z"
           transform="translate(8.663582,735.03498)" />
        <path
           transform="translate(2.7947039,737.27075)"
           d="m 547.62225,55.952484 c 0,0.347281 -0.43793,0.628809 -0.97815,0.628809 -0.54021,0 -0.97814,-0.281528 -0.97814,-0.628809 0,-0.347281 0.43793,-0.628808 0.97814,-0.628808 0.54022,0 0.97815,0.281527 0.97815,0.628808 z"
           sodipodi:ry="0.62880838"
           sodipodi:rx="0.97814637"
           sodipodi:cy="55.952484"
           sodipodi:cx="546.6441"
           id="path4054"
           style="fill:#000000;fill-opacity:1;stroke:#000000;stroke-linejoin:miter"
           sodipodi:type="arc" />
      </g>
      <g
         id="g4056"
         transform="matrix(0.49213795,-0.87051723,0.87051723,0.49213795,-482.94256,893.0657)">
        <path
           transform="translate(0,752.36215)"
           d="m 557.40368,40.022675 c 0,1.659232 -5.63054,3.004306 -12.57617,3.004306 -6.94562,0 -12.57616,-1.345074 -12.57616,-3.004306 0,-1.659233 5.63054,-3.004307 12.57616,-3.004307 6.94563,0 12.57617,1.345074 12.57617,3.004307 z"
           sodipodi:ry="3.0043066"
           sodipodi:rx="12.576167"
           sodipodi:cy="40.022675"
           sodipodi:cx="544.82751"
           id="path4058"
           style="fill:#ff912e;fill-opacity:1;stroke:#000000"
           sodipodi:type="arc" />
        <path
           transform="translate(-7.1264948,736.85154)"
           d="m 547.62225,55.952484 c 0,0.347281 -0.43793,0.628809 -0.97815,0.628809 -0.54021,0 -0.97814,-0.281528 -0.97814,-0.628809 0,-0.347281 0.43793,-0.628808 0.97814,-0.628808 0.54022,0 0.97815,0.281527 0.97815,0.628808 z"
           sodipodi:ry="0.62880838"
           sodipodi:rx="0.97814637"
           sodipodi:cy="55.952484"
           sodipodi:cx="546.6441"
           id="path4060"
           style="fill:#000000;fill-opacity:1;stroke:#000000;stroke-linejoin:miter"
           sodipodi:type="arc" />
        <path
           transform="translate(-4.7509966,736.15287)"
           d="m 547.62225,55.952484 c 0,0.347281 -0.43793,0.628809 -0.97815,0.628809 -0.54021,0 -0.97814,-0.281528 -0.97814,-0.628809 0,-0.347281 0.43793,-0.628808 0.97814,-0.628808 0.54022,0 0.97815,0.281527 0.97815,0.628808 z"
           sodipodi:ry="0.62880838"
           sodipodi:rx="0.97814637"
           sodipodi:cy="55.952484"
           sodipodi:cx="546.6441"
           id="path4062"
           style="fill:#000000;fill-opacity:1;stroke:#000000;stroke-linejoin:miter"
           sodipodi:type="arc" />
        <path
           transform="translate(-0.83841117,734.33631)"
           d="m 547.62225,55.952484 c 0,0.347281 -0.43793,0.628809 -0.97815,0.628809 -0.54021,0 -0.97814,-0.281528 -0.97814,-0.628809 0,-0.347281 0.43793,-0.628808 0.97814,-0.628808 0.54022,0 0.97815,0.281527 0.97815,0.628808 z"
           sodipodi:ry="0.62880838"
           sodipodi:rx="0.97814637"
           sodipodi:cy="55.952484"
           sodipodi:cx="546.6441"
           id="path4064"
           style="fill:#000000;fill-opacity:1;stroke:#000000;stroke-linejoin:miter"
           sodipodi:type="arc" />
        <path
           transform="translate(-0.2794704,736.15287)"
           d="m 547.62225,55.952484 c 0,0.347281 -0.43793,0.628809 -0.97815,0.628809 -0.54021,0 -0.97814,-0.281528 -0.97814,-0.628809 0,-0.347281 0.43793,-0.628808 0.97814,-0.628808 0.54022,0 0.97815,0.281527 0.97815,0.628808 z"
           sodipodi:ry="0.62880838"
           sodipodi:rx="0.97814637"
           sodipodi:cy="55.952484"
           sodipodi:cx="546.6441"
           id="path4066"
           style="fill:#000000;fill-opacity:1;stroke:#000000;stroke-linejoin:miter"
           sodipodi:type="arc" />
        <path
           transform="translate(3.7728502,735.17472)"
           d="m 547.62225,55.952484 c 0,0.347281 -0.43793,0.628809 -0.97815,0.628809 -0.54021,0 -0.97814,-0.281528 -0.97814,-0.628809 0,-0.347281 0.43793,-0.628808 0.97814,-0.628808 0.54022,0 0.97815,0.281527 0.97815,0.628808 z"
           sodipodi:ry="0.62880838"
           sodipodi:rx="0.97814637"
           sodipodi:cy="55.952484"
           sodipodi:cx="546.6441"
           id="path4068"
           style="fill:#000000;fill-opacity:1;stroke:#000000;stroke-linejoin:miter"
           sodipodi:type="arc" />
        <path
           transform="translate(8.663582,735.03498)"
           d="m 547.62225,55.952484 c 0,0.347281 -0.43793,0.628809 -0.97815,0.628809 -0.54021,0 -0.97814,-0.281528 -0.97814,-0.628809 0,-0.347281 0.43793,-0.628808 0.97814,-0.628808 0.54022,0 0.97815,0.281527 0.97815,0.628808 z"
           sodipodi:ry="0.62880838"
           sodipodi:rx="0.97814637"
           sodipodi:cy="55.952484"
           sodipodi:cx="546.6441"
           id="path4070"
           style="fill:#000000;fill-opacity:1;stroke:#000000;stroke-linejoin:miter"
           sodipodi:type="arc" />
        <path
           sodipodi:type="arc"
           style="fill:#000000;fill-opacity:1;stroke:#000000;stroke-linejoin:miter"
           id="path4072"
           sodipodi:cx="546.6441"
           sodipodi:cy="55.952484"
           sodipodi:rx="0.97814637"
           sodipodi:ry="0.62880838"
           d="m 547.62225,55.952484 c 0,0.347281 -0.43793,0.628809 -0.97815,0.628809 -0.54021,0 -0.97814,-0.281528 -0.97814,-0.628809 0,-0.347281 0.43793,-0.628808 0.97814,-0.628808 0.54022,0 0.97815,0.281527 0.97815,0.628808 z"
           transform="translate(2.7947039,737.27075)" />
      </g>
      <g
         id="g3923">
        <path
           sodipodi:nodetypes="csc"
           inkscape:connector-curvature="0"
           style="fill:none;stroke:#000000;stroke-width:0.84488219"
           d="m 467.26558,820.46321 c 0,-3.19675 10.66431,-5.78822 23.8194,-5.78822 13.15509,0 23.81939,2.59147 23.81939,5.78822"
           id="path3872" />
        <g
           id="g3906"
           transform="translate(-53.579631,-2.7167173)">
          <path
             style="fill:#ececec;fill-opacity:0.54117647;stroke:none"
             d="m 543.82519,784.1373 c -13.15509,0 -23.8194,-2.59148 -24.0728,-5.15319 -3.49167,12.78384 -7.03083,24.7822 0.7602,42.5524 0.50679,3.55688 11.1711,6.14836 24.32619,6.14836 13.15509,0 23.81939,-2.59148 24.07279,-6.14836 5.30093,-14.88827 5.00389,-29.41641 -1.01359,-43.56599 -0.2534,3.5753 -10.9177,6.16678 -24.07279,6.16678 z"
             id="path3914"
             inkscape:connector-curvature="0"
             sodipodi:nodetypes="sccsccs" />
        </g>
        <g
           id="g3896"
           style="stroke:none">
          <path
             inkscape:connector-curvature="0"
             transform="matrix(1,0,0,0.71382589,168.25615,742.33865)"
             style="fill:none;stroke:none"
             d="m 346.64822,109.44484 c 0,4.47833 -10.6643,8.10873 -23.81939,8.10873 -13.15509,0 -23.8194,-3.6304 -23.8194,-8.10873 0,-4.47833 10.66431,-8.10873 23.8194,-8.10873 13.15509,0 23.81939,3.6304 23.81939,8.10873 z"
             id="path3898" />
          <path
             style="fill:none;stroke:none"
             d="M 466.252,67.380797 C 458.96776,49.970728 462.50692,37.972361 465.7452,25.823554"
             id="path3900"
             inkscape:connector-curvature="0"
             transform="translate(0,752.36215)"
             sodipodi:nodetypes="cc" />
          <path
             style="fill:none;stroke:none"
             d="m 514.39758,23.796372 c 5.76408,14.528142 6.06112,29.056283 1.01359,43.584425"
             id="path3902"
             inkscape:connector-curvature="0"
             transform="translate(0,752.36215)"
             sodipodi:nodetypes="cc" />
          <path
             transform="matrix(1,0,0,0.71382589,167.24256,698.79108)"
             style="fill:none;stroke:none"
             d="m 346.64822,109.44484 c 0,4.47833 -10.6643,8.10873 -23.81939,8.10873 -13.15509,0 -23.8194,-3.6304 -23.8194,-8.10873"
             id="path3904"
             inkscape:connector-curvature="0"
             sodipodi:nodetypes="csc" />
        </g>
        <path
           style="fill:none;stroke:#000000;stroke-width:1px;stroke-linecap:butt;stroke-linejoin:miter;stroke-opacity:1"
           d="m 466.252,819.74295 c -7.28424,-17.41007 -3.74508,-29.40844 -0.5068,-41.55725"
           id="path3874"
           inkscape:connector-curvature="0"
           sodipodi:nodetypes="cc" />
        <path
           style="fill:none;stroke:#000000;stroke-width:1px;stroke-linecap:butt;stroke-linejoin:miter;stroke-opacity:1"
           d="m 514.39758,776.15852 c 5.76408,14.52814 6.06112,29.05629 1.01359,43.58443"
           id="path3876"
           inkscape:connector-curvature="0"
           sodipodi:nodetypes="cc" />
        <path
           style="fill:none;stroke:#000000;stroke-width:0.84488219"
           d="m 513.89078,776.91564 c 0,3.19675 -10.6643,5.78822 -23.81939,5.78822 -13.15509,0 -23.8194,-2.59147 -23.8194,-5.78822"
           id="path3878"
           inkscape:connector-curvature="0"
           sodipodi:nodetypes="csc" />
        <path
           sodipodi:nodetypes="csc"
           inkscape:connector-curvature="0"
           id="path3916"
           d="m 514.90437,820.46321 c 0,3.19675 -10.6643,5.78822 -23.81939,5.78822 -13.15509,0 -23.8194,-2.59147 -23.8194,-5.78822"
           style="fill:none;stroke:#000000;stroke-width:0.84488219" />
      </g>
    </g>
  </g>
</svg>
