<?xml version="1.0" encoding="UTF-8" standalone="no"?>
<!-- Created with Inkscape (http://www.inkscape.org/) -->

<svg
   xmlns:dc="http://purl.org/dc/elements/1.1/"
   xmlns:cc="http://creativecommons.org/ns#"
   xmlns:rdf="http://www.w3.org/1999/02/22-rdf-syntax-ns#"
   xmlns:svg="http://www.w3.org/2000/svg"
   xmlns="http://www.w3.org/2000/svg"
   xmlns:sodipodi="http://sodipodi.sourceforge.net/DTD/sodipodi-0.dtd"
   xmlns:inkscape="http://www.inkscape.org/namespaces/inkscape"
   width="600"
   height="300"
   id="svg2"
   version="1.1"
   inkscape:version="0.48.2 r9819"
   sodipodi:docname="tutorial2-3-2.svg"
   inkscape:export-filename="/Users/barbarakohler/Documents/workspace/ggj14/app/assets/images/tutorial3.png"
   inkscape:export-xdpi="56.949234"
   inkscape:export-ydpi="56.949234">
  <defs
     id="defs4" />
  <sodipodi:namedview
     id="base"
     pagecolor="#ffffff"
     bordercolor="#666666"
     borderopacity="1.0"
     inkscape:pageopacity="0.0"
     inkscape:pageshadow="2"
     inkscape:zoom="1"
     inkscape:cx="449.50213"
     inkscape:cy="183.97637"
     inkscape:document-units="px"
     inkscape:current-layer="layer1"
     showgrid="false"
     inkscape:window-width="1280"
     inkscape:window-height="709"
     inkscape:window-x="0"
     inkscape:window-y="0"
     inkscape:window-maximized="1" />
  <metadata
     id="metadata7">
    <rdf:RDF>
      <cc:Work
         rdf:about="">
        <dc:format>image/svg+xml</dc:format>
        <dc:type
           rdf:resource="http://purl.org/dc/dcmitype/StillImage" />
        <dc:title />
      </cc:Work>
    </rdf:RDF>
  </metadata>
  <g
     inkscape:label="Layer 1"
     inkscape:groupmode="layer"
     id="layer1"
     transform="translate(0,-752.36218)">
    <path
       sodipodi:type="arc"
       style="fill:#07f500;fill-opacity:1;fill-rule:nonzero;stroke:#016c01;stroke-width:13;stroke-linecap:round;stroke-linejoin:miter;stroke-miterlimit:4;stroke-opacity:1;stroke-dasharray:none;stroke-dashoffset:0"
       id="path2985"
       sodipodi:cx="397.14285"
       sodipodi:cy="343.79074"
       sodipodi:rx="134.28572"
       sodipodi:ry="134.28572"
       d="m 531.42857,343.79074 a 134.28572,134.28572 0 1 1 -268.57144,0 134.28572,134.28572 0 1 1 268.57144,0 z"
       transform="matrix(0.28403973,0,0,0.28403973,177.15195,827.31769)" />
    <g
       id="g3839"
       transform="matrix(0.28403973,0,0,0.28403973,176.26419,827.31769)">
      <path
         transform="matrix(1.178731,0,0,1.178731,-83.44262,-70.277934)"
         d="m 391.42858,332.36218 c 0,15.77957 -12.79187,28.57143 -28.57143,28.57143 -15.77957,0 -28.57143,-12.79186 -28.57143,-28.57143 0,-15.77956 12.79186,-28.57143 28.57143,-28.57143 15.77956,0 28.57143,12.79187 28.57143,28.57143 z"
         sodipodi:ry="28.571428"
         sodipodi:rx="28.571428"
         sodipodi:cy="332.36218"
         sodipodi:cx="362.85715"
         id="path3763"
         style="fill:#016c01;fill-opacity:1;fill-rule:nonzero;stroke:#016c01;stroke-width:13;stroke-linecap:round;stroke-linejoin:miter;stroke-miterlimit:4;stroke-opacity:1;stroke-dasharray:none;stroke-dashoffset:0"
         sodipodi:type="arc" />
      <path
         transform="matrix(0.83333334,0,0,-0.83333334,57.073616,586.1645)"
         d="m 378.8072,329.09296 c 0,13.3894 -10.85426,24.24366 -24.24366,24.24366 -13.38941,0 -24.24366,-10.85426 -24.24366,-24.24366 0,-13.38941 10.85425,-24.24367 24.24366,-24.24367 13.3894,0 24.24366,10.85426 24.24366,24.24367 z"
         sodipodi:ry="24.243662"
         sodipodi:rx="24.243662"
         sodipodi:cy="329.09296"
         sodipodi:cx="354.56354"
         id="path3819"
         style="fill:#ffffff;fill-opacity:1;fill-rule:nonzero;stroke:none"
         sodipodi:type="arc" />
    </g>
    <path
       transform="matrix(-0.33480644,0,0,0.33480644,427.34945,807.35596)"
       d="m 391.42858,332.36218 a 28.571428,28.571428 0 1 1 -57.14286,0 28.571428,28.571428 0 1 1 57.14286,0 z"
       sodipodi:ry="28.571428"
       sodipodi:rx="28.571428"
       sodipodi:cy="332.36218"
       sodipodi:cx="362.85715"
       id="path3847"
       style="fill:#016c01;fill-opacity:1;fill-rule:nonzero;stroke:#016c01;stroke-width:13;stroke-linecap:round;stroke-linejoin:miter;stroke-miterlimit:4;stroke-opacity:1;stroke-dasharray:none;stroke-dashoffset:0"
       sodipodi:type="arc" />
    <path
       transform="matrix(-0.23669978,0,0,-0.23669978,391.4138,993.24362)"
       d="m 378.8072,329.09296 a 24.243662,24.243662 0 1 1 -48.48732,0 24.243662,24.243662 0 1 1 48.48732,0 z"
       sodipodi:ry="24.243662"
       sodipodi:rx="24.243662"
       sodipodi:cy="329.09296"
       sodipodi:cx="354.56354"
       id="path3849"
       style="fill:#ffffff;fill-opacity:1;fill-rule:nonzero;stroke:none"
       sodipodi:type="arc" />
    <path
       sodipodi:type="arc"
       style="opacity:0.36637932;fill:none;stroke:#000000;stroke-width:4;stroke-linecap:round;stroke-linejoin:miter;stroke-miterlimit:4;stroke-opacity:1;stroke-dasharray:none;stroke-dashoffset:0"
       id="path3973"
       sodipodi:cx="275.5"
       sodipodi:cy="236.86218"
       sodipodi:rx="18.5"
       sodipodi:ry="18.5"
       d="m 294,236.86218 a 18.5,18.5 0 1 1 -37,0 18.5,18.5 0 1 1 37,0 z"
       transform="matrix(0.28403973,0,0,0.28403973,229.6993,810.2753)" />
    <path
       transform="matrix(0.38795673,0,0,0.38795673,206.51638,767.90535)"
       d="m 294,236.86218 a 18.5,18.5 0 1 1 -37,0 18.5,18.5 0 1 1 37,0 z"
       sodipodi:ry="18.5"
       sodipodi:rx="18.5"
       sodipodi:cy="236.86218"
       sodipodi:cx="275.5"
       id="path3975"
       style="opacity:0.36637932;fill:none;stroke:#000000;stroke-width:4;stroke-linecap:round;stroke-linejoin:miter;stroke-miterlimit:4;stroke-opacity:1;stroke-dasharray:none;stroke-dashoffset:0"
       sodipodi:type="arc" />
    <g
       id="g4099"
       transform="matrix(0.37619376,0,0,0.37619376,151.13157,646.84056)">
      <g
         transform="matrix(1.42579,0,0,1.4121699,-169.40519,176.38976)"
         id="g3996">
        <path
           inkscape:connector-curvature="0"
           id="path3977"
           transform="matrix(0.70136556,0,0,0.70813009,120.2177,96.029692)"
           d="m 542.90625,40.96875 c -34.10969,0 -61.75,27.403651 -61.75,61.1875 0,4.60114 0.52775,9.06419 1.5,13.375 -28.46972,5.45111 -49.96875,30.27248 -49.96875,60.0625 0,33.78385 27.64031,61.15625 61.75,61.15625 19.63523,0 37.12516,-9.07206 48.4375,-23.21875 20.04466,10.85624 47.54109,17.5625 77.875,17.5625 61.34125,0 111.0625,-27.3724 111.0625,-61.15625 0,-13.01914 -7.41159,-25.08202 -20,-35 2.35359,-5.88218 3.625,-12.14955 3.625,-18.65625 0,-33.783849 -34.24701,-61.1875 -76.5,-61.1875 -17.01577,0 -32.73118,4.456517 -45.4375,11.96875 C 582.32977,51.287388 563.83719,40.96875 542.90625,40.96875 z"
           style="opacity:0.36637932;fill:#ffffff;fill-opacity:1;stroke:#000000;stroke-width:6;stroke-linecap:round;stroke-linejoin:miter;stroke-miterlimit:4;stroke-opacity:1;stroke-dasharray:none;stroke-dashoffset:0" />
      </g>
      <g
         transform="translate(2,312)"
         id="g4090"
         style="opacity:0.46551729">
        <path
           inkscape:connector-curvature="0"
           style="fill:#000000;fill-opacity:0.76888888;fill-rule:nonzero;stroke:#000000;stroke-width:5.88411331;stroke-linecap:round;stroke-linejoin:miter;stroke-miterlimit:4;stroke-opacity:1;stroke-dasharray:none;stroke-dashoffset:0"
           d="m 578.09375,79.9375 c -23.71463,0 -44.26444,13.597334 -54.28125,33.40625 14.44081,-3.10247 33.09501,-4.96875 53.53125,-4.96875 21.22086,0 40.53303,2.02446 55.1875,5.34375 C 622.58496,93.706733 601.95751,79.9375 578.09375,79.9375 z m 60.6875,63.96875 c -15.17286,4.24545 -37.04973,6.90625 -61.4375,6.90625 -23.62066,0 -44.83791,-2.51721 -59.9375,-6.53125 1.8463,31.90836 28.31635,57.21875 60.6875,57.21875 32.4983,0 59.02835,-25.50828 60.6875,-57.59375 z"
           id="path4004" />
        <path
           d="m 531.42857,343.79074 c 0,74.16396 -60.12176,134.28572 -134.28572,134.28572 -74.16395,0 -134.28572,-60.12176 -134.28572,-134.28572 0,-74.16395 60.12177,-134.28572 134.28572,-134.28572 74.16396,0 134.28572,60.12177 134.28572,134.28572 z"
           sodipodi:ry="134.28572"
           sodipodi:rx="134.28572"
           sodipodi:cy="343.79074"
           sodipodi:cx="397.14285"
           id="path4008"
           style="fill:#3b3b3b;fill-opacity:1;fill-rule:nonzero;stroke:#000000;stroke-width:39.11236191;stroke-linecap:round;stroke-linejoin:miter;stroke-miterlimit:4;stroke-opacity:1;stroke-dasharray:none;stroke-dashoffset:0"
           sodipodi:type="arc"
           transform="matrix(0.14754795,0,0,0.14754795,462.19471,144.90807)" />
        <path
           transform="matrix(0.14754795,0,0,0.14754795,586.06704,132.46248)"
           sodipodi:type="arc"
           style="fill:#3b3b3b;fill-opacity:1;fill-rule:nonzero;stroke:#000000;stroke-width:39.11236191;stroke-linecap:round;stroke-linejoin:miter;stroke-miterlimit:4;stroke-opacity:1;stroke-dasharray:none;stroke-dashoffset:0"
           id="path4010"
           sodipodi:cx="397.14285"
           sodipodi:cy="343.79074"
           sodipodi:rx="134.28572"
           sodipodi:ry="134.28572"
           d="m 531.42857,343.79074 c 0,74.16396 -60.12176,134.28572 -134.28572,134.28572 -74.16395,0 -134.28572,-60.12176 -134.28572,-134.28572 0,-74.16395 60.12177,-134.28572 134.28572,-134.28572 74.16396,0 134.28572,60.12177 134.28572,134.28572 z" />
        <path
           sodipodi:type="arc"
           style="fill:#000000;fill-opacity:1;fill-rule:nonzero;stroke:#000000;stroke-width:13;stroke-linecap:round;stroke-linejoin:miter;stroke-miterlimit:4;stroke-opacity:1;stroke-dasharray:none;stroke-dashoffset:0"
           id="path4018"
           sodipodi:cx="362.85715"
           sodipodi:cy="332.36218"
           sodipodi:rx="28.571428"
           sodipodi:ry="28.571428"
           d="m 391.42858,332.36218 c 0,15.77957 -12.79187,28.57143 -28.57143,28.57143 -15.77957,0 -28.57143,-12.79186 -28.57143,-28.57143 0,-15.77956 12.79186,-28.57143 28.57143,-28.57143 15.77956,0 28.57143,12.79187 28.57143,28.57143 z"
           transform="matrix(0.53352207,0,0,0.53352207,359.1409,-46.689435)" />
        <path
           sodipodi:type="arc"
           style="fill:#ffffff;fill-opacity:1;fill-rule:nonzero;stroke:none"
           id="path4020"
           sodipodi:cx="354.56354"
           sodipodi:cy="329.09296"
           sodipodi:rx="24.243662"
           sodipodi:ry="24.243662"
           d="m 378.8072,329.09296 c 0,13.3894 -10.85426,24.24366 -24.24366,24.24366 -13.38941,0 -24.24366,-10.85426 -24.24366,-24.24366 0,-13.38941 10.85425,-24.24367 24.24366,-24.24367 13.3894,0 24.24366,10.85426 24.24366,24.24367 z"
           transform="matrix(0.37718676,0,0,-0.37718676,418.85284,254.67488)" />
        <path
           transform="matrix(-0.53352207,0,0,0.53352207,797.01939,-46.689435)"
           d="m 391.42858,332.36218 c 0,15.77957 -12.79187,28.57143 -28.57143,28.57143 -15.77957,0 -28.57143,-12.79186 -28.57143,-28.57143 0,-15.77956 12.79186,-28.57143 28.57143,-28.57143 15.77956,0 28.57143,12.79187 28.57143,28.57143 z"
           sodipodi:ry="28.571428"
           sodipodi:rx="28.571428"
           sodipodi:cy="332.36218"
           sodipodi:cx="362.85715"
           id="path4028"
           style="fill:#000000;fill-opacity:1;fill-rule:nonzero;stroke:#000000;stroke-width:13;stroke-linecap:round;stroke-linejoin:miter;stroke-miterlimit:4;stroke-opacity:1;stroke-dasharray:none;stroke-dashoffset:0"
           sodipodi:type="arc" />
        <path
           transform="matrix(-0.37718676,0,0,-0.37718676,737.66099,254.67488)"
           d="m 378.8072,329.09296 c 0,13.3894 -10.85426,24.24366 -24.24366,24.24366 -13.38941,0 -24.24366,-10.85426 -24.24366,-24.24366 0,-13.38941 10.85425,-24.24367 24.24366,-24.24367 13.3894,0 24.24366,10.85426 24.24366,24.24367 z"
           sodipodi:ry="24.243662"
           sodipodi:rx="24.243662"
           sodipodi:cy="329.09296"
           sodipodi:cx="354.56354"
           id="path4030"
           style="fill:#ffffff;fill-opacity:1;fill-rule:nonzero;stroke:none"
           sodipodi:type="arc" />
        <path
           sodipodi:type="arc"
           style="fill:#000000;fill-opacity:1;fill-rule:nonzero;stroke:#000000;stroke-width:4.5999999;stroke-linecap:round;stroke-linejoin:miter;stroke-miterlimit:4;stroke-opacity:1;stroke-dasharray:none;stroke-dashoffset:0"
           id="path3797"
           sodipodi:cx="612.35449"
           sodipodi:cy="-10.419312"
           sodipodi:rx="15.556349"
           sodipodi:ry="10.606602"
           d="m 627.91084,-10.419312 c 0,5.8578649 -6.96481,10.60660219 -15.55635,10.60660219 -8.59153,0 -15.55635,-4.74873729 -15.55635,-10.60660219 0,-5.857864 6.96482,-10.606601 15.55635,-10.606601 8.59154,0 15.55635,4.748737 15.55635,10.606601 z"
           transform="matrix(0.75503575,0,0,0.75503575,183.83165,188.02918)" />
        <path
           sodipodi:nodetypes="ccccc"
           inkscape:connector-curvature="0"
           id="path3799"
           d="m 638.7067,181.7639 11.7456,4.27113 61.93134,-158.031711 3.20335,-44.846832 z"
           style="fill:#e6e6e6;stroke:#000000;stroke-width:3.47316432;stroke-linecap:butt;stroke-linejoin:miter;stroke-miterlimit:4;stroke-opacity:1;stroke-dasharray:none" />
      </g>
    </g>
    <path
       transform="matrix(-0.28403973,0,0,0.28403973,356.53823,829.55656)"
       d="m 294,236.86218 a 18.5,18.5 0 1 1 -37,0 18.5,18.5 0 1 1 37,0 z"
       sodipodi:ry="18.5"
       sodipodi:rx="18.5"
       sodipodi:cy="236.86218"
       sodipodi:cx="275.5"
       id="path4054"
       style="fill:none;stroke:#000000;stroke-width:4;stroke-linecap:round;stroke-linejoin:miter;stroke-miterlimit:4;stroke-opacity:1;stroke-dasharray:none;stroke-dashoffset:0"
       sodipodi:type="arc" />
    <path
       sodipodi:type="arc"
       style="fill:none;stroke:#000000;stroke-width:4;stroke-linecap:round;stroke-linejoin:miter;stroke-miterlimit:4;stroke-opacity:1;stroke-dasharray:none;stroke-dashoffset:0"
       id="path4056"
       sodipodi:cx="275.5"
       sodipodi:cy="236.86218"
       sodipodi:rx="18.5"
       sodipodi:ry="18.5"
       d="m 294,236.86218 a 18.5,18.5 0 1 1 -37,0 18.5,18.5 0 1 1 37,0 z"
       transform="matrix(-0.38795673,0,0,0.38795673,372.08899,784.37476)" />
    <path
       style="fill:#ffffff;fill-opacity:1;stroke:#000000;stroke-width:2.25716257;stroke-linecap:round;stroke-linejoin:miter;stroke-miterlimit:4;stroke-opacity:1;stroke-dasharray:none;stroke-dashoffset:0"
       d="m 218.06485,798.50476 c 12.83185,0 23.22997,10.30909 23.22997,23.01836 0,1.73092 -0.19854,3.40989 -0.5643,5.03159 10.71013,2.05067 18.79794,11.38832 18.79794,22.59514 0,12.70927 -10.39811,23.0066 -23.22997,23.0066 -7.38665,0 -13.96625,-3.41285 -18.22189,-8.73475 -7.54066,4.08405 -17.88465,6.6069 -29.29608,6.6069 -23.07619,0 -41.78102,-10.29732 -41.78102,-23.0066 0,-4.89772 2.78819,-9.4357 7.52388,-13.16678 -0.88541,-2.21283 -1.36371,-4.57058 -1.36371,-7.01837 0,-12.70926 12.88352,-23.01835 28.77882,-23.01835 6.40123,0 12.31328,1.67651 17.09331,4.50257 4.20217,-5.9345 11.15896,-9.81631 19.03305,-9.81631 z"
       id="path4062"
       inkscape:connector-curvature="0" />
    <path
       transform="matrix(0.17549287,0,0,0.17549287,131.87061,777.04854)"
       d="m 531.42857,343.79074 a 134.28572,134.28572 0 1 1 -268.57144,0 134.28572,134.28572 0 1 1 268.57144,0 z"
       sodipodi:ry="134.28572"
       sodipodi:rx="134.28572"
       sodipodi:cy="343.79074"
       sodipodi:cx="397.14285"
       id="path4107"
       style="fill:#07f500;fill-opacity:1;fill-rule:nonzero;stroke:#016c01;stroke-width:13;stroke-linecap:round;stroke-linejoin:miter;stroke-miterlimit:4;stroke-opacity:1;stroke-dasharray:none;stroke-dashoffset:0"
       sodipodi:type="arc" />
    <g
       transform="matrix(0.17549287,0,0,0.17549287,131.32211,777.04854)"
       id="g4113">
      <path
         sodipodi:type="arc"
         style="fill:#016c01;fill-opacity:1;fill-rule:nonzero;stroke:#016c01;stroke-width:13;stroke-linecap:round;stroke-linejoin:miter;stroke-miterlimit:4;stroke-opacity:1;stroke-dasharray:none;stroke-dashoffset:0"
         id="path4115"
         sodipodi:cx="362.85715"
         sodipodi:cy="332.36218"
         sodipodi:rx="28.571428"
         sodipodi:ry="28.571428"
         d="m 391.42858,332.36218 c 0,15.77957 -12.79187,28.57143 -28.57143,28.57143 -15.77957,0 -28.57143,-12.79186 -28.57143,-28.57143 0,-15.77956 12.79186,-28.57143 28.57143,-28.57143 15.77956,0 28.57143,12.79187 28.57143,28.57143 z"
         transform="matrix(1.178731,0,0,1.178731,-83.44262,-70.277934)" />
      <path
         sodipodi:type="arc"
         style="fill:#ffffff;fill-opacity:1;fill-rule:nonzero;stroke:none"
         id="path4117"
         sodipodi:cx="354.56354"
         sodipodi:cy="329.09296"
         sodipodi:rx="24.243662"
         sodipodi:ry="24.243662"
         d="m 378.8072,329.09296 c 0,13.3894 -10.85426,24.24366 -24.24366,24.24366 -13.38941,0 -24.24366,-10.85426 -24.24366,-24.24366 0,-13.38941 10.85425,-24.24367 24.24366,-24.24367 13.3894,0 24.24366,10.85426 24.24366,24.24367 z"
         transform="matrix(0.83333334,0,0,-0.83333334,47.917852,599.89815)" />
    </g>
    <path
       sodipodi:type="arc"
       style="fill:#016c01;fill-opacity:1;fill-rule:nonzero;stroke:#016c01;stroke-width:13;stroke-linecap:round;stroke-linejoin:miter;stroke-miterlimit:4;stroke-opacity:1;stroke-dasharray:none;stroke-dashoffset:0"
       id="path4119"
       sodipodi:cx="362.85715"
       sodipodi:cy="332.36218"
       sodipodi:rx="28.571428"
       sodipodi:ry="28.571428"
       d="m 391.42858,332.36218 a 28.571428,28.571428 0 1 1 -57.14286,0 28.571428,28.571428 0 1 1 57.14286,0 z"
       transform="matrix(-0.20685889,0,0,0.20685889,286.45419,764.71525)" />
    <path
       sodipodi:type="arc"
       style="fill:#ffffff;fill-opacity:1;fill-rule:nonzero;stroke:none"
       id="path4121"
       sodipodi:cx="354.56354"
       sodipodi:cy="329.09296"
       sodipodi:rx="24.243662"
       sodipodi:ry="24.243662"
       d="m 378.8072,329.09296 a 24.243662,24.243662 0 1 1 -48.48732,0 24.243662,24.243662 0 1 1 48.48732,0 z"
       transform="matrix(-0.14624407,0,0,-0.14624407,263.04641,882.77878)" />
    <path
       transform="matrix(0.28403973,0,0,0.28403973,237.10799,768.2674)"
       d="m -104.65181,294.34372 a 21.213203,15.556349 0 1 1 -42.42641,0 21.213203,15.556349 0 1 1 42.42641,0 z"
       sodipodi:ry="15.556349"
       sodipodi:rx="21.213203"
       sodipodi:cy="294.34372"
       sodipodi:cx="-125.86501"
       id="path4637"
       style="fill:#016c01;fill-opacity:1;fill-rule:nonzero;stroke:#006400;stroke-width:2;stroke-linecap:round;stroke-linejoin:miter;stroke-miterlimit:4;stroke-opacity:1;stroke-dasharray:none;stroke-dashoffset:0"
       sodipodi:type="arc" />
    <path
       style="fill:#000000;stroke:#000000;stroke-width:0.28403974px;stroke-linecap:butt;stroke-linejoin:miter;stroke-opacity:1"
       d="m 205.60956,861.0831 1.60677,17.67448 3.61524,3.61525 4.01692,-4.01694 -2.41015,-18.47787 z"
       id="path4639"
       inkscape:connector-curvature="0" />
    <path
       sodipodi:type="arc"
       style="fill:#b3b3b3;fill-opacity:1;fill-rule:nonzero;stroke:#000000;stroke-width:2;stroke-linecap:round;stroke-linejoin:miter;stroke-miterlimit:4;stroke-opacity:1;stroke-dasharray:none;stroke-dashoffset:0"
       id="path4641"
       sodipodi:cx="-142.12846"
       sodipodi:cy="534.05292"
       sodipodi:rx="16.263456"
       sodipodi:ry="16.263456"
       d="m -125.86501,534.05292 a 16.263456,16.263456 0 1 1 -32.52691,0 16.263456,16.263456 0 1 1 32.52691,0 z"
       transform="matrix(0.41201588,0,0,0.41201588,267.14698,638.66321)" />
    <path
       transform="matrix(-0.0592569,0,0,-0.0592569,234.91536,848.82949)"
       d="m 378.8072,329.09296 a 24.243662,24.243662 0 1 1 -48.48732,0 24.243662,24.243662 0 1 1 48.48732,0 z"
       sodipodi:ry="24.243662"
       sodipodi:rx="24.243662"
       sodipodi:cy="329.09296"
       sodipodi:cx="354.56354"
       id="path4643"
       style="fill:#ffffff;fill-opacity:1;fill-rule:nonzero;stroke:none"
       sodipodi:type="arc" />
    <path
       sodipodi:type="arc"
       style="fill:#ffffff;fill-opacity:1;fill-rule:nonzero;stroke:none"
       id="path4645"
       sodipodi:cx="354.56354"
       sodipodi:cy="329.09296"
       sodipodi:rx="24.243662"
       sodipodi:ry="24.243662"
       d="m 378.8072,329.09296 a 24.243662,24.243662 0 1 1 -48.48732,0 24.243662,24.243662 0 1 1 48.48732,0 z"
       transform="matrix(-0.0592569,0,0,-0.0592569,236.32128,853.85065)" />
    <path
       transform="matrix(-0.0592569,0,0,-0.0592569,209.20702,852.04304)"
       d="m 378.8072,329.09296 a 24.243662,24.243662 0 1 1 -48.48732,0 24.243662,24.243662 0 1 1 48.48732,0 z"
       sodipodi:ry="24.243662"
       sodipodi:rx="24.243662"
       sodipodi:cy="329.09296"
       sodipodi:cx="354.56354"
       id="path4647"
       style="fill:#ffffff;fill-opacity:1;fill-rule:nonzero;stroke:none"
       sodipodi:type="arc" />
    <path
       sodipodi:type="arc"
       style="fill:#ffffff;fill-opacity:1;fill-rule:nonzero;stroke:none"
       id="path4649"
       sodipodi:cx="354.56354"
       sodipodi:cy="329.09296"
       sodipodi:rx="24.243662"
       sodipodi:ry="24.243662"
       d="m 378.8072,329.09296 a 24.243662,24.243662 0 1 1 -48.48732,0 24.243662,24.243662 0 1 1 48.48732,0 z"
       transform="matrix(-0.0592569,0,0,-0.0592569,212.6214,848.0261)" />
    <path
       sodipodi:type="arc"
       style="fill:#07f500;fill-opacity:1;fill-rule:nonzero;stroke:#006400;stroke-width:8;stroke-linecap:round;stroke-linejoin:miter;stroke-miterlimit:4;stroke-opacity:1;stroke-dasharray:none;stroke-dashoffset:0"
       id="path4709"
       sodipodi:cx="-118.08683"
       sodipodi:cy="381.31784"
       sodipodi:rx="26.162951"
       sodipodi:ry="26.162951"
       d="m -91.92388,381.31784 a 26.162951,26.162951 0 1 1 -52.3259,0 26.162951,26.162951 0 1 1 52.3259,0 z"
       transform="matrix(0.28403973,0,0,0.28403973,235.09953,767.86571)" />
    <path
       transform="matrix(0.28403973,0,0,0.28403973,253.1757,767.46402)"
       d="m -91.92388,381.31784 a 26.162951,26.162951 0 1 1 -52.3259,0 26.162951,26.162951 0 1 1 52.3259,0 z"
       sodipodi:ry="26.162951"
       sodipodi:rx="26.162951"
       sodipodi:cy="381.31784"
       sodipodi:cx="-118.08683"
       id="path4711"
       style="fill:#07f500;fill-opacity:1;fill-rule:nonzero;stroke:#006400;stroke-width:8;stroke-linecap:round;stroke-linejoin:miter;stroke-miterlimit:4;stroke-opacity:1;stroke-dasharray:none;stroke-dashoffset:0"
       sodipodi:type="arc" />
    <path
       transform="matrix(0.28403973,0,0,0.28403973,293.40348,837.00433)"
       d="m 531.42857,343.79074 a 134.28572,134.28572 0 1 1 -268.57144,0 134.28572,134.28572 0 1 1 268.57144,0 z"
       sodipodi:ry="134.28572"
       sodipodi:rx="134.28572"
       sodipodi:cy="343.79074"
       sodipodi:cx="397.14285"
       id="path3118"
       style="fill:#4ac0ff;fill-opacity:1;fill-rule:nonzero;stroke:#00008a;stroke-width:13;stroke-linecap:round;stroke-linejoin:miter;stroke-miterlimit:4;stroke-opacity:1;stroke-dasharray:none;stroke-dashoffset:0"
       sodipodi:type="arc" />
    <g
       transform="matrix(0.28403973,0,0,0.28403973,265.38245,835.39756)"
       id="g3120"
       style="fill:#4ac0ff;fill-opacity:1;stroke:#00008a;stroke-opacity:1">
      <path
         d="m 531.42857,343.79074 c 0,74.16396 -60.12176,134.28572 -134.28572,134.28572 -74.16395,0 -134.28572,-60.12176 -134.28572,-134.28572 0,-74.16395 60.12177,-134.28572 134.28572,-134.28572 74.16396,0 134.28572,60.12177 134.28572,134.28572 z"
         sodipodi:ry="134.28572"
         sodipodi:rx="134.28572"
         sodipodi:cy="343.79074"
         sodipodi:cx="397.14285"
         id="path3122"
         style="fill:#4ac0ff;fill-opacity:1;fill-rule:nonzero;stroke:#00008a;stroke-width:39.11236191;stroke-linecap:round;stroke-linejoin:miter;stroke-miterlimit:4;stroke-opacity:1;stroke-dasharray:none;stroke-dashoffset:0"
         sodipodi:type="arc"
         transform="matrix(0.32598341,0,0,0.32598341,217.68087,329.43494)" />
    </g>
    <path
       transform="matrix(0.33480644,0,0,0.33480644,268.81469,817.04261)"
       d="m 391.42858,332.36218 a 28.571428,28.571428 0 1 1 -57.14286,0 28.571428,28.571428 0 1 1 57.14286,0 z"
       sodipodi:ry="28.571428"
       sodipodi:rx="28.571428"
       sodipodi:cy="332.36218"
       sodipodi:cx="362.85715"
       id="path3126"
       style="fill:#00008a;fill-opacity:1;fill-rule:nonzero;stroke:#00008a;stroke-width:9.0130825;stroke-linecap:round;stroke-linejoin:miter;stroke-miterlimit:4;stroke-opacity:1;stroke-dasharray:none;stroke-dashoffset:0"
       sodipodi:type="arc" />
    <path
       transform="matrix(0.23669978,0,0,-0.23669978,307.9235,1006.3102)"
       d="m 378.8072,329.09296 a 24.243662,24.243662 0 1 1 -48.48732,0 24.243662,24.243662 0 1 1 48.48732,0 z"
       sodipodi:ry="24.243662"
       sodipodi:rx="24.243662"
       sodipodi:cy="329.09296"
       sodipodi:cx="354.56354"
       id="path3128"
       style="fill:#ffffff;fill-opacity:1;fill-rule:nonzero;stroke:none"
       sodipodi:type="arc" />
    <path
       sodipodi:type="arc"
       style="fill:#00008a;fill-opacity:1;fill-rule:nonzero;stroke:#00008a;stroke-width:9.0130825;stroke-linecap:round;stroke-linejoin:miter;stroke-miterlimit:4;stroke-opacity:1;stroke-dasharray:none;stroke-dashoffset:0"
       id="path3130"
       sodipodi:cx="362.85715"
       sodipodi:cy="332.36218"
       sodipodi:rx="28.571428"
       sodipodi:ry="28.571428"
       d="m 391.42858,332.36218 a 28.571428,28.571428 0 1 1 -57.14286,0 28.571428,28.571428 0 1 1 57.14286,0 z"
       transform="matrix(-0.33480644,0,0,0.33480644,543.60097,827.83611)" />
    <path
       sodipodi:type="arc"
       style="fill:#ffffff;fill-opacity:1;fill-rule:nonzero;stroke:none"
       id="path3132"
       sodipodi:cx="354.56354"
       sodipodi:cy="329.09296"
       sodipodi:rx="24.243662"
       sodipodi:ry="24.243662"
       d="m 378.8072,329.09296 a 24.243662,24.243662 0 1 1 -48.48732,0 24.243662,24.243662 0 1 1 48.48732,0 z"
       transform="matrix(-0.23669978,0,0,-0.23669978,504.85348,1018.1424)" />
    <g
       id="g3134"
       transform="matrix(0.28403973,0,0,0.28403973,305.15004,854.67881)"
       style="fill:#4ac0ff;fill-opacity:1;stroke:#00008a;stroke-opacity:1">
      <path
         transform="matrix(0.32598341,0,0,0.32598341,217.68087,329.43494)"
         sodipodi:type="arc"
         style="fill:#4ac0ff;fill-opacity:1;fill-rule:nonzero;stroke:#00008a;stroke-width:39.11236191;stroke-linecap:round;stroke-linejoin:miter;stroke-miterlimit:4;stroke-opacity:1;stroke-dasharray:none;stroke-dashoffset:0"
         id="path3136"
         sodipodi:cx="397.14285"
         sodipodi:cy="343.79074"
         sodipodi:rx="134.28572"
         sodipodi:ry="134.28572"
         d="m 531.42857,343.79074 c 0,74.16396 -60.12176,134.28572 -134.28572,134.28572 -74.16395,0 -134.28572,-60.12176 -134.28572,-134.28572 0,-74.16395 60.12177,-134.28572 134.28572,-134.28572 74.16396,0 134.28572,60.12177 134.28572,134.28572 z" />
    </g>
    <path
       transform="matrix(0.09259225,0,0,0.09259225,237.07097,926.91569)"
       sodipodi:type="arc"
       style="fill:#07f500;fill-opacity:1;fill-rule:nonzero;stroke:#016c01;stroke-width:39.11236191;stroke-linecap:round;stroke-linejoin:miter;stroke-miterlimit:4;stroke-opacity:1;stroke-dasharray:none;stroke-dashoffset:0"
       id="path5110"
       sodipodi:cx="397.14285"
       sodipodi:cy="343.79074"
       sodipodi:rx="134.28572"
       sodipodi:ry="134.28572"
       d="m 531.42857,343.79074 a 134.28572,134.28572 0 1 1 -268.57144,0 134.28572,134.28572 0 1 1 268.57144,0 z" />
    <rect
       style="fill:#f2f2f2;fill-opacity:1;fill-rule:nonzero;stroke:#676767;stroke-width:2.63711214;stroke-linecap:round;stroke-linejoin:miter;stroke-miterlimit:4;stroke-opacity:1;stroke-dasharray:none;stroke-dashoffset:0"
       id="rect3048"
       width="107.65369"
       height="77.799965"
       x="-1060.0013"
       y="788.0946"
       rx="21.575193"
       ry="16.443823"
       transform="matrix(-0.91727619,-0.39825167,-0.68796011,0.7257485,0,0)" />
    <g
       transform="matrix(0.4368111,-0.32058994,0.32058994,0.4368111,195.10202,770.66512)"
       id="g3827">
      <g
         transform="translate(28.255887,-31.907429)"
         id="g3829">
        <path
           inkscape:connector-curvature="0"
           id="path3831"
           d="m -38.769542,526.17422 5.65685,62.2254 12.727922,12.72792 14.1421352,-14.14214 -8.4852772,-65.05382 z"
           style="fill:#000000;stroke:#000000;stroke-width:1px;stroke-linecap:butt;stroke-linejoin:miter;stroke-opacity:1" />
        <path
           transform="matrix(1.4505572,0,0,1.4505572,177.8812,-256.88485)"
           d="m -125.86501,534.05292 c 0,8.98206 -7.28139,16.26345 -16.26345,16.26345 -8.98206,0 -16.26346,-7.28139 -16.26346,-16.26345 0,-8.98206 7.2814,-16.26346 16.26346,-16.26346 8.98206,0 16.26345,7.2814 16.26345,16.26346 z"
           sodipodi:ry="16.263456"
           sodipodi:rx="16.263456"
           sodipodi:cy="534.05292"
           sodipodi:cx="-142.12846"
           id="path3833"
           style="fill:#b3b3b3;fill-opacity:1;fill-rule:nonzero;stroke:#000000;stroke-width:2;stroke-linecap:round;stroke-linejoin:miter;stroke-miterlimit:4;stroke-opacity:1;stroke-dasharray:none;stroke-dashoffset:0"
           sodipodi:type="arc" />
      </g>
    </g>
    <g
       transform="matrix(0.28403973,0,0,0.28403973,478.12368,870.69908)"
       id="g3835">
      <g
         transform="matrix(0,-2.5276772,2.0163283,0,-1437.1424,1641.8141)"
         id="g3837">
        <path
           transform="matrix(0.75503575,0,0,0.75503575,-40.402528,544.66831)"
           d="m 627.91084,-10.419312 c 0,5.8578649 -6.96481,10.60660219 -15.55635,10.60660219 -8.59153,0 -15.55635,-4.74873729 -15.55635,-10.60660219 0,-5.857864 6.96482,-10.606601 15.55635,-10.606601 8.59154,0 15.55635,4.748737 15.55635,10.606601 z"
           sodipodi:ry="10.606602"
           sodipodi:rx="15.556349"
           sodipodi:cy="-10.419312"
           sodipodi:cx="612.35449"
           id="path3839"
           style="fill:#000000;fill-opacity:1;fill-rule:nonzero;stroke:#000000;stroke-width:4.5999999;stroke-linecap:round;stroke-linejoin:miter;stroke-miterlimit:4;stroke-opacity:1;stroke-dasharray:none;stroke-dashoffset:0"
           sodipodi:type="arc" />
        <path
           style="fill:#e6e6e6;stroke:#000000;stroke-width:3.47316432;stroke-linecap:butt;stroke-linejoin:miter;stroke-miterlimit:4;stroke-opacity:1;stroke-dasharray:none"
           d="m 414.47252,538.40303 11.7456,4.27113 61.93134,-158.03172 3.20335,-44.84683 z"
           id="path3841"
           inkscape:connector-curvature="0"
           sodipodi:nodetypes="ccccc" />
      </g>
      <path
         style="fill:#000000;fill-opacity:1;stroke:#000000;stroke-width:1px;stroke-linecap:butt;stroke-linejoin:miter;stroke-opacity:1"
         d="m -340.25408,570.27735 48.08325,24.04163 2.82843,12.02081 -8.48528,9.19239 -41.01219,-16.97056"
         id="path3843"
         inkscape:connector-curvature="0"
         sodipodi:nodetypes="ccccc" />
    </g>
    <path
       d="m 531.42857,343.79074 a 134.28572,134.28572 0 1 1 -268.57144,0 134.28572,134.28572 0 1 1 268.57144,0 z"
       sodipodi:ry="134.28572"
       sodipodi:rx="134.28572"
       sodipodi:cy="343.79074"
       sodipodi:cx="397.14285"
       id="path3848"
       style="fill:#07f500;fill-opacity:1;fill-rule:nonzero;stroke:#016c01;stroke-width:39.11236191;stroke-linecap:round;stroke-linejoin:miter;stroke-miterlimit:4;stroke-opacity:1;stroke-dasharray:none;stroke-dashoffset:0"
       sodipodi:type="arc"
       transform="matrix(0.09259225,0,0,0.09259225,298.12829,937.35971)" />
  </g>
</svg>
