<?xml version="1.0" encoding="UTF-8" standalone="no"?>
<!-- Created with Inkscape (http://www.inkscape.org/) -->

<svg
   xmlns:dc="http://purl.org/dc/elements/1.1/"
   xmlns:cc="http://creativecommons.org/ns#"
   xmlns:rdf="http://www.w3.org/1999/02/22-rdf-syntax-ns#"
   xmlns:svg="http://www.w3.org/2000/svg"
   xmlns="http://www.w3.org/2000/svg"
   xmlns:sodipodi="http://sodipodi.sourceforge.net/DTD/sodipodi-0.dtd"
   xmlns:inkscape="http://www.inkscape.org/namespaces/inkscape"
   width="600"
   height="400"
   id="svg2"
   version="1.1"
   inkscape:version="0.48.2 r9819"
   sodipodi:docname="wheelchair.svg"
   inkscape:export-filename="/Users/barbarakohler/Desktop/GlobalGameJam2014/pikmin.png"
   inkscape:export-xdpi="56.949234"
   inkscape:export-ydpi="56.949234">
  <defs
     id="defs4" />
  <sodipodi:namedview
     id="base"
     pagecolor="#ffffff"
     bordercolor="#666666"
     borderopacity="1.0"
     inkscape:pageopacity="0.0"
     inkscape:pageshadow="2"
     inkscape:zoom="0.70710678"
     inkscape:cx="305.55022"
     inkscape:cy="230.99583"
     inkscape:document-units="px"
     inkscape:current-layer="g6150"
     showgrid="false"
     inkscape:window-width="1093"
     inkscape:window-height="756"
     inkscape:window-x="46"
     inkscape:window-y="0"
     inkscape:window-maximized="0" />
  <metadata
     id="metadata7">
    <rdf:RDF>
      <cc:Work
         rdf:about="">
        <dc:format>image/svg+xml</dc:format>
        <dc:type
           rdf:resource="http://purl.org/dc/dcmitype/StillImage" />
        <dc:title />
      </cc:Work>
    </rdf:RDF>
  </metadata>
  <g
     inkscape:label="Layer 1"
     inkscape:groupmode="layer"
     id="layer1"
     transform="translate(0,-752.36218)">
    <g
       id="g4099"
       transform="matrix(1.3244406,0,0,1.3244406,-165.51281,-433.15635)" />
    <g
       id="g6150"
       transform="matrix(0.29422259,0,0,0.29422259,174.98136,244.8118)">
      <g
         id="g6091"
         transform="matrix(0.74233652,0,0,0.74233652,171.37482,1888.6362)"
         style="stroke-width:20.39272308;stroke-miterlimit:4;stroke-dasharray:none">
        <path
           transform="translate(-170.07107,-197.98484)"
           d="m 531.42857,343.79074 c 0,74.16396 -60.12176,134.28572 -134.28572,134.28572 -74.16395,0 -134.28572,-60.12176 -134.28572,-134.28572 0,-74.16395 60.12177,-134.28572 134.28572,-134.28572 74.16396,0 134.28572,60.12177 134.28572,134.28572 z"
           sodipodi:ry="134.28572"
           sodipodi:rx="134.28572"
           sodipodi:cy="343.79074"
           sodipodi:cx="397.14285"
           id="path6093"
           style="fill:#07f500;fill-opacity:1;fill-rule:nonzero;stroke:#016c01;stroke-width:20.39272308;stroke-linecap:round;stroke-linejoin:miter;stroke-miterlimit:4;stroke-opacity:1;stroke-dasharray:none;stroke-dashoffset:0"
           sodipodi:type="arc" />
        <path
           sodipodi:type="arc"
           style="fill:#016c01;fill-opacity:1;fill-rule:nonzero;stroke:#016c01;stroke-width:17.30057526;stroke-linecap:round;stroke-linejoin:miter;stroke-miterlimit:4;stroke-opacity:1;stroke-dasharray:none;stroke-dashoffset:0"
           id="path6095"
           sodipodi:cx="362.85715"
           sodipodi:cy="332.36218"
           sodipodi:rx="28.571428"
           sodipodi:ry="28.571428"
           d="m 391.42858,332.36218 c 0,15.77957 -12.79187,28.57143 -28.57143,28.57143 -15.77957,0 -28.57143,-12.79186 -28.57143,-28.57143 0,-15.77956 12.79186,-28.57143 28.57143,-28.57143 15.77956,0 28.57143,12.79187 28.57143,28.57143 z"
           transform="matrix(-1.178731,0,0,1.178731,631.58679,-256.94907)" />
        <path
           sodipodi:type="arc"
           style="fill:#ffffff;fill-opacity:1;fill-rule:nonzero;stroke:none"
           id="path6097"
           sodipodi:cx="354.56354"
           sodipodi:cy="329.09296"
           sodipodi:rx="24.243662"
           sodipodi:ry="24.243662"
           d="m 378.8072,329.09296 c 0,13.3894 -10.85426,24.24366 -24.24366,24.24366 -13.38941,0 -24.24366,-10.85426 -24.24366,-24.24366 0,-13.38941 10.85425,-24.24367 24.24366,-24.24367 13.3894,0 24.24366,10.85426 24.24366,24.24367 z"
           transform="matrix(-0.83333334,0,0,-0.83333334,506.48476,410.22129)" />
        <path
           transform="matrix(-1.178731,0,0,1.178731,731.99595,-272.50542)"
           d="m 391.42858,332.36218 c 0,15.77957 -12.79187,28.57143 -28.57143,28.57143 -15.77957,0 -28.57143,-12.79186 -28.57143,-28.57143 0,-15.77956 12.79186,-28.57143 28.57143,-28.57143 15.77956,0 28.57143,12.79187 28.57143,28.57143 z"
           sodipodi:ry="28.571428"
           sodipodi:rx="28.571428"
           sodipodi:cy="332.36218"
           sodipodi:cx="362.85715"
           id="path6099"
           style="fill:#016c01;fill-opacity:1;fill-rule:nonzero;stroke:#016c01;stroke-width:17.30057526;stroke-linecap:round;stroke-linejoin:miter;stroke-miterlimit:4;stroke-opacity:1;stroke-dasharray:none;stroke-dashoffset:0"
           sodipodi:type="arc" />
        <path
           transform="matrix(-0.83333334,0,0,-0.83333334,606.89392,394.66494)"
           d="m 378.8072,329.09296 c 0,13.3894 -10.85426,24.24366 -24.24366,24.24366 -13.38941,0 -24.24366,-10.85426 -24.24366,-24.24366 0,-13.38941 10.85425,-24.24367 24.24366,-24.24367 13.3894,0 24.24366,10.85426 24.24366,24.24367 z"
           sodipodi:ry="24.243662"
           sodipodi:rx="24.243662"
           sodipodi:cy="329.09296"
           sodipodi:cx="354.56354"
           id="path6101"
           style="fill:#ffffff;fill-opacity:1;fill-rule:nonzero;stroke:none"
           sodipodi:type="arc" />
      </g>
      <path
         transform="matrix(2.3294899,0,0,2.3294899,-540.81961,1776.921)"
         d="M 529.73255,322.51573 A 134.28572,134.28572 0 1 1 322.27199,232.31425"
         sodipodi:ry="134.28572"
         sodipodi:rx="134.28572"
         sodipodi:cy="343.79074"
         sodipodi:cx="397.14285"
         id="path6105"
         style="fill:none;stroke:#010001;stroke-width:21.66177177;stroke-linecap:round;stroke-linejoin:miter;stroke-miterlimit:4;stroke-opacity:1;stroke-dasharray:none;stroke-dashoffset:0"
         sodipodi:type="arc"
         sodipodi:start="6.124084"
         sodipodi:end="10.404144"
         sodipodi:open="true" />
      <g
         id="g6115"
         transform="matrix(1.2171965,0.7543536,-0.2285008,1.078533,552.9519,2005.2308)"
         style="stroke-width:12.4219532;stroke-miterlimit:4;stroke-dasharray:none">
        <path
           transform="matrix(0.32598341,0,0,0.32598341,217.68087,329.43494)"
           sodipodi:type="arc"
           style="fill:#07f500;fill-opacity:1;fill-rule:nonzero;stroke:#016c01;stroke-width:38.10609055;stroke-linecap:round;stroke-linejoin:miter;stroke-miterlimit:4;stroke-opacity:1;stroke-dasharray:none;stroke-dashoffset:0"
           id="path6117"
           sodipodi:cx="397.14285"
           sodipodi:cy="343.79074"
           sodipodi:rx="134.28572"
           sodipodi:ry="134.28572"
           d="m 531.42857,343.79074 c 0,74.16396 -60.12176,134.28572 -134.28572,134.28572 -74.16395,0 -134.28572,-60.12176 -134.28572,-134.28572 0,-74.16395 60.12177,-134.28572 134.28572,-134.28572 74.16396,0 134.28572,60.12177 134.28572,134.28572 z" />
      </g>
      <g
         transform="matrix(1.2171965,0.7543536,-0.2285008,1.078533,506.16786,2045.258)"
         id="g6119"
         style="stroke-width:12.4219532;stroke-miterlimit:4;stroke-dasharray:none">
        <path
           d="m 531.42857,343.79074 c 0,74.16396 -60.12176,134.28572 -134.28572,134.28572 -74.16395,0 -134.28572,-60.12176 -134.28572,-134.28572 0,-74.16395 60.12177,-134.28572 134.28572,-134.28572 74.16396,0 134.28572,60.12177 134.28572,134.28572 z"
           sodipodi:ry="134.28572"
           sodipodi:rx="134.28572"
           sodipodi:cy="343.79074"
           sodipodi:cx="397.14285"
           id="path6121"
           style="fill:#07f500;fill-opacity:1;fill-rule:nonzero;stroke:#016c01;stroke-width:38.10609055;stroke-linecap:round;stroke-linejoin:miter;stroke-miterlimit:4;stroke-opacity:1;stroke-dasharray:none;stroke-dashoffset:0"
           sodipodi:type="arc"
           transform="matrix(0.32598341,0,0,0.32598341,217.68087,329.43494)" />
      </g>
      <rect
         ry="19.104494"
         rx="0"
         y="2508.2056"
         x="314.9975"
         height="40.732033"
         width="385.77792"
         id="rect6138"
         style="fill:#000000;fill-opacity:1;stroke:#010001;stroke-width:13.9939394;stroke-linecap:round;stroke-linejoin:miter;stroke-miterlimit:4;stroke-opacity:1;stroke-dasharray:none;stroke-dashoffset:0" />
      <path
         sodipodi:type="arc"
         style="fill:#07f500;fill-opacity:1;fill-rule:nonzero;stroke:#016c01;stroke-width:15.03253651;stroke-linecap:round;stroke-linejoin:miter;stroke-miterlimit:4;stroke-opacity:1;stroke-dasharray:none;stroke-dashoffset:0"
         id="path6140"
         sodipodi:cx="397.14285"
         sodipodi:cy="343.79074"
         sodipodi:rx="134.28572"
         sodipodi:ry="134.28572"
         d="m 531.42857,343.79074 a 134.28572,134.28572 0 1 1 -268.57144,0 134.28572,134.28572 0 1 1 268.57144,0 z"
         transform="matrix(0.66884693,-0.19373416,0.24949348,1.4439485,33.981992,1896.8033)" />
      <g
         id="g6142"
         transform="matrix(1.3284797,0,0,1.3284797,-297.31617,1780.3506)"
         style="stroke-width:11.39517879;stroke-miterlimit:4;stroke-dasharray:none">
        <path
           transform="matrix(0.32598341,0,0,0.32598341,217.68087,329.43494)"
           sodipodi:type="arc"
           style="fill:#07f500;fill-opacity:1;fill-rule:nonzero;stroke:#016c01;stroke-width:34.95631409;stroke-linecap:round;stroke-linejoin:miter;stroke-miterlimit:4;stroke-opacity:1;stroke-dasharray:none;stroke-dashoffset:0"
           id="path6144"
           sodipodi:cx="397.14285"
           sodipodi:cy="343.79074"
           sodipodi:rx="134.28572"
           sodipodi:ry="134.28572"
           d="m 531.42857,343.79074 c 0,74.16396 -60.12176,134.28572 -134.28572,134.28572 -74.16395,0 -134.28572,-60.12176 -134.28572,-134.28572 0,-74.16395 60.12177,-134.28572 134.28572,-134.28572 74.16396,0 134.28572,60.12177 134.28572,134.28572 z" />
      </g>
      <g
         transform="matrix(1.3284797,0,0,1.3284797,213.30353,1676.2502)"
         id="g6146"
         style="stroke-width:11.39517879;stroke-miterlimit:4;stroke-dasharray:none">
        <path
           d="m 531.42857,343.79074 c 0,74.16396 -60.12176,134.28572 -134.28572,134.28572 -74.16395,0 -134.28572,-60.12176 -134.28572,-134.28572 0,-74.16395 60.12177,-134.28572 134.28572,-134.28572 74.16396,0 134.28572,60.12177 134.28572,134.28572 z"
           sodipodi:ry="134.28572"
           sodipodi:rx="134.28572"
           sodipodi:cy="343.79074"
           sodipodi:cx="397.14285"
           id="path6148"
           style="fill:#07f500;fill-opacity:1;fill-rule:nonzero;stroke:#016c01;stroke-width:34.95631409;stroke-linecap:round;stroke-linejoin:miter;stroke-miterlimit:4;stroke-opacity:1;stroke-dasharray:none;stroke-dashoffset:0"
           sodipodi:type="arc"
           transform="matrix(0.32598341,0,0,0.32598341,217.68087,329.43494)" />
      </g>
    </g>
  </g>
</svg>
