<?xml version="1.0" encoding="UTF-8" standalone="no"?>
<!-- Created with Inkscape (http://www.inkscape.org/) -->

<svg
   xmlns:dc="http://purl.org/dc/elements/1.1/"
   xmlns:cc="http://creativecommons.org/ns#"
   xmlns:rdf="http://www.w3.org/1999/02/22-rdf-syntax-ns#"
   xmlns:svg="http://www.w3.org/2000/svg"
   xmlns="http://www.w3.org/2000/svg"
   xmlns:sodipodi="http://sodipodi.sourceforge.net/DTD/sodipodi-0.dtd"
   xmlns:inkscape="http://www.inkscape.org/namespaces/inkscape"
   width="744.09448819"
   height="1052.3622047"
   id="svg2"
   version="1.1"
   inkscape:version="0.48.1 r9760"
   sodipodi:docname="nearly-deaf.svg"
   inkscape:export-filename="/Users/barbarakohler/Desktop/GlobalGameJam2014/pikmin.png"
   inkscape:export-xdpi="56.949234"
   inkscape:export-ydpi="56.949234">
  <defs
     id="defs4">
    <inkscape:perspective
       sodipodi:type="inkscape:persp3d"
       inkscape:vp_x="0 : 526.18109 : 1"
       inkscape:vp_y="0 : 1000 : 0"
       inkscape:vp_z="744.09448 : 526.18109 : 1"
       inkscape:persp3d-origin="372.04724 : 350.78739 : 1"
       id="perspective4397" />
  </defs>
  <sodipodi:namedview
     id="base"
     pagecolor="#ffffff"
     bordercolor="#666666"
     borderopacity="1.0"
     inkscape:pageopacity="0.0"
     inkscape:pageshadow="2"
     inkscape:zoom="0.70710678"
     inkscape:cx="-4.1896535"
     inkscape:cy="692.51382"
     inkscape:document-units="px"
     inkscape:current-layer="layer1"
     showgrid="false"
     inkscape:window-width="1287"
     inkscape:window-height="769"
     inkscape:window-x="64"
     inkscape:window-y="7"
     inkscape:window-maximized="0" />
  <metadata
     id="metadata7">
    <rdf:RDF>
      <cc:Work
         rdf:about="">
        <dc:format>image/svg+xml</dc:format>
        <dc:type
           rdf:resource="http://purl.org/dc/dcmitype/StillImage" />
        <dc:title />
      </cc:Work>
    </rdf:RDF>
  </metadata>
  <g
     inkscape:label="Layer 1"
     inkscape:groupmode="layer"
     id="layer1">
    <path
       sodipodi:type="arc"
       style="fill:#07f500;fill-opacity:1;fill-rule:nonzero;stroke:#016c01;stroke-width:13;stroke-linecap:round;stroke-linejoin:miter;stroke-miterlimit:4;stroke-opacity:1;stroke-dasharray:none;stroke-dashoffset:0"
       id="path2985"
       sodipodi:cx="397.14285"
       sodipodi:cy="343.79074"
       sodipodi:rx="134.28572"
       sodipodi:ry="134.28572"
       d="m 531.42857,343.79074 a 134.28572,134.28572 0 1 1 -268.57144,0 134.28572,134.28572 0 1 1 268.57144,0 z"
       transform="translate(-163,99)" />
    <g
       id="g3839"
       transform="translate(-134.46865,103.24264)">
      <path
         transform="matrix(1.178731,0,0,1.178731,-83.44262,-70.277934)"
         d="m 391.42858,332.36218 c 0,15.77957 -12.79187,28.57143 -28.57143,28.57143 -15.77957,0 -28.57143,-12.79186 -28.57143,-28.57143 0,-15.77956 12.79186,-28.57143 28.57143,-28.57143 15.77956,0 28.57143,12.79187 28.57143,28.57143 z"
         sodipodi:ry="28.571428"
         sodipodi:rx="28.571428"
         sodipodi:cy="332.36218"
         sodipodi:cx="362.85715"
         id="path3763"
         style="fill:#016c01;fill-opacity:1;fill-rule:nonzero;stroke:#016c01;stroke-width:13;stroke-linecap:round;stroke-linejoin:miter;stroke-miterlimit:4;stroke-opacity:1;stroke-dasharray:none;stroke-dashoffset:0"
         sodipodi:type="arc" />
      <path
         transform="matrix(0.83333334,0,0,-0.83333334,48.588335,596.06399)"
         d="m 378.8072,329.09296 c 0,13.3894 -10.85426,24.24366 -24.24366,24.24366 -13.38941,0 -24.24366,-10.85426 -24.24366,-24.24366 0,-13.38941 10.85425,-24.24367 24.24366,-24.24367 13.3894,0 24.24366,10.85426 24.24366,24.24367 z"
         sodipodi:ry="24.243662"
         sodipodi:rx="24.243662"
         sodipodi:cy="329.09296"
         sodipodi:cx="354.56354"
         id="path3819"
         style="fill:#ffffff;fill-opacity:1;fill-rule:nonzero;stroke:none"
         sodipodi:type="arc" />
    </g>
    <path
       transform="matrix(-1.178731,0,0,1.178731,743.85382,28.722066)"
       d="m 391.42858,332.36218 a 28.571428,28.571428 0 1 1 -57.14286,0 28.571428,28.571428 0 1 1 57.14286,0 z"
       sodipodi:ry="28.571428"
       sodipodi:rx="28.571428"
       sodipodi:cy="332.36218"
       sodipodi:cx="362.85715"
       id="path3847"
       style="fill:#016c01;fill-opacity:1;fill-rule:nonzero;stroke:#016c01;stroke-width:13;stroke-linecap:round;stroke-linejoin:miter;stroke-miterlimit:4;stroke-opacity:1;stroke-dasharray:none;stroke-dashoffset:0"
       sodipodi:type="arc" />
    <path
       transform="matrix(-0.83333334,0,0,-0.83333334,615.92337,695.89243)"
       d="m 378.8072,329.09296 a 24.243662,24.243662 0 1 1 -48.48732,0 24.243662,24.243662 0 1 1 48.48732,0 z"
       sodipodi:ry="24.243662"
       sodipodi:rx="24.243662"
       sodipodi:cy="329.09296"
       sodipodi:cx="354.56354"
       id="path3849"
       style="fill:#ffffff;fill-opacity:1;fill-rule:nonzero;stroke:none"
       sodipodi:type="arc" />
    <g
       id="g3783"
       transform="translate(-123.03658,272.94322)">
      <path
         transform="matrix(0,1,-1,0,385.56047,-55.674149)"
         sodipodi:end="3.1415927"
         sodipodi:start="0"
         d="m 272.94321,138.78021 c 0,28.8988 -23.4271,52.3259 -52.3259,52.3259 -28.8988,0 -52.3259,-23.4271 -52.3259,-52.3259 0,0 0,0 0,0 l 52.3259,0 z"
         sodipodi:ry="52.325901"
         sodipodi:rx="52.325901"
         sodipodi:cy="138.78021"
         sodipodi:cx="220.61731"
         id="path3779"
         style="fill:#07f500;fill-opacity:1;fill-rule:nonzero;stroke:#016c01;stroke-width:8.80000019;stroke-linecap:round;stroke-linejoin:miter;stroke-miterlimit:4;stroke-opacity:1;stroke-dasharray:none;stroke-dashoffset:0"
         sodipodi:type="arc" />
      <path
         sodipodi:type="arc"
         style="fill:#016c01;fill-opacity:1;fill-rule:nonzero;stroke:#016c01;stroke-width:8.80000019;stroke-linecap:round;stroke-linejoin:miter;stroke-miterlimit:4;stroke-opacity:1;stroke-dasharray:none;stroke-dashoffset:0"
         id="path3781"
         sodipodi:cx="220.61731"
         sodipodi:cy="138.78021"
         sodipodi:rx="52.325901"
         sodipodi:ry="52.325901"
         d="m 272.94321,138.78021 c 0,28.8988 -23.4271,52.3259 -52.3259,52.3259 -28.8988,0 -52.3259,-23.4271 -52.3259,-52.3259 0,0 0,0 0,0 l 52.3259,0 z"
         sodipodi:start="0"
         sodipodi:end="3.1415927"
         transform="matrix(0,0.34800698,-0.45277076,0,310.8551,86.752583)" />
    </g>
    <g
       transform="matrix(0.57783066,0,0,0.57783066,-34.421509,204.499)"
       style="fill:none;stroke:#000000;stroke-width:13.84488678;stroke-miterlimit:4;stroke-opacity:1;stroke-dasharray:none"
       id="g4426">
      <path
         inkscape:connector-curvature="0"
         id="path4428"
         d="m -34.403629,371.50099 c -9.02769,38.79699 -47.797258,62.92978 -86.594251,53.90209 -26.45763,-6.15644 -47.21217,-26.65623 -53.69487,-53.03581"
         style="stroke:#000000;stroke-width:11.15155506;stroke-linecap:round;stroke-linejoin:miter;stroke-miterlimit:4;stroke-dasharray:none;stroke-dashoffset:0"
         transform="matrix(-0.00394727,-1.5413616,0.99999221,-0.00608422,-496.27919,231.72032)" />
    </g>
    <g
       id="g4430"
       style="fill:none;stroke:#000000;stroke-width:35.42178726;stroke-miterlimit:4;stroke-opacity:1;stroke-dasharray:none"
       transform="matrix(0.28231213,0,0,0.28231213,-118.83277,319.92971)">
      <path
         transform="matrix(-0.00394727,-1.5413616,0.99999221,-0.00608422,-496.27919,231.72032)"
         style="stroke:#000000;stroke-width:28.53096771;stroke-linecap:round;stroke-linejoin:miter;stroke-miterlimit:4;stroke-dasharray:none;stroke-dashoffset:0"
         d="m -34.403629,371.50099 c -9.02769,38.79699 -47.797258,62.92978 -86.594251,53.90209 -26.45763,-6.15644 -47.21217,-26.65623 -53.69487,-53.03581"
         id="path4432"
         inkscape:connector-curvature="0" />
    </g>
    <path
       transform="matrix(0.31082953,0,0,0.31082953,-102.14002,301.2822)"
       d="m 531.42857,343.79074 a 134.28572,134.28572 0 1 1 -268.57144,0 134.28572,134.28572 0 1 1 268.57144,0 z"
       sodipodi:ry="134.28572"
       sodipodi:rx="134.28572"
       sodipodi:cy="343.79074"
       sodipodi:cx="397.14285"
       id="path4434"
       style="fill:#07f500;fill-opacity:1;fill-rule:nonzero;stroke:#016c01;stroke-width:25.73758125;stroke-linecap:round;stroke-linejoin:miter;stroke-miterlimit:4;stroke-opacity:1;stroke-dasharray:none;stroke-dashoffset:0"
       sodipodi:type="arc" />
    <g
       transform="translate(62.225401,39.597985)"
       style="fill:none;stroke:#000000;stroke-width:3;stroke-miterlimit:4;stroke-opacity:1;stroke-dasharray:none"
       id="g4436">
      <path
         inkscape:connector-curvature="0"
         id="path4438"
         d="m -34.403629,371.50099 c -9.02769,38.79699 -47.797258,62.92978 -86.594251,53.90209 -26.45763,-6.15644 -47.21217,-26.65623 -53.69487,-53.03581"
         style="stroke:#000000;stroke-width:2.41639137;stroke-linecap:round;stroke-linejoin:miter;stroke-miterlimit:4;stroke-dasharray:none;stroke-dashoffset:0"
         transform="matrix(-0.00394727,-1.5413616,0.99999221,-0.00608422,-496.27919,231.72032)" />
    </g>
    <g
       id="g2999"
       style="fill:none;stroke:#000000;stroke-width:0.74897015;stroke-miterlimit:4;stroke-opacity:1;stroke-dasharray:none"
       transform="matrix(1.3351667,0,0,1.3351667,145.51729,-95.592175)">
      <path
         transform="matrix(-0.00394727,-1.5413616,0.99999221,-0.00608422,-496.27919,231.72032)"
         style="stroke:#000000;stroke-width:0.60326836;stroke-linecap:round;stroke-linejoin:miter;stroke-miterlimit:4;stroke-dasharray:none;stroke-dashoffset:0"
         d="m -34.403629,371.50099 c -9.02769,38.79699 -47.797258,62.92978 -86.594251,53.90209 -26.45763,-6.15644 -47.21217,-26.65623 -53.69487,-53.03581"
         id="path3001"
         inkscape:connector-curvature="0" />
    </g>
    <text
       xml:space="preserve"
       style="font-size:259.75784302px;font-style:normal;font-variant:normal;font-weight:normal;font-stretch:normal;text-align:start;line-height:125%;letter-spacing:0px;word-spacing:0px;writing-mode:lr-tb;text-anchor:start;fill:#000000;fill-opacity:1;stroke:none;font-family:Sans;-inkscape-font-specification:Sans"
       x="231.00443"
       y="258.04233"
       id="text3771"
       sodipodi:linespacing="125%"
       transform="matrix(1.1189478,0.24586613,-0.1873274,0.85253537,0,0)"><tspan
         sodipodi:role="line"
         id="tspan3773"
         x="231.00443"
         y="258.04233">?</tspan></text>
    <text
       transform="matrix(1.0065827,-0.54707,0.41681703,0.76692346,0,0)"
       sodipodi:linespacing="125%"
       id="text3775"
       y="394.89694"
       x="-45.82069"
       style="font-size:179.90057373px;font-style:normal;font-variant:normal;font-weight:normal;font-stretch:normal;text-align:start;line-height:125%;letter-spacing:0px;word-spacing:0px;writing-mode:lr-tb;text-anchor:start;fill:#000000;fill-opacity:1;stroke:none;font-family:Sans;-inkscape-font-specification:Sans"
       xml:space="preserve"><tspan
         y="394.89694"
         x="-45.82069"
         id="tspan3777"
         sodipodi:role="line">?</tspan></text>
    <text
       transform="matrix(0.91735499,0.686261,-0.52286779,0.69894015,0,0)"
       sodipodi:linespacing="125%"
       id="text3779"
       y="63.014618"
       x="411.21811"
       style="font-size:131.72918701px;font-style:normal;font-variant:normal;font-weight:normal;font-stretch:normal;text-align:start;line-height:125%;letter-spacing:0px;word-spacing:0px;writing-mode:lr-tb;text-anchor:start;fill:#000000;fill-opacity:1;stroke:none;font-family:Sans;-inkscape-font-specification:Sans"
       xml:space="preserve"><tspan
         y="63.014618"
         x="411.21811"
         id="tspan3781"
         sodipodi:role="line">?</tspan></text>
  </g>
</svg>
