<?xml version="1.0" encoding="UTF-8" standalone="no"?>
<!-- Created with Inkscape (http://www.inkscape.org/) -->

<svg
   xmlns:dc="http://purl.org/dc/elements/1.1/"
   xmlns:cc="http://creativecommons.org/ns#"
   xmlns:rdf="http://www.w3.org/1999/02/22-rdf-syntax-ns#"
   xmlns:svg="http://www.w3.org/2000/svg"
   xmlns="http://www.w3.org/2000/svg"
   xmlns:sodipodi="http://sodipodi.sourceforge.net/DTD/sodipodi-0.dtd"
   xmlns:inkscape="http://www.inkscape.org/namespaces/inkscape"
   width="744.09448819"
   height="1052.3622047"
   id="svg2"
   version="1.1"
   inkscape:version="0.48.1 r9760"
   sodipodi:docname="pikmin.svg"
   inkscape:export-filename="/Users/barbarakohler/Desktop/GlobalGameJam2014/pikmin.png"
   inkscape:export-xdpi="56.949234"
   inkscape:export-ydpi="56.949234">
  <defs
     id="defs4" />
  <sodipodi:namedview
     id="base"
     pagecolor="#ffffff"
     bordercolor="#666666"
     borderopacity="1.0"
     inkscape:pageopacity="0.0"
     inkscape:pageshadow="2"
     inkscape:zoom="0.70710678"
     inkscape:cx="407.35114"
     inkscape:cy="873.73081"
     inkscape:document-units="px"
     inkscape:current-layer="g4090"
     showgrid="false"
     inkscape:window-width="1106"
     inkscape:window-height="797"
     inkscape:window-x="172"
     inkscape:window-y="0"
     inkscape:window-maximized="0" />
  <metadata
     id="metadata7">
    <rdf:RDF>
      <cc:Work
         rdf:about="">
        <dc:format>image/svg+xml</dc:format>
        <dc:type
           rdf:resource="http://purl.org/dc/dcmitype/StillImage" />
        <dc:title />
      </cc:Work>
    </rdf:RDF>
  </metadata>
  <g
     inkscape:label="Layer 1"
     inkscape:groupmode="layer"
     id="layer1">
    <path
       sodipodi:type="arc"
       style="fill:#07f500;fill-opacity:1;fill-rule:nonzero;stroke:#016c01;stroke-width:13;stroke-linecap:round;stroke-linejoin:miter;stroke-miterlimit:4;stroke-opacity:1;stroke-dasharray:none;stroke-dashoffset:0"
       id="path2985"
       sodipodi:cx="397.14285"
       sodipodi:cy="343.79074"
       sodipodi:rx="134.28572"
       sodipodi:ry="134.28572"
       d="m 531.42857,343.79074 a 134.28572,134.28572 0 1 1 -268.57144,0 134.28572,134.28572 0 1 1 268.57144,0 z"
       transform="translate(-163,99)" />
    <g
       id="g3813"
       transform="translate(-157,99)">
      <path
         transform="matrix(0.32598341,0,0,0.32598341,217.68087,329.43494)"
         sodipodi:type="arc"
         style="fill:#07f500;fill-opacity:1;fill-rule:nonzero;stroke:#016c01;stroke-width:39.11236191;stroke-linecap:round;stroke-linejoin:miter;stroke-miterlimit:4;stroke-opacity:1;stroke-dasharray:none;stroke-dashoffset:0"
         id="path3789"
         sodipodi:cx="397.14285"
         sodipodi:cy="343.79074"
         sodipodi:rx="134.28572"
         sodipodi:ry="134.28572"
         d="m 531.42857,343.79074 c 0,74.16396 -60.12176,134.28572 -134.28572,134.28572 -74.16395,0 -134.28572,-60.12176 -134.28572,-134.28572 0,-74.16395 60.12177,-134.28572 134.28572,-134.28572 74.16396,0 134.28572,60.12177 134.28572,134.28572 z" />
    </g>
    <g
       id="g3839"
       transform="translate(-166.1255,99)">
      <path
         transform="matrix(1.178731,0,0,1.178731,-83.44262,-70.277934)"
         d="m 391.42858,332.36218 c 0,15.77957 -12.79187,28.57143 -28.57143,28.57143 -15.77957,0 -28.57143,-12.79186 -28.57143,-28.57143 0,-15.77956 12.79186,-28.57143 28.57143,-28.57143 15.77956,0 28.57143,12.79187 28.57143,28.57143 z"
         sodipodi:ry="28.571428"
         sodipodi:rx="28.571428"
         sodipodi:cy="332.36218"
         sodipodi:cx="362.85715"
         id="path3763"
         style="fill:#016c01;fill-opacity:1;fill-rule:nonzero;stroke:#016c01;stroke-width:13;stroke-linecap:round;stroke-linejoin:miter;stroke-miterlimit:4;stroke-opacity:1;stroke-dasharray:none;stroke-dashoffset:0"
         sodipodi:type="arc" />
      <path
         transform="matrix(0.83333334,0,0,-0.83333334,57.073616,586.1645)"
         d="m 378.8072,329.09296 c 0,13.3894 -10.85426,24.24366 -24.24366,24.24366 -13.38941,0 -24.24366,-10.85426 -24.24366,-24.24366 0,-13.38941 10.85425,-24.24367 24.24366,-24.24367 13.3894,0 24.24366,10.85426 24.24366,24.24367 z"
         sodipodi:ry="24.243662"
         sodipodi:rx="24.243662"
         sodipodi:cy="329.09296"
         sodipodi:cx="354.56354"
         id="path3819"
         style="fill:#ffffff;fill-opacity:1;fill-rule:nonzero;stroke:none"
         sodipodi:type="arc" />
    </g>
    <path
       transform="matrix(-1.178731,0,0,1.178731,717.85382,28.722066)"
       d="m 391.42858,332.36218 a 28.571428,28.571428 0 1 1 -57.14286,0 28.571428,28.571428 0 1 1 57.14286,0 z"
       sodipodi:ry="28.571428"
       sodipodi:rx="28.571428"
       sodipodi:cy="332.36218"
       sodipodi:cx="362.85715"
       id="path3847"
       style="fill:#016c01;fill-opacity:1;fill-rule:nonzero;stroke:#016c01;stroke-width:13;stroke-linecap:round;stroke-linejoin:miter;stroke-miterlimit:4;stroke-opacity:1;stroke-dasharray:none;stroke-dashoffset:0"
       sodipodi:type="arc" />
    <path
       transform="matrix(-0.83333334,0,0,-0.83333334,591.33758,683.1645)"
       d="m 378.8072,329.09296 a 24.243662,24.243662 0 1 1 -48.48732,0 24.243662,24.243662 0 1 1 48.48732,0 z"
       sodipodi:ry="24.243662"
       sodipodi:rx="24.243662"
       sodipodi:cy="329.09296"
       sodipodi:cx="354.56354"
       id="path3849"
       style="fill:#ffffff;fill-opacity:1;fill-rule:nonzero;stroke:none"
       sodipodi:type="arc" />
    <path
       sodipodi:type="arc"
       style="fill:none;stroke:#000000;stroke-width:4;stroke-linecap:round;stroke-linejoin:miter;stroke-miterlimit:4;stroke-opacity:1;stroke-dasharray:none;stroke-dashoffset:0"
       id="path3973"
       sodipodi:cx="275.5"
       sodipodi:cy="236.86218"
       sodipodi:rx="18.5"
       sodipodi:ry="18.5"
       d="m 294,236.86218 a 18.5,18.5 0 1 1 -37,0 18.5,18.5 0 1 1 37,0 z"
       transform="translate(22,39)" />
    <path
       transform="matrix(1.3658537,0,0,1.3658537,-14.363751,-94.61274)"
       d="m 294,236.86218 a 18.5,18.5 0 1 1 -37,0 18.5,18.5 0 1 1 37,0 z"
       sodipodi:ry="18.5"
       sodipodi:rx="18.5"
       sodipodi:cy="236.86218"
       sodipodi:cx="275.5"
       id="path3975"
       style="fill:none;stroke:#000000;stroke-width:4;stroke-linecap:round;stroke-linejoin:miter;stroke-miterlimit:4;stroke-opacity:1;stroke-dasharray:none;stroke-dashoffset:0"
       sodipodi:type="arc" />
    <g
       id="g4099"
       transform="matrix(1.3244406,0,0,1.3244406,-165.51281,-433.15635)">
      <g
         transform="matrix(1.42579,0,0,1.4121699,-169.40519,176.38976)"
         id="g3996">
        <path
           inkscape:connector-curvature="0"
           id="path3977"
           transform="matrix(0.70136556,0,0,0.70813009,120.2177,96.029692)"
           d="m 542.90625,40.96875 c -34.10969,0 -61.75,27.403651 -61.75,61.1875 0,4.60114 0.52775,9.06419 1.5,13.375 -28.46972,5.45111 -49.96875,30.27248 -49.96875,60.0625 0,33.78385 27.64031,61.15625 61.75,61.15625 19.63523,0 37.12516,-9.07206 48.4375,-23.21875 20.04466,10.85624 47.54109,17.5625 77.875,17.5625 61.34125,0 111.0625,-27.3724 111.0625,-61.15625 0,-13.01914 -7.41159,-25.08202 -20,-35 2.35359,-5.88218 3.625,-12.14955 3.625,-18.65625 0,-33.783849 -34.24701,-61.1875 -76.5,-61.1875 -17.01577,0 -32.73118,4.456517 -45.4375,11.96875 C 582.32977,51.287388 563.83719,40.96875 542.90625,40.96875 z"
           style="fill:#ffffff;fill-opacity:1;stroke:#000000;stroke-width:6;stroke-linecap:round;stroke-linejoin:miter;stroke-miterlimit:4;stroke-opacity:1;stroke-dasharray:none;stroke-dashoffset:0" />
      </g>
      <g
         transform="translate(2,312)"
         id="g4090">
        <path
           inkscape:connector-curvature="0"
           style="fill:#ff2a2a;fill-opacity:1;fill-rule:nonzero;stroke:#8a0000;stroke-width:5.88411331;stroke-linecap:round;stroke-linejoin:miter;stroke-miterlimit:4;stroke-opacity:1;stroke-dasharray:none;stroke-dashoffset:0"
           d="m 578.09375,79.9375 c -23.71463,0 -44.26444,13.597334 -54.28125,33.40625 14.44081,-3.10247 33.09501,-4.96875 53.53125,-4.96875 21.22086,0 40.53303,2.02446 55.1875,5.34375 C 622.58496,93.706733 601.95751,79.9375 578.09375,79.9375 z m 60.6875,63.96875 c -15.17286,4.24545 -37.04973,6.90625 -61.4375,6.90625 -23.62066,0 -44.83791,-2.51721 -59.9375,-6.53125 1.8463,31.90836 28.31635,57.21875 60.6875,57.21875 32.4983,0 59.02835,-25.50828 60.6875,-57.59375 z"
           id="path4004" />
        <path
           d="m 531.42857,343.79074 a 134.28572,134.28572 0 1 1 -268.57144,0 134.28572,134.28572 0 1 1 268.57144,0 z"
           sodipodi:ry="134.28572"
           sodipodi:rx="134.28572"
           sodipodi:cy="343.79074"
           sodipodi:cx="397.14285"
           id="path4008"
           style="fill:#ff2a2a;fill-opacity:1;fill-rule:nonzero;stroke:#8a0000;stroke-width:39.11236191;stroke-linecap:round;stroke-linejoin:miter;stroke-miterlimit:4;stroke-opacity:1;stroke-dasharray:none;stroke-dashoffset:0"
           sodipodi:type="arc"
           transform="matrix(0.14754795,0,0,0.14754795,462.19471,144.90807)" />
        <path
           transform="matrix(0.14754795,0,0,0.14754795,586.06704,132.46248)"
           sodipodi:type="arc"
           style="fill:#ff2a2a;fill-opacity:1;fill-rule:nonzero;stroke:#8a0000;stroke-width:39.11236191;stroke-linecap:round;stroke-linejoin:miter;stroke-miterlimit:4;stroke-opacity:1;stroke-dasharray:none;stroke-dashoffset:0"
           id="path4010"
           sodipodi:cx="397.14285"
           sodipodi:cy="343.79074"
           sodipodi:rx="134.28572"
           sodipodi:ry="134.28572"
           d="m 531.42857,343.79074 c 0,74.16396 -60.12176,134.28572 -134.28572,134.28572 -74.16395,0 -134.28572,-60.12176 -134.28572,-134.28572 0,-74.16395 60.12177,-134.28572 134.28572,-134.28572 74.16396,0 134.28572,60.12177 134.28572,134.28572 z" />
        <path
           sodipodi:type="arc"
           style="fill:#800000;fill-opacity:1;fill-rule:nonzero;stroke:#800000;stroke-width:13;stroke-linecap:round;stroke-linejoin:miter;stroke-miterlimit:4;stroke-opacity:1;stroke-dasharray:none;stroke-dashoffset:0"
           id="path4018"
           sodipodi:cx="362.85715"
           sodipodi:cy="332.36218"
           sodipodi:rx="28.571428"
           sodipodi:ry="28.571428"
           d="m 391.42858,332.36218 c 0,15.77957 -12.79187,28.57143 -28.57143,28.57143 -15.77957,0 -28.57143,-12.79186 -28.57143,-28.57143 0,-15.77956 12.79186,-28.57143 28.57143,-28.57143 15.77956,0 28.57143,12.79187 28.57143,28.57143 z"
           transform="matrix(0.53352207,0,0,0.53352207,359.1409,-46.689435)" />
        <path
           sodipodi:type="arc"
           style="fill:#ffffff;fill-opacity:1;fill-rule:nonzero;stroke:none"
           id="path4020"
           sodipodi:cx="354.56354"
           sodipodi:cy="329.09296"
           sodipodi:rx="24.243662"
           sodipodi:ry="24.243662"
           d="m 378.8072,329.09296 c 0,13.3894 -10.85426,24.24366 -24.24366,24.24366 -13.38941,0 -24.24366,-10.85426 -24.24366,-24.24366 0,-13.38941 10.85425,-24.24367 24.24366,-24.24367 13.3894,0 24.24366,10.85426 24.24366,24.24367 z"
           transform="matrix(0.37718676,0,0,-0.37718676,418.85284,254.67488)" />
        <path
           transform="matrix(-0.53352207,0,0,0.53352207,797.01939,-46.689435)"
           d="m 391.42858,332.36218 c 0,15.77957 -12.79187,28.57143 -28.57143,28.57143 -15.77957,0 -28.57143,-12.79186 -28.57143,-28.57143 0,-15.77956 12.79186,-28.57143 28.57143,-28.57143 15.77956,0 28.57143,12.79187 28.57143,28.57143 z"
           sodipodi:ry="28.571428"
           sodipodi:rx="28.571428"
           sodipodi:cy="332.36218"
           sodipodi:cx="362.85715"
           id="path4028"
           style="fill:#800000;fill-opacity:1;fill-rule:nonzero;stroke:#800000;stroke-width:13;stroke-linecap:round;stroke-linejoin:miter;stroke-miterlimit:4;stroke-opacity:1;stroke-dasharray:none;stroke-dashoffset:0"
           sodipodi:type="arc" />
        <path
           transform="matrix(-0.37718676,0,0,-0.37718676,737.66099,254.67488)"
           d="m 378.8072,329.09296 c 0,13.3894 -10.85426,24.24366 -24.24366,24.24366 -13.38941,0 -24.24366,-10.85426 -24.24366,-24.24366 0,-13.38941 10.85425,-24.24367 24.24366,-24.24367 13.3894,0 24.24366,10.85426 24.24366,24.24367 z"
           sodipodi:ry="24.243662"
           sodipodi:rx="24.243662"
           sodipodi:cy="329.09296"
           sodipodi:cx="354.56354"
           id="path4030"
           style="fill:#ffffff;fill-opacity:1;fill-rule:nonzero;stroke:none"
           sodipodi:type="arc" />
        <path
           style="fill:none;stroke:#000000;stroke-width:4.99659348;stroke-linecap:butt;stroke-linejoin:miter;stroke-miterlimit:4;stroke-opacity:1;stroke-dasharray:none"
           d="m 560.56001,165.52734 38.85859,0 -40.82885,19.48725 37.59064,0"
           id="path4352"
           inkscape:connector-curvature="0" />
      </g>
    </g>
  </g>
</svg>
