<?xml version="1.0" encoding="UTF-8" standalone="no"?>
<!-- Created with Inkscape (http://www.inkscape.org/) -->

<svg
   xmlns:dc="http://purl.org/dc/elements/1.1/"
   xmlns:cc="http://creativecommons.org/ns#"
   xmlns:rdf="http://www.w3.org/1999/02/22-rdf-syntax-ns#"
   xmlns:svg="http://www.w3.org/2000/svg"
   xmlns="http://www.w3.org/2000/svg"
   xmlns:sodipodi="http://sodipodi.sourceforge.net/DTD/sodipodi-0.dtd"
   xmlns:inkscape="http://www.inkscape.org/namespaces/inkscape"
   width="744.09448819"
   height="1052.3622047"
   id="svg2"
   version="1.1"
   inkscape:version="0.48.1 r9760"
   sodipodi:docname="tutorial2-1.svg"
   inkscape:export-filename="/Users/barbarakohler/Documents/workspace/ggj14/app/assets/images/tutorial1.png"
   inkscape:export-xdpi="56.949234"
   inkscape:export-ydpi="56.949234">
  <defs
     id="defs4" />
  <sodipodi:namedview
     id="base"
     pagecolor="#ffffff"
     bordercolor="#666666"
     borderopacity="1.0"
     inkscape:pageopacity="0.0"
     inkscape:pageshadow="2"
     inkscape:zoom="0.70710678"
     inkscape:cx="238.90398"
     inkscape:cy="692.51382"
     inkscape:document-units="px"
     inkscape:current-layer="layer1"
     showgrid="false"
     inkscape:window-width="1327"
     inkscape:window-height="821"
     inkscape:window-x="0"
     inkscape:window-y="0"
     inkscape:window-maximized="0" />
  <metadata
     id="metadata7">
    <rdf:RDF>
      <cc:Work
         rdf:about="">
        <dc:format>image/svg+xml</dc:format>
        <dc:type
           rdf:resource="http://purl.org/dc/dcmitype/StillImage" />
        <dc:title></dc:title>
      </cc:Work>
    </rdf:RDF>
  </metadata>
  <g
     inkscape:label="Layer 1"
     inkscape:groupmode="layer"
     id="layer1">
    <g
       id="g4095">
      <path
         transform="translate(-163,99)"
         d="m 531.42857,343.79074 a 134.28572,134.28572 0 1 1 -268.57144,0 134.28572,134.28572 0 1 1 268.57144,0 z"
         sodipodi:ry="134.28572"
         sodipodi:rx="134.28572"
         sodipodi:cy="343.79074"
         sodipodi:cx="397.14285"
         id="path2985"
         style="fill:#07f500;fill-opacity:1;fill-rule:nonzero;stroke:#016c01;stroke-width:13;stroke-linecap:round;stroke-linejoin:miter;stroke-miterlimit:4;stroke-opacity:1;stroke-dasharray:none;stroke-dashoffset:0"
         sodipodi:type="arc" />
      <path
         transform="matrix(0.32598341,0,0,0.32598341,60.68087,428.43494)"
         sodipodi:type="arc"
         style="fill:#07f500;fill-opacity:1;fill-rule:nonzero;stroke:#016c01;stroke-width:39.11236191;stroke-linecap:round;stroke-linejoin:miter;stroke-miterlimit:4;stroke-opacity:1;stroke-dasharray:none;stroke-dashoffset:0"
         id="path3789"
         sodipodi:cx="397.14285"
         sodipodi:cy="343.79074"
         sodipodi:rx="134.28572"
         sodipodi:ry="134.28572"
         d="m 531.42857,343.79074 a 134.28572,134.28572 0 1 1 -268.57144,0 134.28572,134.28572 0 1 1 268.57144,0 z" />
      <g
         transform="translate(-166.1255,99)"
         id="g3839">
        <path
           sodipodi:type="arc"
           style="fill:#016c01;fill-opacity:1;fill-rule:nonzero;stroke:#016c01;stroke-width:13;stroke-linecap:round;stroke-linejoin:miter;stroke-miterlimit:4;stroke-opacity:1;stroke-dasharray:none;stroke-dashoffset:0"
           id="path3763"
           sodipodi:cx="362.85715"
           sodipodi:cy="332.36218"
           sodipodi:rx="28.571428"
           sodipodi:ry="28.571428"
           d="m 391.42858,332.36218 c 0,15.77957 -12.79187,28.57143 -28.57143,28.57143 -15.77957,0 -28.57143,-12.79186 -28.57143,-28.57143 0,-15.77956 12.79186,-28.57143 28.57143,-28.57143 15.77956,0 28.57143,12.79187 28.57143,28.57143 z"
           transform="matrix(1.178731,0,0,1.178731,-83.44262,-70.277934)" />
        <path
           sodipodi:type="arc"
           style="fill:#ffffff;fill-opacity:1;fill-rule:nonzero;stroke:none"
           id="path3819"
           sodipodi:cx="354.56354"
           sodipodi:cy="329.09296"
           sodipodi:rx="24.243662"
           sodipodi:ry="24.243662"
           d="m 378.8072,329.09296 c 0,13.3894 -10.85426,24.24366 -24.24366,24.24366 -13.38941,0 -24.24366,-10.85426 -24.24366,-24.24366 0,-13.38941 10.85425,-24.24367 24.24366,-24.24367 13.3894,0 24.24366,10.85426 24.24366,24.24367 z"
           transform="matrix(0.83333334,0,0,-0.83333334,57.073616,586.1645)" />
      </g>
      <path
         sodipodi:type="arc"
         style="fill:#016c01;fill-opacity:1;fill-rule:nonzero;stroke:#016c01;stroke-width:13;stroke-linecap:round;stroke-linejoin:miter;stroke-miterlimit:4;stroke-opacity:1;stroke-dasharray:none;stroke-dashoffset:0"
         id="path3847"
         sodipodi:cx="362.85715"
         sodipodi:cy="332.36218"
         sodipodi:rx="28.571428"
         sodipodi:ry="28.571428"
         d="m 391.42858,332.36218 a 28.571428,28.571428 0 1 1 -57.14286,0 28.571428,28.571428 0 1 1 57.14286,0 z"
         transform="matrix(-1.178731,0,0,1.178731,717.85382,28.722066)" />
      <path
         sodipodi:type="arc"
         style="fill:#ffffff;fill-opacity:1;fill-rule:nonzero;stroke:none"
         id="path3849"
         sodipodi:cx="354.56354"
         sodipodi:cy="329.09296"
         sodipodi:rx="24.243662"
         sodipodi:ry="24.243662"
         d="m 378.8072,329.09296 a 24.243662,24.243662 0 1 1 -48.48732,0 24.243662,24.243662 0 1 1 48.48732,0 z"
         transform="matrix(-0.83333334,0,0,-0.83333334,591.33758,683.1645)" />
    </g>
    <path
       sodipodi:type="arc"
       style="fill:none;stroke:#000000;stroke-width:4;stroke-linecap:round;stroke-linejoin:miter;stroke-miterlimit:4;stroke-opacity:1;stroke-dasharray:none;stroke-dashoffset:0"
       id="path3973"
       sodipodi:cx="275.5"
       sodipodi:cy="236.86218"
       sodipodi:rx="18.5"
       sodipodi:ry="18.5"
       d="m 294,236.86218 a 18.5,18.5 0 1 1 -37,0 18.5,18.5 0 1 1 37,0 z"
       transform="translate(22,39)" />
    <path
       transform="matrix(1.3658537,0,0,1.3658537,-59.618585,-110.16909)"
       d="m 294,236.86218 a 18.5,18.5 0 1 1 -37,0 18.5,18.5 0 1 1 37,0 z"
       sodipodi:ry="18.5"
       sodipodi:rx="18.5"
       sodipodi:cy="236.86218"
       sodipodi:cx="275.5"
       id="path3975"
       style="fill:none;stroke:#000000;stroke-width:4;stroke-linecap:round;stroke-linejoin:miter;stroke-miterlimit:4;stroke-opacity:1;stroke-dasharray:none;stroke-dashoffset:0"
       sodipodi:type="arc" />
    <g
       id="g4099"
       transform="matrix(1.3244406,0,0,1.3244406,-254.60826,-536.39394)">
      <g
         transform="matrix(1.42579,0,0,1.4121699,-169.40519,176.38976)"
         id="g3996">
        <path
           inkscape:connector-curvature="0"
           id="path3977"
           transform="matrix(0.70136556,0,0,0.70813009,120.2177,96.029692)"
           d="m 542.90625,40.96875 c -34.10969,0 -61.75,27.403651 -61.75,61.1875 0,4.60114 0.52775,9.06419 1.5,13.375 -28.46972,5.45111 -49.96875,30.27248 -49.96875,60.0625 0,33.78385 27.64031,61.15625 61.75,61.15625 19.63523,0 37.12516,-9.07206 48.4375,-23.21875 20.04466,10.85624 47.54109,17.5625 77.875,17.5625 61.34125,0 111.0625,-27.3724 111.0625,-61.15625 0,-13.01914 -7.41159,-25.08202 -20,-35 2.35359,-5.88218 3.625,-12.14955 3.625,-18.65625 0,-33.783849 -34.24701,-61.1875 -76.5,-61.1875 -17.01577,0 -32.73118,4.456517 -45.4375,11.96875 C 582.32977,51.287388 563.83719,40.96875 542.90625,40.96875 z"
           style="fill:#ffffff;fill-opacity:1;stroke:#000000;stroke-width:6;stroke-linecap:round;stroke-linejoin:miter;stroke-miterlimit:4;stroke-opacity:1;stroke-dasharray:none;stroke-dashoffset:0" />
      </g>
      <g
         transform="translate(2,312)"
         id="g4090">
        <path
           inkscape:connector-curvature="0"
           style="fill:#000000;fill-opacity:0.76888888;fill-rule:nonzero;stroke:#000000;stroke-width:5.88411331;stroke-linecap:round;stroke-linejoin:miter;stroke-miterlimit:4;stroke-opacity:1;stroke-dasharray:none;stroke-dashoffset:0"
           d="m 578.09375,79.9375 c -23.71463,0 -44.26444,13.597334 -54.28125,33.40625 14.44081,-3.10247 33.09501,-4.96875 53.53125,-4.96875 21.22086,0 40.53303,2.02446 55.1875,5.34375 C 622.58496,93.706733 601.95751,79.9375 578.09375,79.9375 z m 60.6875,63.96875 c -15.17286,4.24545 -37.04973,6.90625 -61.4375,6.90625 -23.62066,0 -44.83791,-2.51721 -59.9375,-6.53125 1.8463,31.90836 28.31635,57.21875 60.6875,57.21875 32.4983,0 59.02835,-25.50828 60.6875,-57.59375 z"
           id="path4004" />
        <path
           d="m 531.42857,343.79074 c 0,74.16396 -60.12176,134.28572 -134.28572,134.28572 -74.16395,0 -134.28572,-60.12176 -134.28572,-134.28572 0,-74.16395 60.12177,-134.28572 134.28572,-134.28572 74.16396,0 134.28572,60.12177 134.28572,134.28572 z"
           sodipodi:ry="134.28572"
           sodipodi:rx="134.28572"
           sodipodi:cy="343.79074"
           sodipodi:cx="397.14285"
           id="path4008"
           style="fill:#3b3b3b;fill-opacity:1;fill-rule:nonzero;stroke:#000000;stroke-width:39.11236191;stroke-linecap:round;stroke-linejoin:miter;stroke-miterlimit:4;stroke-opacity:1;stroke-dasharray:none;stroke-dashoffset:0"
           sodipodi:type="arc"
           transform="matrix(0.14754795,0,0,0.14754795,462.19471,144.90807)" />
        <path
           transform="matrix(0.14754795,0,0,0.14754795,586.06704,132.46248)"
           sodipodi:type="arc"
           style="fill:#3b3b3b;fill-opacity:1;fill-rule:nonzero;stroke:#000000;stroke-width:39.11236191;stroke-linecap:round;stroke-linejoin:miter;stroke-miterlimit:4;stroke-opacity:1;stroke-dasharray:none;stroke-dashoffset:0"
           id="path4010"
           sodipodi:cx="397.14285"
           sodipodi:cy="343.79074"
           sodipodi:rx="134.28572"
           sodipodi:ry="134.28572"
           d="m 531.42857,343.79074 c 0,74.16396 -60.12176,134.28572 -134.28572,134.28572 -74.16395,0 -134.28572,-60.12176 -134.28572,-134.28572 0,-74.16395 60.12177,-134.28572 134.28572,-134.28572 74.16396,0 134.28572,60.12177 134.28572,134.28572 z" />
        <path
           sodipodi:type="arc"
           style="fill:#000000;fill-opacity:1;fill-rule:nonzero;stroke:#000000;stroke-width:13;stroke-linecap:round;stroke-linejoin:miter;stroke-miterlimit:4;stroke-opacity:1;stroke-dasharray:none;stroke-dashoffset:0"
           id="path4018"
           sodipodi:cx="362.85715"
           sodipodi:cy="332.36218"
           sodipodi:rx="28.571428"
           sodipodi:ry="28.571428"
           d="m 391.42858,332.36218 c 0,15.77957 -12.79187,28.57143 -28.57143,28.57143 -15.77957,0 -28.57143,-12.79186 -28.57143,-28.57143 0,-15.77956 12.79186,-28.57143 28.57143,-28.57143 15.77956,0 28.57143,12.79187 28.57143,28.57143 z"
           transform="matrix(0.53352207,0,0,0.53352207,359.1409,-46.689435)" />
        <path
           sodipodi:type="arc"
           style="fill:#ffffff;fill-opacity:1;fill-rule:nonzero;stroke:none"
           id="path4020"
           sodipodi:cx="354.56354"
           sodipodi:cy="329.09296"
           sodipodi:rx="24.243662"
           sodipodi:ry="24.243662"
           d="m 378.8072,329.09296 c 0,13.3894 -10.85426,24.24366 -24.24366,24.24366 -13.38941,0 -24.24366,-10.85426 -24.24366,-24.24366 0,-13.38941 10.85425,-24.24367 24.24366,-24.24367 13.3894,0 24.24366,10.85426 24.24366,24.24367 z"
           transform="matrix(0.37718676,0,0,-0.37718676,418.85284,254.67488)" />
        <path
           transform="matrix(-0.53352207,0,0,0.53352207,797.01939,-46.689435)"
           d="m 391.42858,332.36218 c 0,15.77957 -12.79187,28.57143 -28.57143,28.57143 -15.77957,0 -28.57143,-12.79186 -28.57143,-28.57143 0,-15.77956 12.79186,-28.57143 28.57143,-28.57143 15.77956,0 28.57143,12.79187 28.57143,28.57143 z"
           sodipodi:ry="28.571428"
           sodipodi:rx="28.571428"
           sodipodi:cy="332.36218"
           sodipodi:cx="362.85715"
           id="path4028"
           style="fill:#000000;fill-opacity:1;fill-rule:nonzero;stroke:#000000;stroke-width:13;stroke-linecap:round;stroke-linejoin:miter;stroke-miterlimit:4;stroke-opacity:1;stroke-dasharray:none;stroke-dashoffset:0"
           sodipodi:type="arc" />
        <path
           transform="matrix(-0.37718676,0,0,-0.37718676,737.66099,254.67488)"
           d="m 378.8072,329.09296 c 0,13.3894 -10.85426,24.24366 -24.24366,24.24366 -13.38941,0 -24.24366,-10.85426 -24.24366,-24.24366 0,-13.38941 10.85425,-24.24367 24.24366,-24.24367 13.3894,0 24.24366,10.85426 24.24366,24.24367 z"
           sodipodi:ry="24.243662"
           sodipodi:rx="24.243662"
           sodipodi:cy="329.09296"
           sodipodi:cx="354.56354"
           id="path4030"
           style="fill:#ffffff;fill-opacity:1;fill-rule:nonzero;stroke:none"
           sodipodi:type="arc" />
        <path
           sodipodi:type="arc"
           style="fill:#000000;fill-opacity:1;fill-rule:nonzero;stroke:#000000;stroke-width:4.5999999;stroke-linecap:round;stroke-linejoin:miter;stroke-miterlimit:4;stroke-opacity:1;stroke-dasharray:none;stroke-dashoffset:0"
           id="path3797"
           sodipodi:cx="612.35449"
           sodipodi:cy="-10.419312"
           sodipodi:rx="15.556349"
           sodipodi:ry="10.606602"
           d="m 627.91084,-10.419312 c 0,5.8578649 -6.96481,10.60660219 -15.55635,10.60660219 -8.59153,0 -15.55635,-4.74873729 -15.55635,-10.60660219 0,-5.857864 6.96482,-10.606601 15.55635,-10.606601 8.59154,0 15.55635,4.748737 15.55635,10.606601 z"
           transform="matrix(0.75503575,0,0,0.75503575,183.83165,188.02918)" />
        <path
           sodipodi:nodetypes="ccccc"
           inkscape:connector-curvature="0"
           id="path3799"
           d="m 638.7067,181.7639 11.7456,4.27113 61.93134,-158.031711 3.20335,-44.846832 z"
           style="fill:#e6e6e6;stroke:#000000;stroke-width:3.47316432;stroke-linecap:butt;stroke-linejoin:miter;stroke-miterlimit:4;stroke-opacity:1;stroke-dasharray:none" />
      </g>
    </g>
    <path
       transform="matrix(-1,0,0,1,468.55346,106.88225)"
       d="m 294,236.86218 a 18.5,18.5 0 1 1 -37,0 18.5,18.5 0 1 1 37,0 z"
       sodipodi:ry="18.5"
       sodipodi:rx="18.5"
       sodipodi:cy="236.86218"
       sodipodi:cx="275.5"
       id="path4054"
       style="fill:none;stroke:#000000;stroke-width:4;stroke-linecap:round;stroke-linejoin:miter;stroke-miterlimit:4;stroke-opacity:1;stroke-dasharray:none;stroke-dashoffset:0"
       sodipodi:type="arc" />
    <path
       sodipodi:type="arc"
       style="fill:none;stroke:#000000;stroke-width:4;stroke-linecap:round;stroke-linejoin:miter;stroke-miterlimit:4;stroke-opacity:1;stroke-dasharray:none;stroke-dashoffset:0"
       id="path4056"
       sodipodi:cx="275.5"
       sodipodi:cy="236.86218"
       sodipodi:rx="18.5"
       sodipodi:ry="18.5"
       d="m 294,236.86218 a 18.5,18.5 0 1 1 -37,0 18.5,18.5 0 1 1 37,0 z"
       transform="matrix(-1.3658537,0,0,1.3658537,523.30199,-52.186333)" />
    <g
       id="g4713"
       transform="translate(46.669048,-104.6518)">
      <g
         id="g4060"
         transform="matrix(-1.8883742,0,0,1.8703351,880.43338,-131.65634)">
        <path
           style="fill:#ffffff;fill-opacity:1;stroke:#000000;stroke-width:6;stroke-linecap:round;stroke-linejoin:miter;stroke-miterlimit:4;stroke-opacity:1;stroke-dasharray:none;stroke-dashoffset:0"
           d="m 542.90625,40.96875 c -34.10969,0 -61.75,27.403651 -61.75,61.1875 0,4.60114 0.52775,9.06419 1.5,13.375 -28.46972,5.45111 -49.96875,30.27248 -49.96875,60.0625 0,33.78385 27.64031,61.15625 61.75,61.15625 19.63523,0 37.12516,-9.07206 48.4375,-23.21875 20.04466,10.85624 47.54109,17.5625 77.875,17.5625 61.34125,0 111.0625,-27.3724 111.0625,-61.15625 0,-13.01914 -7.41159,-25.08202 -20,-35 2.35359,-5.88218 3.625,-12.14955 3.625,-18.65625 0,-33.783849 -34.24701,-61.1875 -76.5,-61.1875 -17.01577,0 -32.73118,4.456517 -45.4375,11.96875 C 582.32977,51.287388 563.83719,40.96875 542.90625,40.96875 z"
           transform="matrix(0.70136556,0,0,0.70813009,120.2177,96.029692)"
           id="path4062"
           inkscape:connector-curvature="0" />
      </g>
      <path
         sodipodi:type="arc"
         style="fill:#07f500;fill-opacity:1;fill-rule:nonzero;stroke:#016c01;stroke-width:13;stroke-linecap:round;stroke-linejoin:miter;stroke-miterlimit:4;stroke-opacity:1;stroke-dasharray:none;stroke-dashoffset:0"
         id="path4107"
         sodipodi:cx="397.14285"
         sodipodi:cy="343.79074"
         sodipodi:rx="134.28572"
         sodipodi:ry="134.28572"
         d="m 531.42857,343.79074 c 0,74.16396 -60.12176,134.28572 -134.28572,134.28572 -74.16395,0 -134.28572,-60.12176 -134.28572,-134.28572 0,-74.16395 60.12177,-134.28572 134.28572,-134.28572 74.16396,0 134.28572,60.12177 134.28572,134.28572 z"
         transform="matrix(0.61784621,0,0,0.61784621,-369.08807,26.672505)" />
      <g
         id="g4113"
         transform="matrix(0.61784621,0,0,0.61784621,-371.01915,26.672505)">
        <path
           transform="matrix(1.178731,0,0,1.178731,-83.44262,-70.277934)"
           d="m 391.42858,332.36218 c 0,15.77957 -12.79187,28.57143 -28.57143,28.57143 -15.77957,0 -28.57143,-12.79186 -28.57143,-28.57143 0,-15.77956 12.79186,-28.57143 28.57143,-28.57143 15.77956,0 28.57143,12.79187 28.57143,28.57143 z"
           sodipodi:ry="28.571428"
           sodipodi:rx="28.571428"
           sodipodi:cy="332.36218"
           sodipodi:cx="362.85715"
           id="path4115"
           style="fill:#016c01;fill-opacity:1;fill-rule:nonzero;stroke:#016c01;stroke-width:13;stroke-linecap:round;stroke-linejoin:miter;stroke-miterlimit:4;stroke-opacity:1;stroke-dasharray:none;stroke-dashoffset:0"
           sodipodi:type="arc" />
        <path
           transform="matrix(0.83333334,0,0,-0.83333334,47.917852,599.89815)"
           d="m 378.8072,329.09296 c 0,13.3894 -10.85426,24.24366 -24.24366,24.24366 -13.38941,0 -24.24366,-10.85426 -24.24366,-24.24366 0,-13.38941 10.85425,-24.24367 24.24366,-24.24367 13.3894,0 24.24366,10.85426 24.24366,24.24367 z"
           sodipodi:ry="24.243662"
           sodipodi:rx="24.243662"
           sodipodi:cy="329.09296"
           sodipodi:cx="354.56354"
           id="path4117"
           style="fill:#ffffff;fill-opacity:1;fill-rule:nonzero;stroke:none"
           sodipodi:type="arc" />
      </g>
      <path
         transform="matrix(-0.72827448,0,0,0.72827448,175.14412,-16.74845)"
         d="m 391.42858,332.36218 c 0,15.77957 -12.79187,28.57143 -28.57143,28.57143 -15.77957,0 -28.57143,-12.79186 -28.57143,-28.57143 0,-15.77956 12.79186,-28.57143 28.57143,-28.57143 15.77956,0 28.57143,12.79187 28.57143,28.57143 z"
         sodipodi:ry="28.571428"
         sodipodi:rx="28.571428"
         sodipodi:cy="332.36218"
         sodipodi:cx="362.85715"
         id="path4119"
         style="fill:#016c01;fill-opacity:1;fill-rule:nonzero;stroke:#016c01;stroke-width:13;stroke-linecap:round;stroke-linejoin:miter;stroke-miterlimit:4;stroke-opacity:1;stroke-dasharray:none;stroke-dashoffset:0"
         sodipodi:type="arc" />
      <path
         transform="matrix(-0.51487185,0,0,-0.51487185,92.733904,398.91004)"
         d="m 378.8072,329.09296 c 0,13.3894 -10.85426,24.24366 -24.24366,24.24366 -13.38941,0 -24.24366,-10.85426 -24.24366,-24.24366 0,-13.38941 10.85425,-24.24367 24.24366,-24.24367 13.3894,0 24.24366,10.85426 24.24366,24.24367 z"
         sodipodi:ry="24.243662"
         sodipodi:rx="24.243662"
         sodipodi:cy="329.09296"
         sodipodi:cx="354.56354"
         id="path4121"
         style="fill:#ffffff;fill-opacity:1;fill-rule:nonzero;stroke:none"
         sodipodi:type="arc" />
      <path
         sodipodi:type="arc"
         style="fill:#016c01;fill-opacity:1;fill-rule:nonzero;stroke:#006400;stroke-width:2;stroke-linecap:round;stroke-linejoin:miter;stroke-miterlimit:4;stroke-opacity:1;stroke-dasharray:none;stroke-dashoffset:0"
         id="path4637"
         sodipodi:cx="-125.86501"
         sodipodi:cy="294.34372"
         sodipodi:rx="21.213203"
         sodipodi:ry="15.556349"
         d="m -104.65181,294.34372 c 0,8.59153 -9.49747,15.55635 -21.2132,15.55635 -11.71573,0 -21.21321,-6.96482 -21.21321,-15.55635 0,-8.59153 9.49748,-15.55635 21.21321,-15.55635 11.71573,0 21.2132,6.96482 21.2132,15.55635 z"
         transform="translate(1.4142137,-4.2426407)" />
      <path
         inkscape:connector-curvature="0"
         id="path4639"
         d="m -109.48022,322.52747 5.65685,62.2254 12.727922,12.72792 14.142135,-14.14214 -8.485277,-65.05382 z"
         style="fill:#000000;stroke:#000000;stroke-width:1px;stroke-linecap:butt;stroke-linejoin:miter;stroke-opacity:1" />
      <path
         transform="matrix(1.4505572,0,0,1.4505572,107.17052,-460.5316)"
         d="m -125.86501,534.05292 c 0,8.98206 -7.28139,16.26345 -16.26345,16.26345 -8.98206,0 -16.26346,-7.28139 -16.26346,-16.26345 0,-8.98206 7.2814,-16.26346 16.26346,-16.26346 8.98206,0 16.26345,7.2814 16.26345,16.26346 z"
         sodipodi:ry="16.263456"
         sodipodi:rx="16.263456"
         sodipodi:cy="534.05292"
         sodipodi:cx="-142.12846"
         id="path4641"
         style="fill:#b3b3b3;fill-opacity:1;fill-rule:nonzero;stroke:#00008a;stroke-width:2;stroke-linecap:round;stroke-linejoin:miter;stroke-miterlimit:4;stroke-opacity:1;stroke-dasharray:none;stroke-dashoffset:0"
         sodipodi:type="arc" />
      <path
         sodipodi:type="arc"
         style="fill:#ffffff;fill-opacity:1;fill-rule:nonzero;stroke:none"
         id="path4643"
         sodipodi:cx="354.56354"
         sodipodi:cy="329.09296"
         sodipodi:rx="24.243662"
         sodipodi:ry="24.243662"
         d="m 378.8072,329.09296 c 0,13.3894 -10.85426,24.24366 -24.24366,24.24366 -13.38941,0 -24.24366,-10.85426 -24.24366,-24.24366 0,-13.38941 10.85425,-24.24367 24.24366,-24.24367 13.3894,0 24.24366,10.85426 24.24366,24.24367 z"
         transform="matrix(-0.20862185,0,0,-0.20862185,-6.3052371,279.38699)" />
      <path
         transform="matrix(-0.20862185,0,0,-0.20862185,-1.355492,297.06466)"
         d="m 378.8072,329.09296 c 0,13.3894 -10.85426,24.24366 -24.24366,24.24366 -13.38941,0 -24.24366,-10.85426 -24.24366,-24.24366 0,-13.38941 10.85425,-24.24367 24.24366,-24.24367 13.3894,0 24.24366,10.85426 24.24366,24.24367 z"
         sodipodi:ry="24.243662"
         sodipodi:rx="24.243662"
         sodipodi:cy="329.09296"
         sodipodi:cx="354.56354"
         id="path4645"
         style="fill:#ffffff;fill-opacity:1;fill-rule:nonzero;stroke:none"
         sodipodi:type="arc" />
      <path
         sodipodi:type="arc"
         style="fill:#ffffff;fill-opacity:1;fill-rule:nonzero;stroke:none"
         id="path4647"
         sodipodi:cx="354.56354"
         sodipodi:cy="329.09296"
         sodipodi:rx="24.243662"
         sodipodi:ry="24.243662"
         d="m 378.8072,329.09296 c 0,13.3894 -10.85426,24.24366 -24.24366,24.24366 -13.38941,0 -24.24366,-10.85426 -24.24366,-24.24366 0,-13.38941 10.85425,-24.24367 24.24366,-24.24367 13.3894,0 24.24366,10.85426 24.24366,24.24367 z"
         transform="matrix(-0.20862185,0,0,-0.20862185,-96.814906,290.7007)" />
      <path
         transform="matrix(-0.20862185,0,0,-0.20862185,-84.79409,276.55856)"
         d="m 378.8072,329.09296 c 0,13.3894 -10.85426,24.24366 -24.24366,24.24366 -13.38941,0 -24.24366,-10.85426 -24.24366,-24.24366 0,-13.38941 10.85425,-24.24367 24.24366,-24.24367 13.3894,0 24.24366,10.85426 24.24366,24.24367 z"
         sodipodi:ry="24.243662"
         sodipodi:rx="24.243662"
         sodipodi:cy="329.09296"
         sodipodi:cx="354.56354"
         id="path4649"
         style="fill:#ffffff;fill-opacity:1;fill-rule:nonzero;stroke:none"
         sodipodi:type="arc" />
      <path
         transform="translate(-2.8284271,2.8284271)"
         d="m -91.92388,381.31784 c 0,14.4494 -11.71355,26.16295 -26.16295,26.16295 -14.4494,0 -26.16295,-11.71355 -26.16295,-26.16295 0,-14.4494 11.71355,-26.16295 26.16295,-26.16295 14.4494,0 26.16295,11.71355 26.16295,26.16295 z"
         sodipodi:ry="26.162951"
         sodipodi:rx="26.162951"
         sodipodi:cy="381.31784"
         sodipodi:cx="-118.08683"
         id="path4709"
         style="fill:#07f500;fill-opacity:1;fill-rule:nonzero;stroke:#006400;stroke-width:8;stroke-linecap:round;stroke-linejoin:miter;stroke-miterlimit:4;stroke-opacity:1;stroke-dasharray:none;stroke-dashoffset:0"
         sodipodi:type="arc" />
      <path
         sodipodi:type="arc"
         style="fill:#07f500;fill-opacity:1;fill-rule:nonzero;stroke:#006400;stroke-width:8;stroke-linecap:round;stroke-linejoin:miter;stroke-miterlimit:4;stroke-opacity:1;stroke-dasharray:none;stroke-dashoffset:0"
         id="path4711"
         sodipodi:cx="-118.08683"
         sodipodi:cy="381.31784"
         sodipodi:rx="26.162951"
         sodipodi:ry="26.162951"
         d="m -91.92388,381.31784 c 0,14.4494 -11.71355,26.16295 -26.16295,26.16295 -14.4494,0 -26.16295,-11.71355 -26.16295,-26.16295 0,-14.4494 11.71355,-26.16295 26.16295,-26.16295 14.4494,0 26.16295,11.71355 26.16295,26.16295 z"
         transform="translate(57.982756,-7.0710679)" />
    </g>
  </g>
</svg>
